%TF.GenerationSoftware,KiCad,Pcbnew,7.0.7*%
%TF.CreationDate,2023-11-06T00:52:22-06:00*%
%TF.ProjectId,ScienceHeaterElement_2023,53636965-6e63-4654-9865-61746572456c,rev?*%
%TF.SameCoordinates,Original*%
%TF.FileFunction,Copper,L1,Top*%
%TF.FilePolarity,Positive*%
%FSLAX46Y46*%
G04 Gerber Fmt 4.6, Leading zero omitted, Abs format (unit mm)*
G04 Created by KiCad (PCBNEW 7.0.7) date 2023-11-06 00:52:22*
%MOMM*%
%LPD*%
G01*
G04 APERTURE LIST*
%TA.AperFunction,ComponentPad*%
%ADD10C,1.524000*%
%TD*%
%TA.AperFunction,ComponentPad*%
%ADD11R,1.800000X1.800000*%
%TD*%
%TA.AperFunction,ComponentPad*%
%ADD12O,1.800000X1.800000*%
%TD*%
%TA.AperFunction,ViaPad*%
%ADD13C,0.800000*%
%TD*%
%TA.AperFunction,Conductor*%
%ADD14C,0.254000*%
%TD*%
%TA.AperFunction,Conductor*%
%ADD15C,0.250000*%
%TD*%
G04 APERTURE END LIST*
D10*
%TO.P,Conn1,1*%
%TO.N,+3.3V*%
X70358000Y-39370000D03*
%TO.P,Conn1,2*%
%TO.N,Gate_Driving_Pin*%
X70358000Y-41910000D03*
%TO.P,Conn1,3*%
%TO.N,Temp_Sense*%
X70358000Y-44450000D03*
%TD*%
D11*
%TO.P,R1,1*%
%TO.N,+12V*%
X75184000Y-53910000D03*
D12*
%TO.P,R1,2*%
%TO.N,/Heater_Trace*%
X80264000Y-53910000D03*
%TD*%
D10*
%TO.P,Conn2,1*%
%TO.N,+12V*%
X70358000Y-54610000D03*
%TO.P,Conn2,2*%
X70358000Y-57150000D03*
%TO.P,Conn2,3*%
%TO.N,GND*%
X70358000Y-59690000D03*
%TO.P,Conn2,4*%
X70358000Y-62230000D03*
%TD*%
D13*
%TO.N,GND*%
X74168000Y-41910000D03*
X74168000Y-39116000D03*
X81788000Y-49276000D03*
%TO.N,/Heater_Trace*%
X92456000Y-49276000D03*
X92456000Y-52324000D03*
X80264000Y-47752000D03*
X97282000Y-52324000D03*
X97282000Y-49276000D03*
X73152000Y-46228000D03*
X75438000Y-44450000D03*
%TD*%
D14*
%TO.N,/Heater_Trace*%
X104394000Y-65786000D02*
X104394000Y-66294000D01*
X86106000Y-48514000D02*
X86106000Y-49022000D01*
X86360000Y-54356000D02*
X86106000Y-54610000D01*
X104140000Y-38100000D02*
X86360000Y-38100000D01*
X104140000Y-46228000D02*
X86360000Y-46228000D01*
X85598000Y-52324000D02*
X84582000Y-51308000D01*
X104140000Y-60452000D02*
X86360000Y-60452000D01*
X92456000Y-49276000D02*
X94742000Y-49276000D01*
X86360000Y-61468000D02*
X104140000Y-61468000D01*
X104140000Y-57404000D02*
X104394000Y-57658000D01*
X86360000Y-44196000D02*
X86106000Y-44450000D01*
X97282000Y-52324000D02*
X94742000Y-52324000D01*
X86360000Y-50292000D02*
X86106000Y-50546000D01*
X86106000Y-54610000D02*
X86106000Y-55118000D01*
X74930000Y-44450000D02*
X75438000Y-44450000D01*
X94742000Y-49276000D02*
X97282000Y-49276000D01*
X86360000Y-45212000D02*
X104140000Y-45212000D01*
X84582000Y-50292000D02*
X81026000Y-50292000D01*
X104394000Y-48006000D02*
X104140000Y-48260000D01*
X86106000Y-38862000D02*
X86360000Y-39116000D01*
X104140000Y-56388000D02*
X86360000Y-56388000D01*
X104394000Y-52070000D02*
X104140000Y-52324000D01*
X86360000Y-60452000D02*
X86106000Y-60706000D01*
X86106000Y-46990000D02*
X86360000Y-47244000D01*
X104140000Y-36068000D02*
X86360000Y-36068000D01*
X104140000Y-65532000D02*
X104394000Y-65786000D01*
X86360000Y-42164000D02*
X86106000Y-42418000D01*
X86106000Y-56642000D02*
X86106000Y-57150000D01*
X104394000Y-63754000D02*
X104394000Y-64262000D01*
X86106000Y-44958000D02*
X86360000Y-45212000D01*
X104394000Y-37846000D02*
X104140000Y-38100000D01*
X86106000Y-64770000D02*
X86106000Y-65278000D01*
X86360000Y-37084000D02*
X104140000Y-37084000D01*
X86106000Y-42418000D02*
X86106000Y-42926000D01*
X86360000Y-41148000D02*
X104140000Y-41148000D01*
X86106000Y-36830000D02*
X86360000Y-37084000D01*
X104394000Y-43942000D02*
X104140000Y-44196000D01*
X86360000Y-35052000D02*
X85598000Y-35814000D01*
X86106000Y-61214000D02*
X86360000Y-61468000D01*
X104394000Y-35814000D02*
X104140000Y-36068000D01*
X104394000Y-66294000D02*
X104140000Y-66548000D01*
X104140000Y-44196000D02*
X86360000Y-44196000D01*
X86360000Y-47244000D02*
X104140000Y-47244000D01*
X104140000Y-47244000D02*
X104394000Y-47498000D01*
X104394000Y-43434000D02*
X104394000Y-43942000D01*
X86360000Y-55372000D02*
X104140000Y-55372000D01*
X86360000Y-39116000D02*
X104140000Y-39116000D01*
X104140000Y-62484000D02*
X86360000Y-62484000D01*
X86360000Y-63500000D02*
X104140000Y-63500000D01*
X85598000Y-35814000D02*
X85598000Y-48006000D01*
X81026000Y-51308000D02*
X80264000Y-52070000D01*
X86360000Y-43180000D02*
X104140000Y-43180000D01*
X86360000Y-36068000D02*
X86106000Y-36322000D01*
X86360000Y-57404000D02*
X104140000Y-57404000D01*
X104140000Y-40132000D02*
X86360000Y-40132000D01*
X86360000Y-59436000D02*
X104140000Y-59436000D01*
X85598000Y-49276000D02*
X84582000Y-50292000D01*
X80264000Y-49530000D02*
X80264000Y-47752000D01*
X104394000Y-45974000D02*
X104140000Y-46228000D01*
X81026000Y-50292000D02*
X80264000Y-49530000D01*
X104140000Y-45212000D02*
X104394000Y-45466000D01*
X84582000Y-51308000D02*
X81026000Y-51308000D01*
X104140000Y-64516000D02*
X86360000Y-64516000D01*
X86106000Y-59182000D02*
X86360000Y-59436000D01*
X104140000Y-48260000D02*
X86360000Y-48260000D01*
X104140000Y-50292000D02*
X86360000Y-50292000D01*
X104394000Y-39370000D02*
X104394000Y-39878000D01*
X104140000Y-66548000D02*
X86360000Y-66548000D01*
X104140000Y-35052000D02*
X104394000Y-35306000D01*
X86106000Y-57150000D02*
X86360000Y-57404000D01*
X86360000Y-48260000D02*
X86106000Y-48514000D01*
X86360000Y-51308000D02*
X104140000Y-51308000D01*
X104394000Y-54102000D02*
X104140000Y-54356000D01*
X86360000Y-40132000D02*
X86106000Y-40386000D01*
X104140000Y-43180000D02*
X104394000Y-43434000D01*
X104140000Y-59436000D02*
X104394000Y-59690000D01*
X104140000Y-42164000D02*
X86360000Y-42164000D01*
X86360000Y-46228000D02*
X86106000Y-46482000D01*
X86106000Y-40894000D02*
X86360000Y-41148000D01*
X86106000Y-63246000D02*
X86360000Y-63500000D01*
X104394000Y-37338000D02*
X104394000Y-37846000D01*
X97282000Y-49276000D02*
X104140000Y-49276000D01*
X104140000Y-37084000D02*
X104394000Y-37338000D01*
X104394000Y-47498000D02*
X104394000Y-48006000D01*
X85598000Y-65786000D02*
X85598000Y-52324000D01*
X104140000Y-55372000D02*
X104394000Y-55626000D01*
X86360000Y-49276000D02*
X92456000Y-49276000D01*
X104140000Y-54356000D02*
X86360000Y-54356000D01*
X104394000Y-41402000D02*
X104394000Y-41910000D01*
X80264000Y-52070000D02*
X80264000Y-52832000D01*
X104394000Y-56134000D02*
X104140000Y-56388000D01*
X104394000Y-55626000D02*
X104394000Y-56134000D01*
X104394000Y-35306000D02*
X104394000Y-35814000D01*
X86106000Y-58674000D02*
X86106000Y-59182000D01*
X104394000Y-51562000D02*
X104394000Y-52070000D01*
X104140000Y-49276000D02*
X104394000Y-49530000D01*
X86106000Y-60706000D02*
X86106000Y-61214000D01*
X86360000Y-38100000D02*
X86106000Y-38354000D01*
X104140000Y-63500000D02*
X104394000Y-63754000D01*
X104394000Y-39878000D02*
X104140000Y-40132000D01*
X104140000Y-51308000D02*
X104394000Y-51562000D01*
X104140000Y-41148000D02*
X104394000Y-41402000D01*
X86360000Y-66548000D02*
X85598000Y-65786000D01*
X86106000Y-44450000D02*
X86106000Y-44958000D01*
X86106000Y-49022000D02*
X86360000Y-49276000D01*
X104140000Y-61468000D02*
X104394000Y-61722000D01*
X86360000Y-35052000D02*
X104140000Y-35052000D01*
X104140000Y-39116000D02*
X104394000Y-39370000D01*
X104394000Y-49530000D02*
X104394000Y-50038000D01*
X86106000Y-46482000D02*
X86106000Y-46990000D01*
X86106000Y-52578000D02*
X86106000Y-53086000D01*
X86106000Y-55118000D02*
X86360000Y-55372000D01*
X94742000Y-52324000D02*
X92456000Y-52324000D01*
X104140000Y-53340000D02*
X104394000Y-53594000D01*
X86106000Y-50546000D02*
X86106000Y-51054000D01*
X86106000Y-42926000D02*
X86360000Y-43180000D01*
X104394000Y-50038000D02*
X104140000Y-50292000D01*
X85598000Y-48006000D02*
X85598000Y-49276000D01*
X104394000Y-45466000D02*
X104394000Y-45974000D01*
X104394000Y-41910000D02*
X104140000Y-42164000D01*
X86360000Y-64516000D02*
X86106000Y-64770000D01*
X104394000Y-62230000D02*
X104140000Y-62484000D01*
X86106000Y-36322000D02*
X86106000Y-36830000D01*
X104394000Y-59690000D02*
X104394000Y-60198000D01*
X86106000Y-65278000D02*
X86360000Y-65532000D01*
X86360000Y-58420000D02*
X86106000Y-58674000D01*
X86106000Y-51054000D02*
X86360000Y-51308000D01*
X86106000Y-40386000D02*
X86106000Y-40894000D01*
X104140000Y-58420000D02*
X86360000Y-58420000D01*
X104394000Y-58166000D02*
X104140000Y-58420000D01*
X86360000Y-52324000D02*
X86106000Y-52578000D01*
X86360000Y-56388000D02*
X86106000Y-56642000D01*
X104394000Y-53594000D02*
X104394000Y-54102000D01*
X92456000Y-52324000D02*
X86360000Y-52324000D01*
X86106000Y-38354000D02*
X86106000Y-38862000D01*
X86360000Y-62484000D02*
X86106000Y-62738000D01*
X104394000Y-61722000D02*
X104394000Y-62230000D01*
X104394000Y-64262000D02*
X104140000Y-64516000D01*
X86106000Y-53086000D02*
X86360000Y-53340000D01*
X86360000Y-53340000D02*
X104140000Y-53340000D01*
X86360000Y-65532000D02*
X104140000Y-65532000D01*
X104394000Y-57658000D02*
X104394000Y-58166000D01*
X104394000Y-60198000D02*
X104140000Y-60452000D01*
X104140000Y-52324000D02*
X97282000Y-52324000D01*
X73152000Y-46228000D02*
X74930000Y-44450000D01*
X86106000Y-62738000D02*
X86106000Y-63246000D01*
D15*
X80264000Y-53910000D02*
X80264000Y-52832000D01*
%TD*%
%TA.AperFunction,Conductor*%
%TO.N,GND*%
G36*
X82493026Y-31772906D02*
G01*
X82538788Y-31825704D01*
X82550000Y-31877230D01*
X82550000Y-49540500D01*
X82530315Y-49607539D01*
X82477511Y-49653294D01*
X82426000Y-49664500D01*
X81337281Y-49664500D01*
X81270242Y-49644815D01*
X81249600Y-49628181D01*
X80927819Y-49306399D01*
X80894334Y-49245076D01*
X80891500Y-49218718D01*
X80891500Y-48448465D01*
X80911185Y-48381426D01*
X80923343Y-48365500D01*
X80996533Y-48284216D01*
X81091179Y-48120284D01*
X81149674Y-47940256D01*
X81169460Y-47752000D01*
X81149674Y-47563744D01*
X81091179Y-47383716D01*
X80996533Y-47219784D01*
X80869871Y-47079112D01*
X80869870Y-47079111D01*
X80716734Y-46967851D01*
X80716729Y-46967848D01*
X80543807Y-46890857D01*
X80543802Y-46890855D01*
X80398000Y-46859865D01*
X80358646Y-46851500D01*
X80169354Y-46851500D01*
X80136897Y-46858398D01*
X79984197Y-46890855D01*
X79984192Y-46890857D01*
X79811270Y-46967848D01*
X79811265Y-46967851D01*
X79658129Y-47079111D01*
X79531466Y-47219785D01*
X79436821Y-47383715D01*
X79436818Y-47383722D01*
X79378327Y-47563740D01*
X79378326Y-47563744D01*
X79358540Y-47752000D01*
X79378326Y-47940256D01*
X79378327Y-47940259D01*
X79436818Y-48120277D01*
X79436821Y-48120284D01*
X79531467Y-48284216D01*
X79569392Y-48326335D01*
X79604649Y-48365493D01*
X79634879Y-48428485D01*
X79636499Y-48448465D01*
X79636499Y-49447040D01*
X79634772Y-49462687D01*
X79635053Y-49462714D01*
X79634319Y-49470473D01*
X79636500Y-49539859D01*
X79636500Y-49569477D01*
X79637371Y-49576380D01*
X79637829Y-49582199D01*
X79639298Y-49628942D01*
X79642755Y-49640841D01*
X79643910Y-49644815D01*
X79644916Y-49648275D01*
X79648862Y-49667329D01*
X79651383Y-49687287D01*
X79651386Y-49687299D01*
X79668595Y-49730765D01*
X79670487Y-49736293D01*
X79683530Y-49781187D01*
X79683530Y-49781188D01*
X79693777Y-49798515D01*
X79702335Y-49815985D01*
X79709745Y-49834701D01*
X79737229Y-49872529D01*
X79740437Y-49877413D01*
X79764234Y-49917652D01*
X79764240Y-49917660D01*
X79778469Y-49931888D01*
X79791109Y-49946687D01*
X79802934Y-49962964D01*
X79802936Y-49962965D01*
X79802937Y-49962967D01*
X79838957Y-49992765D01*
X79843268Y-49996687D01*
X80334030Y-50487449D01*
X80523624Y-50677043D01*
X80533471Y-50689333D01*
X80533689Y-50689154D01*
X80538656Y-50695159D01*
X80555038Y-50710542D01*
X80590433Y-50770783D01*
X80587641Y-50840597D01*
X80565713Y-50879959D01*
X80563240Y-50882949D01*
X80559299Y-50887280D01*
X79878953Y-51567626D01*
X79866669Y-51577469D01*
X79866849Y-51577687D01*
X79860838Y-51582659D01*
X79813322Y-51633258D01*
X79792375Y-51654205D01*
X79788106Y-51659709D01*
X79784315Y-51664147D01*
X79752308Y-51698230D01*
X79752305Y-51698234D01*
X79742606Y-51715877D01*
X79731928Y-51732133D01*
X79719594Y-51748034D01*
X79719589Y-51748042D01*
X79701025Y-51790943D01*
X79698454Y-51796191D01*
X79675927Y-51837167D01*
X79670920Y-51856668D01*
X79664621Y-51875064D01*
X79657893Y-51890612D01*
X79656625Y-51893544D01*
X79656624Y-51893546D01*
X79649312Y-51939716D01*
X79648127Y-51945438D01*
X79636500Y-51990723D01*
X79636500Y-52010858D01*
X79634973Y-52030257D01*
X79631825Y-52050131D01*
X79636225Y-52096677D01*
X79636500Y-52102515D01*
X79636500Y-52583267D01*
X79616815Y-52650306D01*
X79571519Y-52692321D01*
X79495376Y-52733528D01*
X79495365Y-52733535D01*
X79312222Y-52876081D01*
X79312219Y-52876084D01*
X79312216Y-52876086D01*
X79312216Y-52876087D01*
X79287886Y-52902517D01*
X79155016Y-53046852D01*
X79028075Y-53241151D01*
X78934842Y-53453699D01*
X78877866Y-53678691D01*
X78877864Y-53678702D01*
X78858700Y-53909993D01*
X78858700Y-53910006D01*
X78877864Y-54141297D01*
X78877866Y-54141308D01*
X78934842Y-54366300D01*
X79028075Y-54578848D01*
X79155016Y-54773147D01*
X79155019Y-54773151D01*
X79155021Y-54773153D01*
X79312216Y-54943913D01*
X79312219Y-54943915D01*
X79312222Y-54943918D01*
X79495365Y-55086464D01*
X79495371Y-55086468D01*
X79495374Y-55086470D01*
X79699497Y-55196936D01*
X79813487Y-55236068D01*
X79919015Y-55272297D01*
X79919017Y-55272297D01*
X79919019Y-55272298D01*
X80147951Y-55310500D01*
X80147952Y-55310500D01*
X80380048Y-55310500D01*
X80380049Y-55310500D01*
X80608981Y-55272298D01*
X80828503Y-55196936D01*
X81032626Y-55086470D01*
X81215784Y-54943913D01*
X81372979Y-54773153D01*
X81499924Y-54578849D01*
X81593157Y-54366300D01*
X81650134Y-54141305D01*
X81663803Y-53976340D01*
X81669300Y-53910006D01*
X81669300Y-53909993D01*
X81650135Y-53678702D01*
X81650133Y-53678691D01*
X81593157Y-53453699D01*
X81499924Y-53241151D01*
X81372983Y-53046852D01*
X81372980Y-53046849D01*
X81372979Y-53046847D01*
X81215784Y-52876087D01*
X81215779Y-52876083D01*
X81215777Y-52876081D01*
X81032634Y-52733535D01*
X81032623Y-52733528D01*
X80956481Y-52692321D01*
X80906891Y-52643101D01*
X80891500Y-52583267D01*
X80891500Y-52381281D01*
X80911185Y-52314242D01*
X80927819Y-52293600D01*
X81249600Y-51971819D01*
X81310923Y-51938334D01*
X81337281Y-51935500D01*
X82426000Y-51935500D01*
X82493039Y-51955185D01*
X82538794Y-52007989D01*
X82550000Y-52059500D01*
X82550000Y-69725500D01*
X82530315Y-69792539D01*
X82477511Y-69838294D01*
X82426000Y-69849500D01*
X61362558Y-69849500D01*
X61357848Y-69848117D01*
X61313233Y-69849455D01*
X61310297Y-69849474D01*
X61139294Y-69846501D01*
X60927756Y-69842209D01*
X60922111Y-69841837D01*
X60731473Y-69820488D01*
X60723108Y-69819476D01*
X60537998Y-69797087D01*
X60532779Y-69796229D01*
X60342235Y-69756478D01*
X60154483Y-69714416D01*
X60149723Y-69713150D01*
X59962528Y-69655280D01*
X59780826Y-69594981D01*
X59776554Y-69593386D01*
X59594945Y-69517892D01*
X59420519Y-69439905D01*
X59416749Y-69438064D01*
X59315202Y-69384146D01*
X59242598Y-69345595D01*
X59076976Y-69250662D01*
X59073713Y-69248655D01*
X58908688Y-69140002D01*
X58753388Y-69029013D01*
X58750626Y-69026920D01*
X58596339Y-68903068D01*
X58452804Y-68777041D01*
X58450525Y-68774937D01*
X58309528Y-68638064D01*
X58307368Y-68635860D01*
X58177142Y-68496136D01*
X58125686Y-68435796D01*
X58048760Y-68345589D01*
X58046620Y-68342933D01*
X57931019Y-68190929D01*
X57817539Y-68029236D01*
X57815458Y-68026068D01*
X57715626Y-67863300D01*
X57618001Y-67691924D01*
X57616093Y-67688292D01*
X57532937Y-67516206D01*
X57513724Y-67473602D01*
X57452083Y-67336916D01*
X57450383Y-67332745D01*
X57384708Y-67152886D01*
X57321293Y-66967451D01*
X57319899Y-66962774D01*
X57272297Y-66776414D01*
X57226880Y-66587023D01*
X57225878Y-66581884D01*
X57196766Y-66389330D01*
X57169738Y-66199209D01*
X57169204Y-66193649D01*
X57158819Y-65986205D01*
X57150569Y-65811055D01*
X57150500Y-65808137D01*
X57150500Y-63500001D01*
X59741454Y-63500001D01*
X59761613Y-63781866D01*
X59821678Y-64057977D01*
X59821680Y-64057984D01*
X59863909Y-64171205D01*
X59920432Y-64322750D01*
X59920434Y-64322754D01*
X60055855Y-64570758D01*
X60055860Y-64570766D01*
X60225196Y-64796974D01*
X60225212Y-64796992D01*
X60425007Y-64996787D01*
X60425025Y-64996803D01*
X60651233Y-65166139D01*
X60651241Y-65166144D01*
X60899245Y-65301565D01*
X60899249Y-65301567D01*
X60899251Y-65301568D01*
X61164016Y-65400320D01*
X61302077Y-65430353D01*
X61440133Y-65460386D01*
X61440135Y-65460386D01*
X61440139Y-65460387D01*
X61651447Y-65475500D01*
X61792553Y-65475500D01*
X62003861Y-65460387D01*
X62279984Y-65400320D01*
X62544749Y-65301568D01*
X62792764Y-65166141D01*
X63001346Y-65009999D01*
X75618592Y-65009999D01*
X75623355Y-65079637D01*
X75623500Y-65083870D01*
X75623500Y-65153682D01*
X75633003Y-65222829D01*
X75633436Y-65227039D01*
X75638201Y-65296683D01*
X75638202Y-65296687D01*
X75652403Y-65365035D01*
X75653122Y-65369205D01*
X75662629Y-65438361D01*
X75681459Y-65505566D01*
X75682461Y-65509679D01*
X75696664Y-65578025D01*
X75696669Y-65578040D01*
X75720041Y-65643805D01*
X75721321Y-65647840D01*
X75740154Y-65715055D01*
X75740155Y-65715058D01*
X75767966Y-65779084D01*
X75769519Y-65783023D01*
X75792894Y-65848793D01*
X75792896Y-65848798D01*
X75825002Y-65910759D01*
X75826821Y-65914583D01*
X75854643Y-65978634D01*
X75890914Y-66038276D01*
X75892989Y-66041968D01*
X75925100Y-66103938D01*
X75939592Y-66124469D01*
X75965362Y-66160977D01*
X75967664Y-66164486D01*
X76003945Y-66224147D01*
X76035215Y-66262583D01*
X76047990Y-66278286D01*
X76050548Y-66281660D01*
X76090810Y-66338698D01*
X76138456Y-66389713D01*
X76141239Y-66392905D01*
X76185291Y-66447053D01*
X76236306Y-66494698D01*
X76239300Y-66497692D01*
X76286946Y-66548707D01*
X76341093Y-66592759D01*
X76344285Y-66595542D01*
X76395302Y-66643190D01*
X76452331Y-66683444D01*
X76455706Y-66686003D01*
X76460635Y-66690013D01*
X76509853Y-66730055D01*
X76548722Y-66753692D01*
X76569496Y-66766325D01*
X76573028Y-66768641D01*
X76630064Y-66808901D01*
X76692052Y-66841020D01*
X76695716Y-66843081D01*
X76728448Y-66862986D01*
X76755369Y-66879358D01*
X76755372Y-66879359D01*
X76755375Y-66879361D01*
X76819434Y-66907185D01*
X76823225Y-66908989D01*
X76885203Y-66941104D01*
X76934047Y-66958463D01*
X76950977Y-66964480D01*
X76954914Y-66966032D01*
X77018942Y-66993844D01*
X77086175Y-67012681D01*
X77090185Y-67013954D01*
X77155968Y-67037334D01*
X77224333Y-67051540D01*
X77228413Y-67052534D01*
X77295642Y-67071371D01*
X77364826Y-67080880D01*
X77368941Y-67081589D01*
X77437314Y-67095798D01*
X77506993Y-67100564D01*
X77511148Y-67100992D01*
X77580322Y-67110500D01*
X77580323Y-67110500D01*
X77867677Y-67110500D01*
X77867678Y-67110500D01*
X77936856Y-67100991D01*
X77941002Y-67100564D01*
X78010686Y-67095798D01*
X78079057Y-67081589D01*
X78083176Y-67080879D01*
X78152358Y-67071371D01*
X78219583Y-67052535D01*
X78223667Y-67051539D01*
X78292032Y-67037334D01*
X78357806Y-67013957D01*
X78361830Y-67012679D01*
X78429058Y-66993844D01*
X78493095Y-66966027D01*
X78497003Y-66964486D01*
X78562797Y-66941104D01*
X78624784Y-66908983D01*
X78628588Y-66907175D01*
X78692625Y-66879361D01*
X78752300Y-66843070D01*
X78755940Y-66841023D01*
X78817936Y-66808901D01*
X78874978Y-66768636D01*
X78878486Y-66766335D01*
X78938147Y-66730055D01*
X78992309Y-66685989D01*
X78995643Y-66683460D01*
X79052698Y-66643189D01*
X79103716Y-66595539D01*
X79106904Y-66592760D01*
X79139238Y-66566455D01*
X79161053Y-66548708D01*
X79208702Y-66497687D01*
X79211693Y-66494697D01*
X79262708Y-66447053D01*
X79306760Y-66392904D01*
X79309539Y-66389716D01*
X79357189Y-66338698D01*
X79397460Y-66281643D01*
X79399989Y-66278309D01*
X79444055Y-66224147D01*
X79480335Y-66164486D01*
X79482636Y-66160978D01*
X79522901Y-66103936D01*
X79555023Y-66041940D01*
X79557070Y-66038300D01*
X79593361Y-65978625D01*
X79621178Y-65914583D01*
X79622983Y-65910784D01*
X79655104Y-65848797D01*
X79678486Y-65783003D01*
X79680032Y-65779085D01*
X79680033Y-65779084D01*
X79707844Y-65715058D01*
X79726679Y-65647830D01*
X79727958Y-65643804D01*
X79751334Y-65578032D01*
X79765537Y-65509680D01*
X79765538Y-65509679D01*
X79765539Y-65509667D01*
X79766540Y-65505566D01*
X79785371Y-65438358D01*
X79794879Y-65369176D01*
X79795589Y-65365057D01*
X79809798Y-65296686D01*
X79814564Y-65227002D01*
X79814991Y-65222856D01*
X79824500Y-65153678D01*
X79824500Y-65083870D01*
X79824645Y-65079637D01*
X79825931Y-65060820D01*
X79829408Y-65010000D01*
X79824645Y-64940361D01*
X79824500Y-64936128D01*
X79824500Y-64866323D01*
X79814995Y-64797171D01*
X79814992Y-64797148D01*
X79814564Y-64792993D01*
X79809798Y-64723314D01*
X79795589Y-64654941D01*
X79794880Y-64650826D01*
X79785371Y-64581642D01*
X79766534Y-64514413D01*
X79765537Y-64510319D01*
X79751334Y-64441968D01*
X79727954Y-64376183D01*
X79726681Y-64372175D01*
X79707844Y-64304942D01*
X79680032Y-64240914D01*
X79678480Y-64236977D01*
X79655105Y-64171207D01*
X79655104Y-64171203D01*
X79622989Y-64109225D01*
X79621185Y-64105434D01*
X79593361Y-64041375D01*
X79593359Y-64041372D01*
X79593358Y-64041369D01*
X79576986Y-64014448D01*
X79557081Y-63981716D01*
X79555020Y-63978052D01*
X79522901Y-63916064D01*
X79482641Y-63859028D01*
X79480325Y-63855496D01*
X79444057Y-63795857D01*
X79444055Y-63795853D01*
X79400003Y-63741706D01*
X79397444Y-63738331D01*
X79357190Y-63681302D01*
X79309542Y-63630285D01*
X79306759Y-63627093D01*
X79262707Y-63572946D01*
X79211692Y-63525300D01*
X79208698Y-63522306D01*
X79161052Y-63471291D01*
X79161053Y-63471291D01*
X79106905Y-63427239D01*
X79103713Y-63424456D01*
X79052698Y-63376810D01*
X78995660Y-63336548D01*
X78992286Y-63333990D01*
X78976583Y-63321215D01*
X78938147Y-63289945D01*
X78878486Y-63253664D01*
X78874977Y-63251362D01*
X78817939Y-63211101D01*
X78817938Y-63211100D01*
X78755968Y-63178989D01*
X78752276Y-63176914D01*
X78692634Y-63140643D01*
X78628583Y-63112821D01*
X78624766Y-63111005D01*
X78601751Y-63099080D01*
X78562798Y-63078896D01*
X78562793Y-63078894D01*
X78497023Y-63055519D01*
X78493084Y-63053966D01*
X78429058Y-63026155D01*
X78429055Y-63026154D01*
X78361840Y-63007321D01*
X78357805Y-63006041D01*
X78292040Y-62982669D01*
X78292032Y-62982666D01*
X78292029Y-62982665D01*
X78292025Y-62982664D01*
X78223679Y-62968461D01*
X78219566Y-62967459D01*
X78152361Y-62948629D01*
X78083205Y-62939122D01*
X78079035Y-62938403D01*
X78010687Y-62924202D01*
X78010683Y-62924201D01*
X77941039Y-62919436D01*
X77936829Y-62919003D01*
X77867682Y-62909500D01*
X77867678Y-62909500D01*
X77580322Y-62909500D01*
X77580317Y-62909500D01*
X77511171Y-62919003D01*
X77506961Y-62919436D01*
X77437316Y-62924201D01*
X77437312Y-62924202D01*
X77368962Y-62938404D01*
X77364793Y-62939122D01*
X77302752Y-62947651D01*
X77295642Y-62948629D01*
X77295640Y-62948629D01*
X77295636Y-62948630D01*
X77228431Y-62967459D01*
X77224319Y-62968461D01*
X77155972Y-62982665D01*
X77155953Y-62982670D01*
X77090183Y-63006044D01*
X77086149Y-63007324D01*
X77018944Y-63026154D01*
X77018941Y-63026155D01*
X76954905Y-63053969D01*
X76950967Y-63055522D01*
X76885207Y-63078893D01*
X76885205Y-63078894D01*
X76823237Y-63111002D01*
X76819416Y-63112820D01*
X76755374Y-63140639D01*
X76695723Y-63176913D01*
X76692033Y-63178988D01*
X76630059Y-63211101D01*
X76573039Y-63251350D01*
X76569500Y-63253671D01*
X76509856Y-63289942D01*
X76509849Y-63289947D01*
X76455707Y-63333994D01*
X76452335Y-63336551D01*
X76395303Y-63376809D01*
X76344283Y-63424458D01*
X76341093Y-63427240D01*
X76305169Y-63456466D01*
X76286947Y-63471292D01*
X76286945Y-63471294D01*
X76239299Y-63522308D01*
X76236308Y-63525299D01*
X76185294Y-63572945D01*
X76185290Y-63572950D01*
X76141240Y-63627093D01*
X76138458Y-63630283D01*
X76090809Y-63681303D01*
X76050551Y-63738335D01*
X76047994Y-63741707D01*
X76003947Y-63795849D01*
X76003942Y-63795856D01*
X75967671Y-63855500D01*
X75965350Y-63859039D01*
X75925101Y-63916059D01*
X75892988Y-63978033D01*
X75890913Y-63981723D01*
X75854639Y-64041374D01*
X75826820Y-64105416D01*
X75825002Y-64109237D01*
X75792894Y-64171205D01*
X75792893Y-64171207D01*
X75769522Y-64236967D01*
X75767969Y-64240905D01*
X75740155Y-64304941D01*
X75740154Y-64304944D01*
X75721324Y-64372149D01*
X75720044Y-64376183D01*
X75696670Y-64441953D01*
X75696665Y-64441972D01*
X75682461Y-64510319D01*
X75681459Y-64514431D01*
X75662630Y-64581636D01*
X75653122Y-64650793D01*
X75652404Y-64654962D01*
X75638202Y-64723312D01*
X75638201Y-64723316D01*
X75633436Y-64792961D01*
X75633003Y-64797171D01*
X75623500Y-64866317D01*
X75623500Y-64936128D01*
X75623355Y-64940361D01*
X75618592Y-65009999D01*
X63001346Y-65009999D01*
X63018982Y-64996797D01*
X63218797Y-64796982D01*
X63388141Y-64570764D01*
X63523568Y-64322749D01*
X63622320Y-64057984D01*
X63682387Y-63781861D01*
X63702546Y-63500000D01*
X63682387Y-63218139D01*
X63673870Y-63178989D01*
X63646673Y-63053966D01*
X63622320Y-62942016D01*
X63523568Y-62677251D01*
X63388141Y-62429236D01*
X63388139Y-62429233D01*
X63218803Y-62203025D01*
X63218787Y-62203007D01*
X63018992Y-62003212D01*
X63018974Y-62003196D01*
X62792766Y-61833860D01*
X62792758Y-61833855D01*
X62544754Y-61698434D01*
X62544750Y-61698432D01*
X62444372Y-61660993D01*
X62279984Y-61599680D01*
X62279980Y-61599679D01*
X62279977Y-61599678D01*
X62003866Y-61539613D01*
X61792553Y-61524500D01*
X61651447Y-61524500D01*
X61440133Y-61539613D01*
X61164022Y-61599678D01*
X61164017Y-61599679D01*
X61164016Y-61599680D01*
X61100003Y-61623555D01*
X60899249Y-61698432D01*
X60899245Y-61698434D01*
X60651241Y-61833855D01*
X60651233Y-61833860D01*
X60425025Y-62003196D01*
X60425007Y-62003212D01*
X60225212Y-62203007D01*
X60225196Y-62203025D01*
X60055860Y-62429233D01*
X60055855Y-62429241D01*
X59920434Y-62677245D01*
X59920432Y-62677249D01*
X59845555Y-62878003D01*
X59822760Y-62939122D01*
X59821678Y-62942022D01*
X59761613Y-63218133D01*
X59741454Y-63499998D01*
X59741454Y-63500001D01*
X57150500Y-63500001D01*
X57150500Y-57150002D01*
X69090677Y-57150002D01*
X69109929Y-57370062D01*
X69109930Y-57370070D01*
X69167104Y-57583445D01*
X69167105Y-57583447D01*
X69167106Y-57583450D01*
X69260466Y-57783662D01*
X69260468Y-57783666D01*
X69387170Y-57964615D01*
X69387175Y-57964621D01*
X69543378Y-58120824D01*
X69543384Y-58120829D01*
X69724333Y-58247531D01*
X69724335Y-58247532D01*
X69724338Y-58247534D01*
X69924550Y-58340894D01*
X70137932Y-58398070D01*
X70295123Y-58411822D01*
X70357998Y-58417323D01*
X70358000Y-58417323D01*
X70358002Y-58417323D01*
X70413017Y-58412509D01*
X70578068Y-58398070D01*
X70791450Y-58340894D01*
X70991662Y-58247534D01*
X71172620Y-58120826D01*
X71328826Y-57964620D01*
X71455534Y-57783662D01*
X71548894Y-57583450D01*
X71606070Y-57370068D01*
X71625323Y-57150000D01*
X71606070Y-56929932D01*
X71548894Y-56716550D01*
X71455534Y-56516339D01*
X71328826Y-56335380D01*
X71172620Y-56179174D01*
X71172616Y-56179171D01*
X71172615Y-56179170D01*
X70991666Y-56052468D01*
X70991658Y-56052464D01*
X70862811Y-55992382D01*
X70810371Y-55946210D01*
X70791219Y-55879017D01*
X70811435Y-55812135D01*
X70862811Y-55767618D01*
X70868802Y-55764824D01*
X70991662Y-55707534D01*
X71172620Y-55580826D01*
X71328826Y-55424620D01*
X71455534Y-55243662D01*
X71548894Y-55043450D01*
X71598620Y-54857870D01*
X73783500Y-54857870D01*
X73783501Y-54857876D01*
X73789908Y-54917483D01*
X73840202Y-55052328D01*
X73840206Y-55052335D01*
X73926452Y-55167544D01*
X73926455Y-55167547D01*
X74041664Y-55253793D01*
X74041671Y-55253797D01*
X74176517Y-55304091D01*
X74176516Y-55304091D01*
X74183444Y-55304835D01*
X74236127Y-55310500D01*
X76131872Y-55310499D01*
X76191483Y-55304091D01*
X76326331Y-55253796D01*
X76441546Y-55167546D01*
X76527796Y-55052331D01*
X76578091Y-54917483D01*
X76584500Y-54857873D01*
X76584499Y-52962128D01*
X76578091Y-52902517D01*
X76568233Y-52876087D01*
X76527797Y-52767671D01*
X76527793Y-52767664D01*
X76441547Y-52652455D01*
X76441544Y-52652452D01*
X76326335Y-52566206D01*
X76326328Y-52566202D01*
X76191482Y-52515908D01*
X76191483Y-52515908D01*
X76131883Y-52509501D01*
X76131881Y-52509500D01*
X76131873Y-52509500D01*
X76131864Y-52509500D01*
X74236129Y-52509500D01*
X74236123Y-52509501D01*
X74176516Y-52515908D01*
X74041671Y-52566202D01*
X74041664Y-52566206D01*
X73926455Y-52652452D01*
X73926452Y-52652455D01*
X73840206Y-52767664D01*
X73840202Y-52767671D01*
X73789908Y-52902517D01*
X73783501Y-52962116D01*
X73783501Y-52962123D01*
X73783500Y-52962135D01*
X73783500Y-54857870D01*
X71598620Y-54857870D01*
X71606070Y-54830068D01*
X71622962Y-54636992D01*
X71625323Y-54610002D01*
X71625323Y-54609997D01*
X71618103Y-54527474D01*
X71606070Y-54389932D01*
X71548894Y-54176550D01*
X71455534Y-53976339D01*
X71328826Y-53795380D01*
X71172620Y-53639174D01*
X71172616Y-53639171D01*
X71172615Y-53639170D01*
X70991666Y-53512468D01*
X70991662Y-53512466D01*
X70865635Y-53453699D01*
X70791450Y-53419106D01*
X70791447Y-53419105D01*
X70791445Y-53419104D01*
X70578070Y-53361930D01*
X70578062Y-53361929D01*
X70358002Y-53342677D01*
X70357998Y-53342677D01*
X70137937Y-53361929D01*
X70137929Y-53361930D01*
X69924554Y-53419104D01*
X69924548Y-53419107D01*
X69724340Y-53512465D01*
X69724338Y-53512466D01*
X69543377Y-53639175D01*
X69387175Y-53795377D01*
X69260466Y-53976338D01*
X69260465Y-53976340D01*
X69167107Y-54176548D01*
X69167104Y-54176554D01*
X69109930Y-54389929D01*
X69109929Y-54389937D01*
X69090677Y-54609997D01*
X69090677Y-54610002D01*
X69109929Y-54830062D01*
X69109930Y-54830070D01*
X69167104Y-55043445D01*
X69167105Y-55043447D01*
X69167106Y-55043450D01*
X69238678Y-55196938D01*
X69260466Y-55243662D01*
X69260468Y-55243666D01*
X69387170Y-55424615D01*
X69387175Y-55424621D01*
X69543378Y-55580824D01*
X69543384Y-55580829D01*
X69724333Y-55707531D01*
X69724335Y-55707532D01*
X69724338Y-55707534D01*
X69843748Y-55763215D01*
X69853189Y-55767618D01*
X69905628Y-55813790D01*
X69924780Y-55880984D01*
X69904564Y-55947865D01*
X69853189Y-55992382D01*
X69724340Y-56052465D01*
X69724338Y-56052466D01*
X69543377Y-56179175D01*
X69387175Y-56335377D01*
X69260466Y-56516338D01*
X69260465Y-56516340D01*
X69167107Y-56716548D01*
X69167104Y-56716554D01*
X69109930Y-56929929D01*
X69109929Y-56929937D01*
X69090677Y-57149997D01*
X69090677Y-57150002D01*
X57150500Y-57150002D01*
X57150500Y-53340001D01*
X59741454Y-53340001D01*
X59761613Y-53621866D01*
X59821678Y-53897977D01*
X59821680Y-53897984D01*
X59882993Y-54062372D01*
X59920432Y-54162750D01*
X59920434Y-54162754D01*
X60055855Y-54410758D01*
X60055860Y-54410766D01*
X60225196Y-54636974D01*
X60225212Y-54636992D01*
X60425007Y-54836787D01*
X60425025Y-54836803D01*
X60651233Y-55006139D01*
X60651241Y-55006144D01*
X60899245Y-55141565D01*
X60899249Y-55141567D01*
X60899251Y-55141568D01*
X61164016Y-55240320D01*
X61225969Y-55253797D01*
X61440133Y-55300386D01*
X61440135Y-55300386D01*
X61440139Y-55300387D01*
X61651447Y-55315500D01*
X61792553Y-55315500D01*
X62003861Y-55300387D01*
X62279984Y-55240320D01*
X62544749Y-55141568D01*
X62792764Y-55006141D01*
X63018982Y-54836797D01*
X63218797Y-54636982D01*
X63388141Y-54410764D01*
X63523568Y-54162749D01*
X63622320Y-53897984D01*
X63682387Y-53621861D01*
X63702546Y-53340000D01*
X63682387Y-53058139D01*
X63661498Y-52962116D01*
X63622321Y-52782022D01*
X63622320Y-52782016D01*
X63523568Y-52517251D01*
X63449322Y-52381281D01*
X63388144Y-52269241D01*
X63388139Y-52269233D01*
X63218803Y-52043025D01*
X63218787Y-52043007D01*
X63018992Y-51843212D01*
X63018974Y-51843196D01*
X62792766Y-51673860D01*
X62792758Y-51673855D01*
X62544754Y-51538434D01*
X62544750Y-51538432D01*
X62444372Y-51500993D01*
X62279984Y-51439680D01*
X62279980Y-51439679D01*
X62279977Y-51439678D01*
X62003866Y-51379613D01*
X61792553Y-51364500D01*
X61651447Y-51364500D01*
X61440133Y-51379613D01*
X61164022Y-51439678D01*
X61164017Y-51439679D01*
X61164016Y-51439680D01*
X61100003Y-51463555D01*
X60899249Y-51538432D01*
X60899245Y-51538434D01*
X60651241Y-51673855D01*
X60651233Y-51673860D01*
X60425025Y-51843196D01*
X60425007Y-51843212D01*
X60225212Y-52043007D01*
X60225196Y-52043025D01*
X60055860Y-52269233D01*
X60055855Y-52269241D01*
X59920434Y-52517245D01*
X59920432Y-52517249D01*
X59868250Y-52657156D01*
X59827031Y-52767671D01*
X59821678Y-52782022D01*
X59761613Y-53058133D01*
X59741454Y-53339998D01*
X59741454Y-53340001D01*
X57150500Y-53340001D01*
X57150500Y-45720001D01*
X59741454Y-45720001D01*
X59761613Y-46001866D01*
X59821678Y-46277977D01*
X59821680Y-46277984D01*
X59873253Y-46416256D01*
X59920432Y-46542750D01*
X59920434Y-46542754D01*
X60055855Y-46790758D01*
X60055860Y-46790766D01*
X60225196Y-47016974D01*
X60225212Y-47016992D01*
X60425007Y-47216787D01*
X60425025Y-47216803D01*
X60651233Y-47386139D01*
X60651241Y-47386144D01*
X60899245Y-47521565D01*
X60899249Y-47521567D01*
X60899251Y-47521568D01*
X61164016Y-47620320D01*
X61302077Y-47650353D01*
X61440133Y-47680386D01*
X61440135Y-47680386D01*
X61440139Y-47680387D01*
X61651447Y-47695500D01*
X61792553Y-47695500D01*
X62003861Y-47680387D01*
X62279984Y-47620320D01*
X62544749Y-47521568D01*
X62792764Y-47386141D01*
X63018982Y-47216797D01*
X63218797Y-47016982D01*
X63388141Y-46790764D01*
X63523568Y-46542749D01*
X63622320Y-46277984D01*
X63633193Y-46228000D01*
X72246540Y-46228000D01*
X72266326Y-46416256D01*
X72266327Y-46416259D01*
X72324818Y-46596277D01*
X72324821Y-46596284D01*
X72419467Y-46760216D01*
X72501660Y-46851500D01*
X72546129Y-46900888D01*
X72699265Y-47012148D01*
X72699270Y-47012151D01*
X72872192Y-47089142D01*
X72872197Y-47089144D01*
X73057354Y-47128500D01*
X73057355Y-47128500D01*
X73246644Y-47128500D01*
X73246646Y-47128500D01*
X73431803Y-47089144D01*
X73604730Y-47012151D01*
X73757871Y-46900888D01*
X73884533Y-46760216D01*
X73979179Y-46596284D01*
X74037674Y-46416256D01*
X74054989Y-46251505D01*
X74081572Y-46186894D01*
X74090619Y-46176798D01*
X74958220Y-45309197D01*
X75019541Y-45275714D01*
X75089233Y-45280698D01*
X75096333Y-45283600D01*
X75158197Y-45311144D01*
X75343354Y-45350500D01*
X75343355Y-45350500D01*
X75532644Y-45350500D01*
X75532646Y-45350500D01*
X75717803Y-45311144D01*
X75890730Y-45234151D01*
X76043871Y-45122888D01*
X76170533Y-44982216D01*
X76265179Y-44818284D01*
X76323674Y-44638256D01*
X76343460Y-44450000D01*
X76323674Y-44261744D01*
X76265179Y-44081716D01*
X76170533Y-43917784D01*
X76043871Y-43777112D01*
X76019786Y-43759613D01*
X75890734Y-43665851D01*
X75890729Y-43665848D01*
X75717807Y-43588857D01*
X75717802Y-43588855D01*
X75572000Y-43557865D01*
X75532646Y-43549500D01*
X75343354Y-43549500D01*
X75310897Y-43556398D01*
X75158197Y-43588855D01*
X75158192Y-43588857D01*
X74985270Y-43665848D01*
X74985265Y-43665851D01*
X74832135Y-43777106D01*
X74832127Y-43777113D01*
X74800173Y-43812601D01*
X74753672Y-43844920D01*
X74729237Y-43854594D01*
X74723714Y-43856485D01*
X74706199Y-43861573D01*
X74678804Y-43869533D01*
X74661480Y-43879779D01*
X74644010Y-43888337D01*
X74625298Y-43895745D01*
X74587463Y-43923233D01*
X74582580Y-43926440D01*
X74542346Y-43950234D01*
X74528106Y-43964474D01*
X74513320Y-43977102D01*
X74497033Y-43988936D01*
X74497032Y-43988936D01*
X74467227Y-44024963D01*
X74463295Y-44029284D01*
X73201400Y-45291181D01*
X73140077Y-45324666D01*
X73113719Y-45327500D01*
X73057354Y-45327500D01*
X73024897Y-45334398D01*
X72872197Y-45366855D01*
X72872192Y-45366857D01*
X72699270Y-45443848D01*
X72699265Y-45443851D01*
X72546129Y-45555111D01*
X72419466Y-45695785D01*
X72324821Y-45859715D01*
X72324818Y-45859722D01*
X72278635Y-46001861D01*
X72266326Y-46039744D01*
X72246540Y-46228000D01*
X63633193Y-46228000D01*
X63682387Y-46001861D01*
X63702546Y-45720000D01*
X63700977Y-45698069D01*
X63690211Y-45547531D01*
X63682387Y-45438139D01*
X63678621Y-45420829D01*
X63648138Y-45280698D01*
X63622320Y-45162016D01*
X63523568Y-44897251D01*
X63516029Y-44883445D01*
X63388144Y-44649241D01*
X63388139Y-44649233D01*
X63238998Y-44450002D01*
X69090677Y-44450002D01*
X69109929Y-44670062D01*
X69109930Y-44670070D01*
X69167104Y-44883445D01*
X69167105Y-44883447D01*
X69167106Y-44883450D01*
X69213160Y-44982214D01*
X69260466Y-45083662D01*
X69260468Y-45083666D01*
X69387170Y-45264615D01*
X69387175Y-45264621D01*
X69543378Y-45420824D01*
X69543384Y-45420829D01*
X69724333Y-45547531D01*
X69724335Y-45547532D01*
X69724338Y-45547534D01*
X69924550Y-45640894D01*
X70137932Y-45698070D01*
X70295123Y-45711822D01*
X70357998Y-45717323D01*
X70358000Y-45717323D01*
X70358002Y-45717323D01*
X70413017Y-45712509D01*
X70578068Y-45698070D01*
X70791450Y-45640894D01*
X70991662Y-45547534D01*
X71172620Y-45420826D01*
X71328826Y-45264620D01*
X71455534Y-45083662D01*
X71548894Y-44883450D01*
X71606070Y-44670068D01*
X71625323Y-44450000D01*
X71622962Y-44423018D01*
X71608853Y-44261744D01*
X71606070Y-44229932D01*
X71548894Y-44016550D01*
X71455534Y-43816339D01*
X71350162Y-43665851D01*
X71328827Y-43635381D01*
X71282301Y-43588855D01*
X71172620Y-43479174D01*
X71172616Y-43479171D01*
X71172615Y-43479170D01*
X70991666Y-43352468D01*
X70991658Y-43352464D01*
X70862811Y-43292382D01*
X70810371Y-43246210D01*
X70791219Y-43179017D01*
X70811435Y-43112135D01*
X70862811Y-43067618D01*
X70868802Y-43064824D01*
X70991662Y-43007534D01*
X71172620Y-42880826D01*
X71328826Y-42724620D01*
X71455534Y-42543662D01*
X71548894Y-42343450D01*
X71606070Y-42130068D01*
X71625323Y-41910000D01*
X71606070Y-41689932D01*
X71548894Y-41476550D01*
X71455534Y-41276339D01*
X71328826Y-41095380D01*
X71172620Y-40939174D01*
X71172616Y-40939171D01*
X71172615Y-40939170D01*
X70991666Y-40812468D01*
X70991658Y-40812464D01*
X70862811Y-40752382D01*
X70810371Y-40706210D01*
X70791219Y-40639017D01*
X70811435Y-40572135D01*
X70862811Y-40527618D01*
X70868802Y-40524824D01*
X70991662Y-40467534D01*
X71172620Y-40340826D01*
X71328826Y-40184620D01*
X71455534Y-40003662D01*
X71548894Y-39803450D01*
X71606070Y-39590068D01*
X71622962Y-39396992D01*
X71625323Y-39370002D01*
X71625323Y-39369997D01*
X71618103Y-39287474D01*
X71606070Y-39149932D01*
X71548894Y-38936550D01*
X71455534Y-38736339D01*
X71328826Y-38555380D01*
X71172620Y-38399174D01*
X71172616Y-38399171D01*
X71172615Y-38399170D01*
X70991666Y-38272468D01*
X70991662Y-38272466D01*
X70991661Y-38272465D01*
X70791450Y-38179106D01*
X70791447Y-38179105D01*
X70791445Y-38179104D01*
X70578070Y-38121930D01*
X70578062Y-38121929D01*
X70358002Y-38102677D01*
X70357998Y-38102677D01*
X70137937Y-38121929D01*
X70137929Y-38121930D01*
X69924554Y-38179104D01*
X69924548Y-38179107D01*
X69724340Y-38272465D01*
X69724338Y-38272466D01*
X69543377Y-38399175D01*
X69387175Y-38555377D01*
X69260466Y-38736338D01*
X69260465Y-38736340D01*
X69167107Y-38936548D01*
X69167104Y-38936554D01*
X69109930Y-39149929D01*
X69109929Y-39149937D01*
X69090677Y-39369997D01*
X69090677Y-39370002D01*
X69109929Y-39590062D01*
X69109930Y-39590070D01*
X69167104Y-39803445D01*
X69167105Y-39803447D01*
X69167106Y-39803450D01*
X69212858Y-39901565D01*
X69260466Y-40003662D01*
X69260468Y-40003666D01*
X69387170Y-40184615D01*
X69387175Y-40184621D01*
X69543378Y-40340824D01*
X69543384Y-40340829D01*
X69724333Y-40467531D01*
X69724335Y-40467532D01*
X69724338Y-40467534D01*
X69843748Y-40523215D01*
X69853189Y-40527618D01*
X69905628Y-40573790D01*
X69924780Y-40640984D01*
X69904564Y-40707865D01*
X69853189Y-40752382D01*
X69724340Y-40812465D01*
X69724338Y-40812466D01*
X69543377Y-40939175D01*
X69387175Y-41095377D01*
X69260466Y-41276338D01*
X69260465Y-41276340D01*
X69167107Y-41476548D01*
X69167104Y-41476554D01*
X69109930Y-41689929D01*
X69109929Y-41689937D01*
X69090677Y-41909997D01*
X69090677Y-41910002D01*
X69109929Y-42130062D01*
X69109930Y-42130070D01*
X69167104Y-42343445D01*
X69167105Y-42343447D01*
X69167106Y-42343450D01*
X69260466Y-42543662D01*
X69260468Y-42543666D01*
X69387170Y-42724615D01*
X69387175Y-42724621D01*
X69543378Y-42880824D01*
X69543384Y-42880829D01*
X69724333Y-43007531D01*
X69724335Y-43007532D01*
X69724338Y-43007534D01*
X69843748Y-43063215D01*
X69853189Y-43067618D01*
X69905628Y-43113790D01*
X69924780Y-43180984D01*
X69904564Y-43247865D01*
X69853189Y-43292382D01*
X69724340Y-43352465D01*
X69724338Y-43352466D01*
X69543377Y-43479175D01*
X69387175Y-43635377D01*
X69260466Y-43816338D01*
X69260465Y-43816340D01*
X69167107Y-44016548D01*
X69167104Y-44016554D01*
X69109930Y-44229929D01*
X69109929Y-44229937D01*
X69090677Y-44449997D01*
X69090677Y-44450002D01*
X63238998Y-44450002D01*
X63218803Y-44423025D01*
X63218787Y-44423007D01*
X63018992Y-44223212D01*
X63018974Y-44223196D01*
X62792766Y-44053860D01*
X62792758Y-44053855D01*
X62544754Y-43918434D01*
X62544750Y-43918432D01*
X62413645Y-43869533D01*
X62279984Y-43819680D01*
X62279980Y-43819679D01*
X62279977Y-43819678D01*
X62003866Y-43759613D01*
X61792553Y-43744500D01*
X61651447Y-43744500D01*
X61440133Y-43759613D01*
X61164022Y-43819678D01*
X61164017Y-43819679D01*
X61164016Y-43819680D01*
X61118520Y-43836649D01*
X60899249Y-43918432D01*
X60899245Y-43918434D01*
X60651241Y-44053855D01*
X60651233Y-44053860D01*
X60425025Y-44223196D01*
X60425007Y-44223212D01*
X60225212Y-44423007D01*
X60225196Y-44423025D01*
X60055860Y-44649233D01*
X60055855Y-44649241D01*
X59920434Y-44897245D01*
X59920432Y-44897249D01*
X59821678Y-45162022D01*
X59761613Y-45438133D01*
X59741454Y-45719998D01*
X59741454Y-45720001D01*
X57150500Y-45720001D01*
X57150500Y-38100001D01*
X59741454Y-38100001D01*
X59761613Y-38381866D01*
X59821678Y-38657977D01*
X59821680Y-38657984D01*
X59882993Y-38822372D01*
X59920432Y-38922750D01*
X59920434Y-38922754D01*
X60055855Y-39170758D01*
X60055860Y-39170766D01*
X60225196Y-39396974D01*
X60225212Y-39396992D01*
X60425007Y-39596787D01*
X60425025Y-39596803D01*
X60651233Y-39766139D01*
X60651241Y-39766144D01*
X60899245Y-39901565D01*
X60899249Y-39901567D01*
X60899251Y-39901568D01*
X61164016Y-40000320D01*
X61302077Y-40030353D01*
X61440133Y-40060386D01*
X61440135Y-40060386D01*
X61440139Y-40060387D01*
X61651447Y-40075500D01*
X61792553Y-40075500D01*
X62003861Y-40060387D01*
X62279984Y-40000320D01*
X62544749Y-39901568D01*
X62792764Y-39766141D01*
X63018982Y-39596797D01*
X63218797Y-39396982D01*
X63388141Y-39170764D01*
X63523568Y-38922749D01*
X63622320Y-38657984D01*
X63682387Y-38381861D01*
X63702546Y-38100000D01*
X63682387Y-37818139D01*
X63622320Y-37542016D01*
X63523568Y-37277251D01*
X63388141Y-37029236D01*
X63388139Y-37029233D01*
X63218803Y-36803025D01*
X63218787Y-36803007D01*
X63018992Y-36603212D01*
X63018974Y-36603196D01*
X62792766Y-36433860D01*
X62792758Y-36433855D01*
X62544754Y-36298434D01*
X62544750Y-36298432D01*
X62444372Y-36260993D01*
X62279984Y-36199680D01*
X62279980Y-36199679D01*
X62279977Y-36199678D01*
X62003866Y-36139613D01*
X61792553Y-36124500D01*
X61651447Y-36124500D01*
X61440133Y-36139613D01*
X61164022Y-36199678D01*
X61164017Y-36199679D01*
X61164016Y-36199680D01*
X61100003Y-36223555D01*
X60899249Y-36298432D01*
X60899245Y-36298434D01*
X60651241Y-36433855D01*
X60651233Y-36433860D01*
X60425025Y-36603196D01*
X60425007Y-36603212D01*
X60225212Y-36803007D01*
X60225196Y-36803025D01*
X60055860Y-37029233D01*
X60055855Y-37029241D01*
X59920434Y-37277245D01*
X59920432Y-37277249D01*
X59821678Y-37542022D01*
X59761613Y-37818133D01*
X59741454Y-38099998D01*
X59741454Y-38100001D01*
X57150500Y-38100001D01*
X57150500Y-35563529D01*
X57150895Y-35556541D01*
X57152364Y-35543575D01*
X57168371Y-35402362D01*
X57195048Y-35173476D01*
X57195946Y-35167973D01*
X57234491Y-34984663D01*
X57278408Y-34785183D01*
X57279746Y-34780138D01*
X57336994Y-34596140D01*
X57399163Y-34406877D01*
X57400859Y-34402327D01*
X57476077Y-34222429D01*
X57556177Y-34042120D01*
X57558114Y-34038154D01*
X57650593Y-33864946D01*
X57747941Y-33694423D01*
X57750053Y-33690990D01*
X57858899Y-33526584D01*
X57972668Y-33367023D01*
X57974816Y-33364194D01*
X58099047Y-33210310D01*
X58228191Y-33063090D01*
X58230354Y-33060754D01*
X58367794Y-32920023D01*
X58369807Y-32918057D01*
X58512154Y-32785438D01*
X58514212Y-32783609D01*
X58664318Y-32656446D01*
X58666790Y-32654463D01*
X58822772Y-32536043D01*
X58985007Y-32423026D01*
X58988061Y-32421032D01*
X59155237Y-32318838D01*
X59326916Y-32221888D01*
X59330485Y-32220025D01*
X59507492Y-32134957D01*
X59686770Y-32054964D01*
X59690863Y-32053312D01*
X59876372Y-31986157D01*
X60061190Y-31923822D01*
X60065785Y-31922471D01*
X60258978Y-31873829D01*
X60446602Y-31829717D01*
X60451723Y-31828742D01*
X60653766Y-31799038D01*
X60839348Y-31773542D01*
X60844932Y-31773033D01*
X61075630Y-31762577D01*
X61232164Y-31755976D01*
X61235026Y-31755921D01*
X61283444Y-31756115D01*
X61285364Y-31755908D01*
X82425987Y-31753231D01*
X82493026Y-31772906D01*
G37*
%TD.AperFunction*%
%TD*%
M02*
