%TF.GenerationSoftware,KiCad,Pcbnew,7.0.7*%
%TF.CreationDate,2023-11-06T08:22:00-06:00*%
%TF.ProjectId,ScienceHeaterElement_2023,53636965-6e63-4654-9865-61746572456c,rev?*%
%TF.SameCoordinates,Original*%
%TF.FileFunction,Copper,L2,Bot*%
%TF.FilePolarity,Positive*%
%FSLAX46Y46*%
G04 Gerber Fmt 4.6, Leading zero omitted, Abs format (unit mm)*
G04 Created by KiCad (PCBNEW 7.0.7) date 2023-11-06 08:22:00*
%MOMM*%
%LPD*%
G01*
G04 APERTURE LIST*
G04 Aperture macros list*
%AMRoundRect*
0 Rectangle with rounded corners*
0 $1 Rounding radius*
0 $2 $3 $4 $5 $6 $7 $8 $9 X,Y pos of 4 corners*
0 Add a 4 corners polygon primitive as box body*
4,1,4,$2,$3,$4,$5,$6,$7,$8,$9,$2,$3,0*
0 Add four circle primitives for the rounded corners*
1,1,$1+$1,$2,$3*
1,1,$1+$1,$4,$5*
1,1,$1+$1,$6,$7*
1,1,$1+$1,$8,$9*
0 Add four rect primitives between the rounded corners*
20,1,$1+$1,$2,$3,$4,$5,0*
20,1,$1+$1,$4,$5,$6,$7,0*
20,1,$1+$1,$6,$7,$8,$9,0*
20,1,$1+$1,$8,$9,$2,$3,0*%
G04 Aperture macros list end*
%TA.AperFunction,SMDPad,CuDef*%
%ADD10R,0.650000X0.400000*%
%TD*%
%TA.AperFunction,ComponentPad*%
%ADD11C,1.524000*%
%TD*%
%TA.AperFunction,SMDPad,CuDef*%
%ADD12RoundRect,0.150000X-0.150000X0.825000X-0.150000X-0.825000X0.150000X-0.825000X0.150000X0.825000X0*%
%TD*%
%TA.AperFunction,ComponentPad*%
%ADD13R,1.800000X1.800000*%
%TD*%
%TA.AperFunction,ComponentPad*%
%ADD14O,1.800000X1.800000*%
%TD*%
%TA.AperFunction,SMDPad,CuDef*%
%ADD15RoundRect,0.237500X0.237500X-0.250000X0.237500X0.250000X-0.237500X0.250000X-0.237500X-0.250000X0*%
%TD*%
%TA.AperFunction,SMDPad,CuDef*%
%ADD16RoundRect,0.237500X-0.237500X0.287500X-0.237500X-0.287500X0.237500X-0.287500X0.237500X0.287500X0*%
%TD*%
%TA.AperFunction,SMDPad,CuDef*%
%ADD17RoundRect,0.237500X0.250000X0.237500X-0.250000X0.237500X-0.250000X-0.237500X0.250000X-0.237500X0*%
%TD*%
%TA.AperFunction,ViaPad*%
%ADD18C,0.800000*%
%TD*%
%TA.AperFunction,Conductor*%
%ADD19C,0.508000*%
%TD*%
%TA.AperFunction,Conductor*%
%ADD20C,0.254000*%
%TD*%
%TA.AperFunction,Conductor*%
%ADD21C,0.250000*%
%TD*%
G04 APERTURE END LIST*
D10*
%TO.P,U1,1,V_{DD}*%
%TO.N,+3.3V*%
X161300730Y-48898750D03*
%TO.P,U1,2,GND*%
%TO.N,GND*%
X161300730Y-49548750D03*
%TO.P,U1,3,OUT*%
%TO.N,Temp_Sense*%
X161300730Y-50198750D03*
%TO.P,U1,4,V_{DD}*%
%TO.N,+3.3V*%
X159400730Y-50198750D03*
%TO.P,U1,5,GND*%
%TO.N,GND*%
X159400730Y-48898750D03*
%TD*%
D11*
%TO.P,Conn1,1*%
%TO.N,+3.3V*%
X136012250Y-39388750D03*
%TO.P,Conn1,2*%
%TO.N,Gate_Driving_Pin*%
X136012250Y-41928750D03*
%TO.P,Conn1,3*%
%TO.N,Temp_Sense*%
X136012250Y-44468750D03*
%TD*%
D12*
%TO.P,Q1,1,S*%
%TO.N,GND*%
X142489250Y-38183750D03*
%TO.P,Q1,2,S*%
X143759250Y-38183750D03*
%TO.P,Q1,3,S*%
X145029250Y-38183750D03*
%TO.P,Q1,4,G*%
%TO.N,Gate_Driving_Pin*%
X146299250Y-38183750D03*
%TO.P,Q1,5,D*%
%TO.N,/Heater_Trace*%
X146299250Y-43133750D03*
%TO.P,Q1,6,D*%
X145029250Y-43133750D03*
%TO.P,Q1,7,D*%
X143759250Y-43133750D03*
%TO.P,Q1,8,D*%
X142489250Y-43133750D03*
%TD*%
D13*
%TO.P,R1,1*%
%TO.N,+12V*%
X140838250Y-52658750D03*
D14*
%TO.P,R1,2*%
%TO.N,/Heater_Trace*%
X145918250Y-52658750D03*
%TD*%
D15*
%TO.P,R2,1*%
%TO.N,+12V*%
X140330250Y-49191250D03*
%TO.P,R2,2*%
%TO.N,Net-(D1-A)*%
X140330250Y-47366250D03*
%TD*%
D16*
%TO.P,D1,1,K*%
%TO.N,/Heater_Trace*%
X137536250Y-47403750D03*
%TO.P,D1,2,A*%
%TO.N,Net-(D1-A)*%
X137536250Y-49153750D03*
%TD*%
D17*
%TO.P,R3,1*%
%TO.N,Gate_Driving_Pin*%
X143782750Y-34562750D03*
%TO.P,R3,2*%
%TO.N,GND*%
X141957750Y-34562750D03*
%TD*%
D11*
%TO.P,Conn2,1*%
%TO.N,+12V*%
X136012250Y-52088750D03*
%TO.P,Conn2,2*%
X136012250Y-54628750D03*
%TO.P,Conn2,3*%
%TO.N,GND*%
X136012250Y-57168750D03*
%TO.P,Conn2,4*%
X136012250Y-59708750D03*
%TD*%
D18*
%TO.N,GND*%
X139822250Y-40658750D03*
X139822250Y-37864750D03*
X147442250Y-48024750D03*
%TO.N,/Heater_Trace*%
X158110250Y-48024750D03*
X158110250Y-51072750D03*
X145918250Y-46500750D03*
X162936250Y-51072750D03*
X162936250Y-48024750D03*
X138430000Y-45720000D03*
X141092250Y-43198750D03*
%TD*%
D19*
%TO.N,+12V*%
X137642500Y-53060500D02*
X138044250Y-52658750D01*
X136984000Y-53060500D02*
X137642500Y-53060500D01*
X136074250Y-54628750D02*
X137642500Y-53060500D01*
X136012250Y-52088750D02*
X136984000Y-53060500D01*
X136012250Y-54628750D02*
X136074250Y-54628750D01*
D20*
%TO.N,Temp_Sense*%
X145530198Y-50056750D02*
X141081724Y-45608276D01*
X158203250Y-50056750D02*
X145530198Y-50056750D01*
X158872250Y-50725750D02*
X158203250Y-50056750D01*
X160773730Y-50725750D02*
X158872250Y-50725750D01*
X161300730Y-50198750D02*
X160773730Y-50725750D01*
%TO.N,+3.3V*%
X141266948Y-45154276D02*
X137536250Y-41423578D01*
X141269776Y-45154276D02*
X141266948Y-45154276D01*
X137536250Y-41423578D02*
X137536250Y-41420750D01*
X158618250Y-49548750D02*
X145664250Y-49548750D01*
X145664250Y-49548750D02*
X141269776Y-45154276D01*
D21*
%TO.N,Temp_Sense*%
X136012250Y-44468750D02*
X139942198Y-44468750D01*
X139942198Y-44468750D02*
X141081724Y-45608276D01*
D20*
%TO.N,/Heater_Trace*%
X138430000Y-45720000D02*
X137536250Y-46613750D01*
X137536250Y-46613750D02*
X137536250Y-47403750D01*
D21*
%TO.N,+3.3V*%
X137536250Y-40912750D02*
X137536250Y-41420750D01*
X136012250Y-39388750D02*
X137536250Y-40912750D01*
D20*
%TO.N,Gate_Driving_Pin*%
X134742250Y-40658750D02*
X136012250Y-41928750D01*
X135815171Y-36594750D02*
X134742250Y-37667671D01*
X134742250Y-37667671D02*
X134742250Y-40658750D01*
X145089830Y-36594750D02*
X135815171Y-36594750D01*
%TO.N,+3.3V*%
X158750730Y-49548750D02*
X159400730Y-50198750D01*
X161300730Y-48898750D02*
X160538250Y-48898750D01*
X158618250Y-49548750D02*
X158750730Y-49548750D01*
X159929730Y-49548750D02*
X158618250Y-49548750D01*
X160538250Y-48898750D02*
X160538250Y-48940230D01*
X160538250Y-48940230D02*
X159929730Y-49548750D01*
%TO.N,GND*%
X162174250Y-49254230D02*
X162174250Y-48593270D01*
X161300730Y-49548750D02*
X161879730Y-49548750D01*
X158506250Y-48898750D02*
X159400730Y-48898750D01*
X148458250Y-49040750D02*
X158364250Y-49040750D01*
X147442250Y-48024750D02*
X148458250Y-49040750D01*
X162174250Y-48593270D02*
X161859730Y-48278750D01*
X158364250Y-49040750D02*
X158506250Y-48898750D01*
X159126250Y-48278750D02*
X158506250Y-48898750D01*
X161859730Y-48278750D02*
X159126250Y-48278750D01*
X161879730Y-49548750D02*
X162174250Y-49254230D01*
%TO.N,+12V*%
X140330250Y-49191250D02*
X140330250Y-50372750D01*
D19*
X138044250Y-52658750D02*
X140838250Y-52658750D01*
D20*
X140330250Y-50372750D02*
X138044250Y-52658750D01*
%TO.N,Gate_Driving_Pin*%
X146299250Y-37804170D02*
X146299250Y-38183750D01*
X145089830Y-36594750D02*
X143782750Y-35287670D01*
X145089830Y-36594750D02*
X146299250Y-37804170D01*
X143782750Y-35287670D02*
X143782750Y-34562750D01*
%TO.N,Net-(D1-A)*%
X139323750Y-47366250D02*
X137536250Y-49153750D01*
X140330250Y-47366250D02*
X139323750Y-47366250D01*
%TD*%
%TA.AperFunction,Conductor*%
%TO.N,GND*%
G36*
X148080526Y-26455053D02*
G01*
X148147519Y-26474884D01*
X148193158Y-26527789D01*
X148204250Y-26579052D01*
X148204250Y-48797250D01*
X148184565Y-48864289D01*
X148131761Y-48910044D01*
X148080250Y-48921250D01*
X145975531Y-48921250D01*
X145908492Y-48901565D01*
X145887850Y-48884931D01*
X142188850Y-45185931D01*
X142155365Y-45124608D01*
X142160349Y-45054916D01*
X142202221Y-44998983D01*
X142267685Y-44974566D01*
X142276531Y-44974250D01*
X144526750Y-44974250D01*
X144593789Y-44993935D01*
X144639544Y-45046739D01*
X144650750Y-45098249D01*
X144650750Y-46884750D01*
X144650751Y-46884759D01*
X144662302Y-46992200D01*
X144662304Y-46992212D01*
X144673510Y-47043722D01*
X144707633Y-47146247D01*
X144707636Y-47146253D01*
X144785421Y-47267287D01*
X144785429Y-47267298D01*
X144831173Y-47320090D01*
X144831176Y-47320093D01*
X144831180Y-47320097D01*
X144939914Y-47414317D01*
X144939917Y-47414318D01*
X144939918Y-47414319D01*
X145034175Y-47457366D01*
X145070791Y-47474088D01*
X145115607Y-47487247D01*
X145137825Y-47493772D01*
X145137830Y-47493773D01*
X145137834Y-47493774D01*
X145280250Y-47514250D01*
X145280253Y-47514250D01*
X146810240Y-47514250D01*
X146810250Y-47514250D01*
X146917706Y-47502697D01*
X146969217Y-47491491D01*
X147003447Y-47480097D01*
X147071747Y-47457366D01*
X147071751Y-47457363D01*
X147071754Y-47457363D01*
X147192793Y-47379575D01*
X147245597Y-47333820D01*
X147339817Y-47225086D01*
X147399588Y-47094209D01*
X147419273Y-47027170D01*
X147419274Y-47027166D01*
X147439750Y-46884750D01*
X147439750Y-42052750D01*
X147428197Y-41945294D01*
X147416991Y-41893783D01*
X147416887Y-41893472D01*
X147382866Y-41791252D01*
X147382863Y-41791246D01*
X147332200Y-41712414D01*
X147305075Y-41670207D01*
X147302257Y-41666955D01*
X147259326Y-41617409D01*
X147259322Y-41617406D01*
X147259320Y-41617403D01*
X147150586Y-41523183D01*
X147150583Y-41523181D01*
X147150581Y-41523180D01*
X147019715Y-41463414D01*
X147019710Y-41463412D01*
X147019709Y-41463412D01*
X146997108Y-41456775D01*
X146952675Y-41443728D01*
X146952669Y-41443726D01*
X146867216Y-41431440D01*
X146810250Y-41423250D01*
X140454250Y-41423250D01*
X140454241Y-41423250D01*
X140454240Y-41423251D01*
X140346799Y-41434802D01*
X140346787Y-41434804D01*
X140295277Y-41446010D01*
X140192752Y-41480133D01*
X140192746Y-41480136D01*
X140071712Y-41557921D01*
X140071701Y-41557929D01*
X140018909Y-41603673D01*
X139924683Y-41712414D01*
X139924680Y-41712418D01*
X139864914Y-41843284D01*
X139845228Y-41910325D01*
X139845226Y-41910330D01*
X139828845Y-42024266D01*
X139824752Y-42052740D01*
X139824750Y-42052751D01*
X139824750Y-42525296D01*
X139805065Y-42592335D01*
X139752261Y-42638090D01*
X139683103Y-42648034D01*
X139619547Y-42619009D01*
X139613069Y-42612977D01*
X138198069Y-41197977D01*
X138164584Y-41136654D01*
X138161750Y-41110296D01*
X138161750Y-40995487D01*
X138163474Y-40979873D01*
X138163188Y-40979846D01*
X138163922Y-40972083D01*
X138161750Y-40902952D01*
X138161750Y-40873401D01*
X138161750Y-40873400D01*
X138160879Y-40866509D01*
X138160422Y-40860695D01*
X138159019Y-40816049D01*
X138158959Y-40814122D01*
X138153370Y-40794887D01*
X138149424Y-40775834D01*
X138146914Y-40755958D01*
X138129751Y-40712609D01*
X138127864Y-40707096D01*
X138125287Y-40698227D01*
X138114867Y-40662360D01*
X138104671Y-40645119D01*
X138096110Y-40627643D01*
X138088736Y-40609019D01*
X138088736Y-40609017D01*
X138075958Y-40591431D01*
X138061333Y-40571300D01*
X138058150Y-40566455D01*
X138034420Y-40526329D01*
X138034415Y-40526323D01*
X138020255Y-40512163D01*
X138007620Y-40497370D01*
X137995843Y-40481162D01*
X137959943Y-40451463D01*
X137955631Y-40447540D01*
X137280636Y-39772544D01*
X137247151Y-39711222D01*
X137248543Y-39652768D01*
X137260319Y-39608822D01*
X137260319Y-39608821D01*
X137260320Y-39608818D01*
X137279573Y-39388750D01*
X137260320Y-39168682D01*
X137203144Y-38955300D01*
X137109784Y-38755089D01*
X136983076Y-38574130D01*
X136826870Y-38417924D01*
X136826866Y-38417921D01*
X136826865Y-38417920D01*
X136645916Y-38291218D01*
X136645912Y-38291216D01*
X136445700Y-38197856D01*
X136445697Y-38197855D01*
X136445695Y-38197854D01*
X136232320Y-38140680D01*
X136232312Y-38140679D01*
X136012252Y-38121427D01*
X136012248Y-38121427D01*
X135792187Y-38140679D01*
X135792179Y-38140680D01*
X135578804Y-38197854D01*
X135578797Y-38197857D01*
X135546153Y-38213079D01*
X135477075Y-38223570D01*
X135413292Y-38195049D01*
X135375053Y-38136572D01*
X135369750Y-38100696D01*
X135369750Y-37978951D01*
X135389435Y-37911912D01*
X135406064Y-37891275D01*
X136038771Y-37258568D01*
X136100094Y-37225084D01*
X136126452Y-37222250D01*
X144778549Y-37222250D01*
X144845588Y-37241935D01*
X144866230Y-37258569D01*
X145462431Y-37854769D01*
X145495916Y-37916092D01*
X145498750Y-37942450D01*
X145498750Y-39074446D01*
X145501651Y-39111317D01*
X145501652Y-39111323D01*
X145547504Y-39269143D01*
X145547505Y-39269146D01*
X145631167Y-39410612D01*
X145631173Y-39410620D01*
X145747379Y-39526826D01*
X145747383Y-39526829D01*
X145747385Y-39526831D01*
X145888852Y-39610494D01*
X145906265Y-39615553D01*
X146046676Y-39656347D01*
X146046679Y-39656347D01*
X146046681Y-39656348D01*
X146058972Y-39657315D01*
X146083554Y-39659250D01*
X146083556Y-39659250D01*
X146514946Y-39659250D01*
X146533381Y-39657799D01*
X146551819Y-39656348D01*
X146551821Y-39656347D01*
X146551823Y-39656347D01*
X146593441Y-39644255D01*
X146709648Y-39610494D01*
X146851115Y-39526831D01*
X146967331Y-39410615D01*
X147050994Y-39269148D01*
X147096848Y-39111319D01*
X147099750Y-39074444D01*
X147099750Y-37293056D01*
X147096848Y-37256181D01*
X147095597Y-37251876D01*
X147050995Y-37098356D01*
X147050994Y-37098353D01*
X147050994Y-37098352D01*
X146967331Y-36956885D01*
X146967329Y-36956883D01*
X146967326Y-36956879D01*
X146851120Y-36840673D01*
X146851112Y-36840667D01*
X146709646Y-36757005D01*
X146709643Y-36757004D01*
X146551823Y-36711152D01*
X146551817Y-36711151D01*
X146514946Y-36708250D01*
X146514944Y-36708250D01*
X146142111Y-36708250D01*
X146075072Y-36688565D01*
X146054430Y-36671931D01*
X145592206Y-36209707D01*
X145582361Y-36197418D01*
X145582143Y-36197599D01*
X145577170Y-36191588D01*
X145556268Y-36171960D01*
X145526571Y-36144072D01*
X145505626Y-36123127D01*
X145488186Y-36105687D01*
X145488183Y-36105685D01*
X144695604Y-35313105D01*
X144662119Y-35251782D01*
X144667103Y-35182090D01*
X144677744Y-35160331D01*
X144706158Y-35114266D01*
X144760424Y-34950503D01*
X144770750Y-34849427D01*
X144770749Y-34276074D01*
X144760424Y-34174997D01*
X144706158Y-34011234D01*
X144615590Y-33864400D01*
X144493600Y-33742410D01*
X144346766Y-33651842D01*
X144183003Y-33597576D01*
X144183001Y-33597575D01*
X144081928Y-33587250D01*
X143483580Y-33587250D01*
X143483562Y-33587251D01*
X143382497Y-33597575D01*
X143218734Y-33651842D01*
X143218731Y-33651843D01*
X143071898Y-33742411D01*
X142949911Y-33864398D01*
X142859343Y-34011231D01*
X142859341Y-34011234D01*
X142859342Y-34011234D01*
X142805076Y-34174997D01*
X142805076Y-34174998D01*
X142805075Y-34174998D01*
X142794750Y-34276065D01*
X142794750Y-34849419D01*
X142794751Y-34849437D01*
X142805075Y-34950502D01*
X142841359Y-35059999D01*
X142859342Y-35114266D01*
X142949910Y-35261100D01*
X143071900Y-35383090D01*
X143134422Y-35421653D01*
X143181145Y-35473600D01*
X143184618Y-35481549D01*
X143187345Y-35488437D01*
X143189237Y-35493964D01*
X143202279Y-35538857D01*
X143202280Y-35538858D01*
X143212527Y-35556185D01*
X143221085Y-35573655D01*
X143228495Y-35592371D01*
X143255979Y-35630199D01*
X143259187Y-35635083D01*
X143282984Y-35675322D01*
X143282990Y-35675330D01*
X143297219Y-35689558D01*
X143309856Y-35704354D01*
X143321687Y-35720637D01*
X143354410Y-35747707D01*
X143393516Y-35805606D01*
X143395112Y-35875458D01*
X143358690Y-35935083D01*
X143295814Y-35965553D01*
X143275368Y-35967250D01*
X135898136Y-35967250D01*
X135882485Y-35965522D01*
X135882459Y-35965804D01*
X135874696Y-35965069D01*
X135805325Y-35967250D01*
X135775692Y-35967250D01*
X135768778Y-35968123D01*
X135762961Y-35968580D01*
X135716229Y-35970049D01*
X135716225Y-35970050D01*
X135696893Y-35975666D01*
X135677853Y-35979609D01*
X135657879Y-35982133D01*
X135657872Y-35982135D01*
X135614410Y-35999342D01*
X135608883Y-36001235D01*
X135563980Y-36014281D01*
X135563979Y-36014281D01*
X135546645Y-36024532D01*
X135529183Y-36033086D01*
X135510471Y-36040495D01*
X135510466Y-36040498D01*
X135472644Y-36067976D01*
X135467762Y-36071183D01*
X135427512Y-36094988D01*
X135413278Y-36109222D01*
X135398489Y-36121854D01*
X135382203Y-36133687D01*
X135352398Y-36169713D01*
X135348466Y-36174035D01*
X134357203Y-37165297D01*
X134344919Y-37175140D01*
X134345099Y-37175358D01*
X134339088Y-37180330D01*
X134291572Y-37230929D01*
X134270625Y-37251876D01*
X134266356Y-37257380D01*
X134262565Y-37261818D01*
X134230558Y-37295901D01*
X134230555Y-37295905D01*
X134220856Y-37313548D01*
X134210178Y-37329804D01*
X134197844Y-37345705D01*
X134197839Y-37345713D01*
X134179275Y-37388614D01*
X134176704Y-37393862D01*
X134154177Y-37434838D01*
X134149170Y-37454339D01*
X134142871Y-37472735D01*
X134136143Y-37488283D01*
X134134875Y-37491215D01*
X134134874Y-37491217D01*
X134127562Y-37537387D01*
X134126377Y-37543109D01*
X134114750Y-37588394D01*
X134114750Y-37608529D01*
X134113223Y-37627928D01*
X134110075Y-37647802D01*
X134114475Y-37694348D01*
X134114750Y-37700186D01*
X134114750Y-40575782D01*
X134113022Y-40591431D01*
X134113304Y-40591458D01*
X134112569Y-40599225D01*
X134114750Y-40668609D01*
X134114750Y-40698227D01*
X134115621Y-40705130D01*
X134116079Y-40710949D01*
X134117548Y-40757692D01*
X134123166Y-40777025D01*
X134127112Y-40796079D01*
X134129633Y-40816037D01*
X134129636Y-40816049D01*
X134146845Y-40859515D01*
X134148737Y-40865043D01*
X134161780Y-40909937D01*
X134161780Y-40909938D01*
X134172027Y-40927265D01*
X134180585Y-40944735D01*
X134187995Y-40963451D01*
X134215479Y-41001279D01*
X134218687Y-41006163D01*
X134242484Y-41046402D01*
X134242490Y-41046410D01*
X134256719Y-41060638D01*
X134269359Y-41075437D01*
X134281184Y-41091714D01*
X134281186Y-41091715D01*
X134281187Y-41091717D01*
X134317207Y-41121515D01*
X134321518Y-41125437D01*
X134619331Y-41423250D01*
X134743265Y-41547184D01*
X134776750Y-41608507D01*
X134775360Y-41666955D01*
X134764181Y-41708678D01*
X134764179Y-41708688D01*
X134744927Y-41928747D01*
X134744927Y-41928752D01*
X134764179Y-42148812D01*
X134764180Y-42148820D01*
X134821354Y-42362195D01*
X134821355Y-42362197D01*
X134821356Y-42362200D01*
X134897409Y-42525296D01*
X134914716Y-42562412D01*
X134914718Y-42562416D01*
X135041420Y-42743365D01*
X135041425Y-42743371D01*
X135197628Y-42899574D01*
X135197634Y-42899579D01*
X135378583Y-43026281D01*
X135378585Y-43026282D01*
X135378588Y-43026284D01*
X135497998Y-43081965D01*
X135507439Y-43086368D01*
X135559878Y-43132540D01*
X135579030Y-43199734D01*
X135558814Y-43266615D01*
X135507439Y-43311132D01*
X135378590Y-43371215D01*
X135378588Y-43371216D01*
X135197627Y-43497925D01*
X135041425Y-43654127D01*
X134914716Y-43835088D01*
X134914715Y-43835090D01*
X134821357Y-44035298D01*
X134821354Y-44035304D01*
X134764180Y-44248679D01*
X134764179Y-44248687D01*
X134744927Y-44468747D01*
X134744927Y-44468752D01*
X134764179Y-44688812D01*
X134764180Y-44688820D01*
X134821354Y-44902195D01*
X134821355Y-44902197D01*
X134821356Y-44902200D01*
X134892568Y-45054916D01*
X134914716Y-45102412D01*
X134914718Y-45102416D01*
X135041420Y-45283365D01*
X135041425Y-45283371D01*
X135197628Y-45439574D01*
X135197634Y-45439579D01*
X135378583Y-45566281D01*
X135378585Y-45566282D01*
X135378588Y-45566284D01*
X135578800Y-45659644D01*
X135792182Y-45716820D01*
X135949373Y-45730572D01*
X136012248Y-45736073D01*
X136012250Y-45736073D01*
X136012252Y-45736073D01*
X136067267Y-45731259D01*
X136232318Y-45716820D01*
X136445700Y-45659644D01*
X136645912Y-45566284D01*
X136826870Y-45439576D01*
X136983076Y-45283370D01*
X137078474Y-45147126D01*
X137133052Y-45103502D01*
X137180050Y-45094250D01*
X137536695Y-45094250D01*
X137603734Y-45113935D01*
X137649489Y-45166739D01*
X137659433Y-45235897D01*
X137644082Y-45280249D01*
X137642281Y-45283369D01*
X137602821Y-45351715D01*
X137602818Y-45351722D01*
X137544327Y-45531740D01*
X137544326Y-45531744D01*
X137528203Y-45685143D01*
X137527011Y-45696489D01*
X137500426Y-45761103D01*
X137491371Y-45771208D01*
X137151203Y-46111376D01*
X137138919Y-46121219D01*
X137139099Y-46121437D01*
X137133088Y-46126409D01*
X137085572Y-46177008D01*
X137064625Y-46197955D01*
X137060356Y-46203459D01*
X137056565Y-46207897D01*
X137024558Y-46241980D01*
X137024555Y-46241984D01*
X137014856Y-46259627D01*
X137004178Y-46275883D01*
X136991844Y-46291784D01*
X136991839Y-46291792D01*
X136973275Y-46334693D01*
X136970704Y-46339941D01*
X136948177Y-46380917D01*
X136943170Y-46400418D01*
X136936871Y-46418814D01*
X136928876Y-46437292D01*
X136928873Y-46437299D01*
X136928040Y-46440168D01*
X136926775Y-46442146D01*
X136925779Y-46444451D01*
X136925407Y-46444290D01*
X136890430Y-46499051D01*
X136874065Y-46511103D01*
X136837898Y-46533411D01*
X136715911Y-46655398D01*
X136625343Y-46802231D01*
X136625341Y-46802236D01*
X136599333Y-46880724D01*
X136571076Y-46965997D01*
X136571076Y-46965998D01*
X136571075Y-46965998D01*
X136560750Y-47067065D01*
X136560750Y-47740419D01*
X136560751Y-47740437D01*
X136571075Y-47841502D01*
X136625342Y-48005265D01*
X136625343Y-48005268D01*
X136715911Y-48152101D01*
X136754879Y-48191069D01*
X136788364Y-48252392D01*
X136783380Y-48322084D01*
X136754879Y-48366431D01*
X136715911Y-48405398D01*
X136625343Y-48552231D01*
X136625341Y-48552234D01*
X136625342Y-48552234D01*
X136571076Y-48715997D01*
X136571076Y-48715998D01*
X136571075Y-48715998D01*
X136560750Y-48817065D01*
X136560750Y-49490419D01*
X136560751Y-49490437D01*
X136571075Y-49591502D01*
X136607359Y-49700999D01*
X136625342Y-49755266D01*
X136715910Y-49902100D01*
X136837900Y-50024090D01*
X136984734Y-50114658D01*
X137148497Y-50168924D01*
X137249573Y-50179250D01*
X137822926Y-50179249D01*
X137822934Y-50179248D01*
X137822937Y-50179248D01*
X137878280Y-50173594D01*
X137924003Y-50168924D01*
X138087766Y-50114658D01*
X138234600Y-50024090D01*
X138356590Y-49902100D01*
X138447158Y-49755266D01*
X138501424Y-49591503D01*
X138511750Y-49490427D01*
X138511749Y-49117029D01*
X138531433Y-49049991D01*
X138548063Y-49029354D01*
X139417434Y-48159983D01*
X139478755Y-48126500D01*
X139548447Y-48131484D01*
X139592794Y-48159985D01*
X139623878Y-48191069D01*
X139657363Y-48252392D01*
X139652379Y-48322084D01*
X139623879Y-48366431D01*
X139509909Y-48480401D01*
X139419343Y-48627231D01*
X139419341Y-48627234D01*
X139419342Y-48627234D01*
X139365076Y-48790997D01*
X139365076Y-48790998D01*
X139365075Y-48790998D01*
X139354750Y-48892065D01*
X139354750Y-49490419D01*
X139354751Y-49490437D01*
X139365075Y-49591502D01*
X139401359Y-49700999D01*
X139416931Y-49747991D01*
X139419342Y-49755265D01*
X139419343Y-49755268D01*
X139509911Y-49902101D01*
X139624014Y-50016204D01*
X139657499Y-50077527D01*
X139652515Y-50147219D01*
X139624014Y-50191566D01*
X137929219Y-51886360D01*
X137875556Y-51916312D01*
X137875851Y-51917121D01*
X137870840Y-51918944D01*
X137870141Y-51919335D01*
X137869070Y-51919588D01*
X137796510Y-51945997D01*
X137723212Y-51970286D01*
X137716670Y-51973337D01*
X137716647Y-51973289D01*
X137709757Y-51976625D01*
X137709781Y-51976672D01*
X137703326Y-51979913D01*
X137638805Y-52022348D01*
X137573099Y-52062877D01*
X137567429Y-52067361D01*
X137567396Y-52067319D01*
X137561464Y-52072151D01*
X137561498Y-52072192D01*
X137555968Y-52076832D01*
X137555965Y-52076834D01*
X137555965Y-52076835D01*
X137502978Y-52132997D01*
X137490160Y-52145814D01*
X137489135Y-52146840D01*
X137427810Y-52180322D01*
X137358119Y-52175335D01*
X137302187Y-52133461D01*
X137277929Y-52069962D01*
X137260320Y-51868682D01*
X137203144Y-51655300D01*
X137109784Y-51455089D01*
X137046429Y-51364609D01*
X136983077Y-51274131D01*
X136947511Y-51238565D01*
X136826870Y-51117924D01*
X136826866Y-51117921D01*
X136826865Y-51117920D01*
X136645916Y-50991218D01*
X136645912Y-50991216D01*
X136645910Y-50991215D01*
X136445700Y-50897856D01*
X136445697Y-50897855D01*
X136445695Y-50897854D01*
X136232320Y-50840680D01*
X136232312Y-50840679D01*
X136012252Y-50821427D01*
X136012248Y-50821427D01*
X135792187Y-50840679D01*
X135792179Y-50840680D01*
X135578804Y-50897854D01*
X135578798Y-50897857D01*
X135378590Y-50991215D01*
X135378588Y-50991216D01*
X135197627Y-51117925D01*
X135041425Y-51274127D01*
X134914716Y-51455088D01*
X134914715Y-51455090D01*
X134821357Y-51655298D01*
X134821354Y-51655304D01*
X134764180Y-51868679D01*
X134764179Y-51868687D01*
X134744927Y-52088747D01*
X134744927Y-52088752D01*
X134764179Y-52308812D01*
X134764180Y-52308820D01*
X134821354Y-52522195D01*
X134821355Y-52522197D01*
X134821356Y-52522200D01*
X134867108Y-52620315D01*
X134914716Y-52722412D01*
X134914718Y-52722416D01*
X135041420Y-52903365D01*
X135041425Y-52903371D01*
X135197628Y-53059574D01*
X135197634Y-53059579D01*
X135378583Y-53186281D01*
X135378585Y-53186282D01*
X135378588Y-53186284D01*
X135497998Y-53241965D01*
X135507439Y-53246368D01*
X135559878Y-53292540D01*
X135579030Y-53359734D01*
X135558814Y-53426615D01*
X135507439Y-53471132D01*
X135378590Y-53531215D01*
X135378588Y-53531216D01*
X135197627Y-53657925D01*
X135041425Y-53814127D01*
X134914716Y-53995088D01*
X134914715Y-53995090D01*
X134821357Y-54195298D01*
X134821354Y-54195304D01*
X134764180Y-54408679D01*
X134764179Y-54408687D01*
X134744927Y-54628747D01*
X134744927Y-54628752D01*
X134764179Y-54848812D01*
X134764180Y-54848820D01*
X134821354Y-55062195D01*
X134821355Y-55062197D01*
X134821356Y-55062200D01*
X134914716Y-55262412D01*
X134914718Y-55262416D01*
X135041420Y-55443365D01*
X135041425Y-55443371D01*
X135197628Y-55599574D01*
X135197634Y-55599579D01*
X135378583Y-55726281D01*
X135378585Y-55726282D01*
X135378588Y-55726284D01*
X135578800Y-55819644D01*
X135792182Y-55876820D01*
X135949373Y-55890572D01*
X136012248Y-55896073D01*
X136012250Y-55896073D01*
X136012252Y-55896073D01*
X136067267Y-55891259D01*
X136232318Y-55876820D01*
X136445700Y-55819644D01*
X136645912Y-55726284D01*
X136826870Y-55599576D01*
X136983076Y-55443370D01*
X137109784Y-55262412D01*
X137203144Y-55062200D01*
X137260320Y-54848818D01*
X137279573Y-54628750D01*
X137273486Y-54559176D01*
X137287252Y-54490678D01*
X137309330Y-54460692D01*
X138112548Y-53657474D01*
X138125281Y-53647103D01*
X138125247Y-53647062D01*
X138130783Y-53642416D01*
X138130782Y-53642416D01*
X138130785Y-53642415D01*
X138183771Y-53586252D01*
X138207083Y-53562941D01*
X138207082Y-53562941D01*
X138265643Y-53504383D01*
X138265670Y-53504354D01*
X138320457Y-53449568D01*
X138381780Y-53416084D01*
X138408137Y-53413250D01*
X139313751Y-53413250D01*
X139380790Y-53432935D01*
X139426545Y-53485739D01*
X139437751Y-53537250D01*
X139437751Y-53606626D01*
X139444158Y-53666233D01*
X139494452Y-53801078D01*
X139494456Y-53801085D01*
X139580702Y-53916294D01*
X139580705Y-53916297D01*
X139695914Y-54002543D01*
X139695921Y-54002547D01*
X139830767Y-54052841D01*
X139830766Y-54052841D01*
X139837694Y-54053585D01*
X139890377Y-54059250D01*
X141786122Y-54059249D01*
X141845733Y-54052841D01*
X141980581Y-54002546D01*
X142095796Y-53916296D01*
X142182046Y-53801081D01*
X142232341Y-53666233D01*
X142238750Y-53606623D01*
X142238750Y-52658756D01*
X144512950Y-52658756D01*
X144532114Y-52890047D01*
X144532116Y-52890058D01*
X144589092Y-53115050D01*
X144682325Y-53327598D01*
X144809266Y-53521897D01*
X144809269Y-53521901D01*
X144809271Y-53521903D01*
X144966466Y-53692663D01*
X144966469Y-53692665D01*
X144966472Y-53692668D01*
X145149615Y-53835214D01*
X145149621Y-53835218D01*
X145149624Y-53835220D01*
X145353747Y-53945686D01*
X145467737Y-53984818D01*
X145573265Y-54021047D01*
X145573267Y-54021047D01*
X145573269Y-54021048D01*
X145802201Y-54059250D01*
X145802202Y-54059250D01*
X146034298Y-54059250D01*
X146034299Y-54059250D01*
X146263231Y-54021048D01*
X146482753Y-53945686D01*
X146686876Y-53835220D01*
X146713977Y-53814127D01*
X146748379Y-53787350D01*
X146870034Y-53692663D01*
X147027229Y-53521903D01*
X147154174Y-53327599D01*
X147247407Y-53115050D01*
X147304384Y-52890055D01*
X147304385Y-52890047D01*
X147323550Y-52658756D01*
X147323550Y-52658743D01*
X147304385Y-52427452D01*
X147304383Y-52427441D01*
X147247407Y-52202449D01*
X147154174Y-51989901D01*
X147027233Y-51795602D01*
X147027230Y-51795599D01*
X147027229Y-51795597D01*
X146870034Y-51624837D01*
X146870029Y-51624833D01*
X146870027Y-51624831D01*
X146686884Y-51482285D01*
X146686878Y-51482281D01*
X146482754Y-51371814D01*
X146482745Y-51371811D01*
X146263234Y-51296452D01*
X146072700Y-51264658D01*
X146034299Y-51258250D01*
X145802201Y-51258250D01*
X145763800Y-51264658D01*
X145573265Y-51296452D01*
X145353754Y-51371811D01*
X145353745Y-51371814D01*
X145149621Y-51482281D01*
X145149615Y-51482285D01*
X144966472Y-51624831D01*
X144966469Y-51624834D01*
X144966466Y-51624836D01*
X144966466Y-51624837D01*
X144942136Y-51651267D01*
X144809266Y-51795602D01*
X144682325Y-51989901D01*
X144589092Y-52202449D01*
X144532116Y-52427441D01*
X144532114Y-52427452D01*
X144512950Y-52658743D01*
X144512950Y-52658756D01*
X142238750Y-52658756D01*
X142238749Y-51710878D01*
X142232341Y-51651267D01*
X142228698Y-51641500D01*
X142182047Y-51516421D01*
X142182043Y-51516414D01*
X142095797Y-51401205D01*
X142095794Y-51401202D01*
X141980585Y-51314956D01*
X141980578Y-51314952D01*
X141845732Y-51264658D01*
X141845733Y-51264658D01*
X141786133Y-51258251D01*
X141786131Y-51258250D01*
X141786123Y-51258250D01*
X141786115Y-51258250D01*
X140631530Y-51258250D01*
X140564491Y-51238565D01*
X140518736Y-51185761D01*
X140508792Y-51116603D01*
X140537817Y-51053047D01*
X140543849Y-51046569D01*
X140599203Y-50991215D01*
X140715293Y-50875124D01*
X140727575Y-50865287D01*
X140727394Y-50865068D01*
X140733402Y-50860096D01*
X140733412Y-50860090D01*
X140780927Y-50809491D01*
X140801873Y-50788546D01*
X140806142Y-50783040D01*
X140809926Y-50778609D01*
X140841943Y-50744517D01*
X140851639Y-50726878D01*
X140862323Y-50710611D01*
X140874658Y-50694712D01*
X140893228Y-50651796D01*
X140895784Y-50646577D01*
X140918322Y-50605584D01*
X140923331Y-50586072D01*
X140929628Y-50567682D01*
X140937623Y-50549209D01*
X140944939Y-50503007D01*
X140946114Y-50497333D01*
X140957750Y-50452022D01*
X140957750Y-50431890D01*
X140959277Y-50412491D01*
X140962425Y-50392617D01*
X140958025Y-50346071D01*
X140957750Y-50340233D01*
X140957750Y-50136997D01*
X140977435Y-50069958D01*
X141016655Y-50031457D01*
X141028600Y-50024090D01*
X141150590Y-49902100D01*
X141241158Y-49755266D01*
X141295424Y-49591503D01*
X141305750Y-49490427D01*
X141305749Y-48892074D01*
X141305019Y-48884931D01*
X141295424Y-48790997D01*
X141295424Y-48790996D01*
X141241158Y-48627234D01*
X141150590Y-48480400D01*
X141036619Y-48366429D01*
X141003136Y-48305107D01*
X141008120Y-48235415D01*
X141036617Y-48191072D01*
X141150590Y-48077100D01*
X141241158Y-47930266D01*
X141295424Y-47766503D01*
X141305750Y-47665427D01*
X141305749Y-47067074D01*
X141301649Y-47026941D01*
X141314418Y-46958251D01*
X141362298Y-46907366D01*
X141430088Y-46890445D01*
X141496264Y-46912860D01*
X141512688Y-46926660D01*
X145027822Y-50441793D01*
X145037669Y-50454083D01*
X145037887Y-50453904D01*
X145042855Y-50459910D01*
X145093455Y-50507427D01*
X145114399Y-50528370D01*
X145114405Y-50528376D01*
X145119895Y-50532633D01*
X145124345Y-50536433D01*
X145137949Y-50549209D01*
X145158433Y-50568445D01*
X145158435Y-50568446D01*
X145176065Y-50578137D01*
X145192333Y-50588822D01*
X145208236Y-50601158D01*
X145208238Y-50601159D01*
X145208240Y-50601160D01*
X145229578Y-50610393D01*
X145251141Y-50619724D01*
X145256388Y-50622295D01*
X145277932Y-50634139D01*
X145297364Y-50644822D01*
X145316865Y-50649829D01*
X145335263Y-50656128D01*
X145353739Y-50664123D01*
X145399938Y-50671440D01*
X145405612Y-50672615D01*
X145450926Y-50684250D01*
X145471062Y-50684250D01*
X145490461Y-50685777D01*
X145510331Y-50688924D01*
X145556869Y-50684524D01*
X145562706Y-50684250D01*
X148080250Y-50684250D01*
X148147289Y-50703935D01*
X148193044Y-50756739D01*
X148204250Y-50808250D01*
X148204250Y-72496201D01*
X148184565Y-72563240D01*
X148131761Y-72608995D01*
X148080246Y-72620201D01*
X128367037Y-72619540D01*
X128299998Y-72599853D01*
X128254245Y-72547048D01*
X128244304Y-72477889D01*
X128273331Y-72414334D01*
X128324627Y-72379020D01*
X128463025Y-72328648D01*
X128820383Y-72156553D01*
X129158831Y-71949732D01*
X129475004Y-71710240D01*
X129765761Y-71440457D01*
X130028211Y-71143065D01*
X130259746Y-70821020D01*
X130458065Y-70477521D01*
X130621197Y-70115983D01*
X130747521Y-69739998D01*
X130835781Y-69353305D01*
X130885101Y-68959745D01*
X130894989Y-68563230D01*
X130865349Y-68167700D01*
X130796473Y-67777088D01*
X130689047Y-67395274D01*
X130660754Y-67323185D01*
X130544144Y-67026066D01*
X130544139Y-67026054D01*
X130363193Y-66673105D01*
X130363189Y-66673097D01*
X130147994Y-66339911D01*
X129900694Y-66029806D01*
X129900691Y-66029803D01*
X129900684Y-66029794D01*
X129623756Y-65745875D01*
X129623753Y-65745872D01*
X129623752Y-65745871D01*
X129623747Y-65745866D01*
X129319904Y-65490912D01*
X129174736Y-65391938D01*
X128992185Y-65267477D01*
X128860569Y-65195803D01*
X128643850Y-65077784D01*
X128643842Y-65077780D01*
X128643839Y-65077779D01*
X128278357Y-64923716D01*
X128278341Y-64923710D01*
X127899344Y-64806805D01*
X127899331Y-64806802D01*
X127510580Y-64728214D01*
X127510559Y-64728211D01*
X127115900Y-64688720D01*
X127115899Y-64688720D01*
X126818479Y-64688720D01*
X126818477Y-64688720D01*
X126521435Y-64703544D01*
X126129227Y-64762661D01*
X125744852Y-64860534D01*
X125372129Y-64996194D01*
X125014771Y-65168289D01*
X124676333Y-65375104D01*
X124676322Y-65375112D01*
X124360155Y-65614600D01*
X124360152Y-65614602D01*
X124069393Y-65884388D01*
X123806945Y-66181779D01*
X123575419Y-66503813D01*
X123575406Y-66503833D01*
X123377096Y-66847316D01*
X123213961Y-67208860D01*
X123199482Y-67251954D01*
X123159471Y-67309233D01*
X123094844Y-67335787D01*
X123026120Y-67323185D01*
X122975118Y-67275430D01*
X122957940Y-67212531D01*
X122956022Y-63758749D01*
X141272842Y-63758749D01*
X141277605Y-63828387D01*
X141277750Y-63832620D01*
X141277750Y-63902432D01*
X141287253Y-63971579D01*
X141287686Y-63975789D01*
X141292451Y-64045433D01*
X141292452Y-64045437D01*
X141306653Y-64113785D01*
X141307372Y-64117955D01*
X141316879Y-64187111D01*
X141335709Y-64254316D01*
X141336711Y-64258429D01*
X141350914Y-64326775D01*
X141350919Y-64326790D01*
X141374291Y-64392555D01*
X141375571Y-64396590D01*
X141394404Y-64463805D01*
X141394405Y-64463808D01*
X141422216Y-64527834D01*
X141423769Y-64531773D01*
X141447144Y-64597543D01*
X141447146Y-64597548D01*
X141479252Y-64659509D01*
X141481071Y-64663333D01*
X141508893Y-64727384D01*
X141545164Y-64787026D01*
X141547239Y-64790718D01*
X141579350Y-64852688D01*
X141593842Y-64873219D01*
X141619612Y-64909727D01*
X141621914Y-64913236D01*
X141658195Y-64972897D01*
X141677147Y-64996192D01*
X141702240Y-65027036D01*
X141704798Y-65030410D01*
X141745060Y-65087448D01*
X141792706Y-65138463D01*
X141795489Y-65141655D01*
X141839541Y-65195803D01*
X141890556Y-65243448D01*
X141893550Y-65246442D01*
X141941196Y-65297457D01*
X141995343Y-65341509D01*
X141998535Y-65344292D01*
X142049552Y-65391940D01*
X142106581Y-65432194D01*
X142109956Y-65434753D01*
X142114885Y-65438763D01*
X142164103Y-65478805D01*
X142184012Y-65490912D01*
X142223746Y-65515075D01*
X142227278Y-65517391D01*
X142284314Y-65557651D01*
X142346302Y-65589770D01*
X142349966Y-65591831D01*
X142382698Y-65611736D01*
X142409619Y-65628108D01*
X142409622Y-65628109D01*
X142409625Y-65628111D01*
X142473684Y-65655935D01*
X142477475Y-65657739D01*
X142539453Y-65689854D01*
X142588297Y-65707213D01*
X142605227Y-65713230D01*
X142609164Y-65714782D01*
X142673192Y-65742594D01*
X142740425Y-65761431D01*
X142744435Y-65762704D01*
X142810218Y-65786084D01*
X142878583Y-65800290D01*
X142882663Y-65801284D01*
X142949892Y-65820121D01*
X143019076Y-65829630D01*
X143023191Y-65830339D01*
X143091564Y-65844548D01*
X143161243Y-65849314D01*
X143165398Y-65849742D01*
X143234572Y-65859250D01*
X143234573Y-65859250D01*
X143521927Y-65859250D01*
X143521928Y-65859250D01*
X143591106Y-65849741D01*
X143595252Y-65849314D01*
X143664936Y-65844548D01*
X143733307Y-65830339D01*
X143737426Y-65829629D01*
X143806608Y-65820121D01*
X143873833Y-65801285D01*
X143877917Y-65800289D01*
X143946282Y-65786084D01*
X144012056Y-65762707D01*
X144016080Y-65761429D01*
X144083308Y-65742594D01*
X144147345Y-65714777D01*
X144151253Y-65713236D01*
X144217047Y-65689854D01*
X144279034Y-65657733D01*
X144282838Y-65655925D01*
X144346875Y-65628111D01*
X144406550Y-65591820D01*
X144410190Y-65589773D01*
X144472186Y-65557651D01*
X144529228Y-65517386D01*
X144532736Y-65515085D01*
X144592397Y-65478805D01*
X144646559Y-65434739D01*
X144649893Y-65432210D01*
X144706948Y-65391939D01*
X144757966Y-65344289D01*
X144761154Y-65341510D01*
X144769740Y-65334524D01*
X144815303Y-65297458D01*
X144862952Y-65246437D01*
X144865943Y-65243447D01*
X144916958Y-65195803D01*
X144961010Y-65141654D01*
X144963789Y-65138466D01*
X145011439Y-65087448D01*
X145051710Y-65030393D01*
X145054239Y-65027059D01*
X145098305Y-64972897D01*
X145134585Y-64913236D01*
X145136886Y-64909728D01*
X145177151Y-64852686D01*
X145209273Y-64790690D01*
X145211320Y-64787050D01*
X145247611Y-64727375D01*
X145275428Y-64663333D01*
X145277233Y-64659534D01*
X145309354Y-64597547D01*
X145332736Y-64531753D01*
X145334282Y-64527835D01*
X145334283Y-64527834D01*
X145362094Y-64463808D01*
X145380929Y-64396580D01*
X145382208Y-64392554D01*
X145405584Y-64326782D01*
X145419787Y-64258430D01*
X145419788Y-64258429D01*
X145419789Y-64258417D01*
X145420790Y-64254316D01*
X145439621Y-64187108D01*
X145449129Y-64117926D01*
X145449839Y-64113807D01*
X145464048Y-64045436D01*
X145468814Y-63975752D01*
X145469241Y-63971606D01*
X145478750Y-63902428D01*
X145478750Y-63832620D01*
X145478895Y-63828387D01*
X145480181Y-63809570D01*
X145483658Y-63758750D01*
X145478895Y-63689111D01*
X145478750Y-63684878D01*
X145478750Y-63615073D01*
X145469245Y-63545921D01*
X145469242Y-63545898D01*
X145468814Y-63541743D01*
X145464048Y-63472064D01*
X145449839Y-63403691D01*
X145449130Y-63399576D01*
X145439621Y-63330392D01*
X145420784Y-63263163D01*
X145419787Y-63259069D01*
X145405584Y-63190718D01*
X145382204Y-63124933D01*
X145380931Y-63120925D01*
X145362094Y-63053692D01*
X145334282Y-62989664D01*
X145332730Y-62985727D01*
X145321543Y-62954250D01*
X145309354Y-62919953D01*
X145277239Y-62857975D01*
X145275435Y-62854184D01*
X145247611Y-62790125D01*
X145247609Y-62790122D01*
X145247608Y-62790119D01*
X145231236Y-62763198D01*
X145211331Y-62730466D01*
X145209270Y-62726802D01*
X145177151Y-62664814D01*
X145136891Y-62607778D01*
X145134575Y-62604246D01*
X145098307Y-62544607D01*
X145098305Y-62544603D01*
X145054253Y-62490456D01*
X145051694Y-62487081D01*
X145011440Y-62430052D01*
X144963792Y-62379035D01*
X144961009Y-62375843D01*
X144916957Y-62321696D01*
X144865942Y-62274050D01*
X144862948Y-62271056D01*
X144815302Y-62220041D01*
X144815303Y-62220041D01*
X144761155Y-62175989D01*
X144757963Y-62173206D01*
X144706948Y-62125560D01*
X144649910Y-62085298D01*
X144646536Y-62082740D01*
X144630833Y-62069965D01*
X144592397Y-62038695D01*
X144532736Y-62002414D01*
X144529227Y-62000112D01*
X144472189Y-61959851D01*
X144472188Y-61959850D01*
X144410218Y-61927739D01*
X144406526Y-61925664D01*
X144346884Y-61889393D01*
X144282833Y-61861571D01*
X144279016Y-61859755D01*
X144256001Y-61847830D01*
X144217048Y-61827646D01*
X144217043Y-61827644D01*
X144151273Y-61804269D01*
X144147334Y-61802716D01*
X144083308Y-61774905D01*
X144083305Y-61774904D01*
X144016090Y-61756071D01*
X144012055Y-61754791D01*
X143946290Y-61731419D01*
X143946282Y-61731416D01*
X143946279Y-61731415D01*
X143946275Y-61731414D01*
X143877929Y-61717211D01*
X143873816Y-61716209D01*
X143806611Y-61697379D01*
X143737455Y-61687872D01*
X143733285Y-61687153D01*
X143664937Y-61672952D01*
X143664933Y-61672951D01*
X143595289Y-61668186D01*
X143591079Y-61667753D01*
X143521932Y-61658250D01*
X143521928Y-61658250D01*
X143234572Y-61658250D01*
X143234567Y-61658250D01*
X143165421Y-61667753D01*
X143161211Y-61668186D01*
X143091566Y-61672951D01*
X143091562Y-61672952D01*
X143023212Y-61687154D01*
X143019043Y-61687872D01*
X142957002Y-61696401D01*
X142949892Y-61697379D01*
X142949890Y-61697379D01*
X142949886Y-61697380D01*
X142882681Y-61716209D01*
X142878569Y-61717211D01*
X142810222Y-61731415D01*
X142810203Y-61731420D01*
X142744433Y-61754794D01*
X142740399Y-61756074D01*
X142673194Y-61774904D01*
X142673191Y-61774905D01*
X142609155Y-61802719D01*
X142605217Y-61804272D01*
X142539457Y-61827643D01*
X142539455Y-61827644D01*
X142477487Y-61859752D01*
X142473666Y-61861570D01*
X142409624Y-61889389D01*
X142349973Y-61925663D01*
X142346283Y-61927738D01*
X142284309Y-61959851D01*
X142227289Y-62000100D01*
X142223750Y-62002421D01*
X142164106Y-62038692D01*
X142164099Y-62038697D01*
X142109957Y-62082744D01*
X142106585Y-62085301D01*
X142049553Y-62125559D01*
X141998533Y-62173208D01*
X141995343Y-62175990D01*
X141959419Y-62205216D01*
X141941197Y-62220042D01*
X141941195Y-62220044D01*
X141893549Y-62271058D01*
X141890558Y-62274049D01*
X141839544Y-62321695D01*
X141839540Y-62321700D01*
X141795490Y-62375843D01*
X141792708Y-62379033D01*
X141745059Y-62430053D01*
X141704801Y-62487085D01*
X141702244Y-62490457D01*
X141658197Y-62544599D01*
X141658192Y-62544606D01*
X141621921Y-62604250D01*
X141619600Y-62607789D01*
X141579351Y-62664809D01*
X141547238Y-62726783D01*
X141545163Y-62730473D01*
X141508889Y-62790124D01*
X141481070Y-62854166D01*
X141479252Y-62857987D01*
X141447144Y-62919955D01*
X141447143Y-62919957D01*
X141423772Y-62985717D01*
X141422219Y-62989655D01*
X141394405Y-63053691D01*
X141394404Y-63053694D01*
X141375574Y-63120899D01*
X141374294Y-63124933D01*
X141350920Y-63190703D01*
X141350915Y-63190722D01*
X141336711Y-63259069D01*
X141335709Y-63263181D01*
X141316880Y-63330386D01*
X141307372Y-63399543D01*
X141306654Y-63403712D01*
X141292452Y-63472062D01*
X141292451Y-63472066D01*
X141287686Y-63541711D01*
X141287253Y-63545921D01*
X141277750Y-63615067D01*
X141277750Y-63684878D01*
X141277605Y-63689111D01*
X141272842Y-63758749D01*
X122956022Y-63758749D01*
X122954479Y-60978751D01*
X125395704Y-60978751D01*
X125415863Y-61260616D01*
X125475928Y-61536727D01*
X125475930Y-61536734D01*
X125524906Y-61668043D01*
X125574682Y-61801500D01*
X125574684Y-61801504D01*
X125710105Y-62049508D01*
X125710110Y-62049516D01*
X125879446Y-62275724D01*
X125879462Y-62275742D01*
X126079257Y-62475537D01*
X126079275Y-62475553D01*
X126305483Y-62644889D01*
X126305491Y-62644894D01*
X126553495Y-62780315D01*
X126553499Y-62780317D01*
X126553501Y-62780318D01*
X126818266Y-62879070D01*
X126956327Y-62909103D01*
X127094383Y-62939136D01*
X127094385Y-62939136D01*
X127094389Y-62939137D01*
X127305697Y-62954250D01*
X127446803Y-62954250D01*
X127658111Y-62939137D01*
X127934234Y-62879070D01*
X128198999Y-62780318D01*
X128447014Y-62644891D01*
X128673232Y-62475547D01*
X128873047Y-62275732D01*
X129042391Y-62049514D01*
X129177818Y-61801499D01*
X129276570Y-61536734D01*
X129336637Y-61260611D01*
X129356796Y-60978750D01*
X129336637Y-60696889D01*
X129276570Y-60420766D01*
X129177818Y-60156001D01*
X129042391Y-59907986D01*
X129042389Y-59907983D01*
X128873053Y-59681775D01*
X128873037Y-59681757D01*
X128673242Y-59481962D01*
X128673224Y-59481946D01*
X128447016Y-59312610D01*
X128447008Y-59312605D01*
X128199004Y-59177184D01*
X128199000Y-59177182D01*
X128098622Y-59139743D01*
X127934234Y-59078430D01*
X127934230Y-59078429D01*
X127934227Y-59078428D01*
X127658116Y-59018363D01*
X127446803Y-59003250D01*
X127305697Y-59003250D01*
X127094383Y-59018363D01*
X126818272Y-59078428D01*
X126818267Y-59078429D01*
X126818266Y-59078430D01*
X126754253Y-59102305D01*
X126553499Y-59177182D01*
X126553495Y-59177184D01*
X126305491Y-59312605D01*
X126305483Y-59312610D01*
X126079275Y-59481946D01*
X126079257Y-59481962D01*
X125879462Y-59681757D01*
X125879446Y-59681775D01*
X125710110Y-59907983D01*
X125710105Y-59907991D01*
X125574684Y-60155995D01*
X125574682Y-60155999D01*
X125475928Y-60420772D01*
X125415863Y-60696883D01*
X125395704Y-60978748D01*
X125395704Y-60978751D01*
X122954479Y-60978751D01*
X122948839Y-50818751D01*
X125395704Y-50818751D01*
X125415863Y-51100616D01*
X125475928Y-51376727D01*
X125475930Y-51376734D01*
X125537243Y-51541122D01*
X125574682Y-51641500D01*
X125574684Y-51641504D01*
X125710105Y-51889508D01*
X125710110Y-51889516D01*
X125879446Y-52115724D01*
X125879462Y-52115742D01*
X126079257Y-52315537D01*
X126079275Y-52315553D01*
X126305483Y-52484889D01*
X126305491Y-52484894D01*
X126553495Y-52620315D01*
X126553499Y-52620317D01*
X126553501Y-52620318D01*
X126818266Y-52719070D01*
X126956327Y-52749103D01*
X127094383Y-52779136D01*
X127094385Y-52779136D01*
X127094389Y-52779137D01*
X127305697Y-52794250D01*
X127446803Y-52794250D01*
X127658111Y-52779137D01*
X127934234Y-52719070D01*
X128198999Y-52620318D01*
X128447014Y-52484891D01*
X128673232Y-52315547D01*
X128873047Y-52115732D01*
X129042391Y-51889514D01*
X129177818Y-51641499D01*
X129276570Y-51376734D01*
X129336637Y-51100611D01*
X129356796Y-50818750D01*
X129354636Y-50788556D01*
X129351487Y-50744516D01*
X129336637Y-50536889D01*
X129336102Y-50534431D01*
X129276571Y-50260772D01*
X129276570Y-50260766D01*
X129177818Y-49996001D01*
X129118655Y-49887653D01*
X129042394Y-49747991D01*
X129042389Y-49747983D01*
X128873053Y-49521775D01*
X128873037Y-49521757D01*
X128673242Y-49321962D01*
X128673224Y-49321946D01*
X128447016Y-49152610D01*
X128447008Y-49152605D01*
X128199004Y-49017184D01*
X128199000Y-49017182D01*
X128098622Y-48979743D01*
X127934234Y-48918430D01*
X127934230Y-48918429D01*
X127934227Y-48918428D01*
X127658116Y-48858363D01*
X127446803Y-48843250D01*
X127305697Y-48843250D01*
X127094383Y-48858363D01*
X126818272Y-48918428D01*
X126818267Y-48918429D01*
X126818266Y-48918430D01*
X126754253Y-48942305D01*
X126553499Y-49017182D01*
X126553495Y-49017184D01*
X126305491Y-49152605D01*
X126305483Y-49152610D01*
X126079275Y-49321946D01*
X126079257Y-49321962D01*
X125879462Y-49521757D01*
X125879446Y-49521775D01*
X125710110Y-49747983D01*
X125710105Y-49747991D01*
X125574684Y-49995995D01*
X125574682Y-49995999D01*
X125510185Y-50168924D01*
X125479126Y-50252199D01*
X125475928Y-50260772D01*
X125415863Y-50536883D01*
X125395704Y-50818748D01*
X125395704Y-50818751D01*
X122948839Y-50818751D01*
X122946019Y-45738751D01*
X125395704Y-45738751D01*
X125415863Y-46020616D01*
X125475928Y-46296727D01*
X125475930Y-46296734D01*
X125537243Y-46461122D01*
X125574682Y-46561500D01*
X125574684Y-46561504D01*
X125710105Y-46809508D01*
X125710110Y-46809516D01*
X125879446Y-47035724D01*
X125879462Y-47035742D01*
X126079257Y-47235537D01*
X126079275Y-47235553D01*
X126305483Y-47404889D01*
X126305491Y-47404894D01*
X126553495Y-47540315D01*
X126553499Y-47540317D01*
X126553501Y-47540318D01*
X126818266Y-47639070D01*
X126939427Y-47665427D01*
X127094383Y-47699136D01*
X127094385Y-47699136D01*
X127094389Y-47699137D01*
X127305697Y-47714250D01*
X127446803Y-47714250D01*
X127658111Y-47699137D01*
X127934234Y-47639070D01*
X128198999Y-47540318D01*
X128447014Y-47404891D01*
X128673232Y-47235547D01*
X128873047Y-47035732D01*
X129042391Y-46809514D01*
X129177818Y-46561499D01*
X129276570Y-46296734D01*
X129336637Y-46020611D01*
X129356796Y-45738750D01*
X129355227Y-45716819D01*
X129344461Y-45566281D01*
X129336637Y-45456889D01*
X129332871Y-45439579D01*
X129288563Y-45235897D01*
X129276570Y-45180766D01*
X129177818Y-44916001D01*
X129170279Y-44902195D01*
X129042394Y-44667991D01*
X129042389Y-44667983D01*
X128873053Y-44441775D01*
X128873037Y-44441757D01*
X128673242Y-44241962D01*
X128673224Y-44241946D01*
X128447016Y-44072610D01*
X128447008Y-44072605D01*
X128199004Y-43937184D01*
X128199000Y-43937182D01*
X128098622Y-43899743D01*
X127934234Y-43838430D01*
X127934230Y-43838429D01*
X127934227Y-43838428D01*
X127658116Y-43778363D01*
X127446803Y-43763250D01*
X127305697Y-43763250D01*
X127094383Y-43778363D01*
X126818272Y-43838428D01*
X126818267Y-43838429D01*
X126818266Y-43838430D01*
X126754253Y-43862305D01*
X126553499Y-43937182D01*
X126553495Y-43937184D01*
X126305491Y-44072605D01*
X126305483Y-44072610D01*
X126079275Y-44241946D01*
X126079257Y-44241962D01*
X125879462Y-44441757D01*
X125879446Y-44441775D01*
X125710110Y-44667983D01*
X125710105Y-44667991D01*
X125574684Y-44915995D01*
X125574682Y-44915999D01*
X125508199Y-45094250D01*
X125494653Y-45130569D01*
X125475928Y-45180772D01*
X125415863Y-45456883D01*
X125395704Y-45738748D01*
X125395704Y-45738751D01*
X122946019Y-45738751D01*
X122941789Y-38118751D01*
X125395704Y-38118751D01*
X125415863Y-38400616D01*
X125475928Y-38676727D01*
X125475930Y-38676734D01*
X125537243Y-38841122D01*
X125574682Y-38941500D01*
X125574684Y-38941504D01*
X125710105Y-39189508D01*
X125710110Y-39189516D01*
X125879446Y-39415724D01*
X125879462Y-39415742D01*
X126079257Y-39615537D01*
X126079275Y-39615553D01*
X126305483Y-39784889D01*
X126305491Y-39784894D01*
X126553495Y-39920315D01*
X126553499Y-39920317D01*
X126553501Y-39920318D01*
X126818266Y-40019070D01*
X126956327Y-40049103D01*
X127094383Y-40079136D01*
X127094385Y-40079136D01*
X127094389Y-40079137D01*
X127305697Y-40094250D01*
X127446803Y-40094250D01*
X127658111Y-40079137D01*
X127934234Y-40019070D01*
X128198999Y-39920318D01*
X128447014Y-39784891D01*
X128673232Y-39615547D01*
X128873047Y-39415732D01*
X129042391Y-39189514D01*
X129177818Y-38941499D01*
X129276570Y-38676734D01*
X129336637Y-38400611D01*
X129356796Y-38118750D01*
X129336637Y-37836889D01*
X129276570Y-37560766D01*
X129177818Y-37296001D01*
X129177763Y-37295901D01*
X129042394Y-37047991D01*
X129042389Y-37047983D01*
X128873053Y-36821775D01*
X128873037Y-36821757D01*
X128673242Y-36621962D01*
X128673224Y-36621946D01*
X128447016Y-36452610D01*
X128447008Y-36452605D01*
X128199004Y-36317184D01*
X128199000Y-36317182D01*
X128098622Y-36279743D01*
X127934234Y-36218430D01*
X127934230Y-36218429D01*
X127934227Y-36218428D01*
X127658116Y-36158363D01*
X127446803Y-36143250D01*
X127305697Y-36143250D01*
X127094383Y-36158363D01*
X126818272Y-36218428D01*
X126818267Y-36218429D01*
X126818266Y-36218430D01*
X126754253Y-36242305D01*
X126553499Y-36317182D01*
X126553495Y-36317184D01*
X126305491Y-36452605D01*
X126305483Y-36452610D01*
X126079275Y-36621946D01*
X126079257Y-36621962D01*
X125879462Y-36821757D01*
X125879446Y-36821775D01*
X125710110Y-37047983D01*
X125710105Y-37047991D01*
X125574684Y-37295995D01*
X125574682Y-37295999D01*
X125515625Y-37454339D01*
X125483571Y-37540281D01*
X125475928Y-37560772D01*
X125415863Y-37836883D01*
X125395704Y-38118748D01*
X125395704Y-38118751D01*
X122941789Y-38118751D01*
X122938178Y-31613788D01*
X122957825Y-31546740D01*
X123010604Y-31500956D01*
X123079757Y-31490974D01*
X123143329Y-31519964D01*
X123181136Y-31578721D01*
X123181543Y-31580137D01*
X123228531Y-31747142D01*
X123228534Y-31747151D01*
X123373435Y-32116353D01*
X123373440Y-32116365D01*
X123554386Y-32469314D01*
X123554391Y-32469323D01*
X123769586Y-32802509D01*
X123895691Y-32960640D01*
X124016895Y-33112625D01*
X124293823Y-33396544D01*
X124293833Y-33396554D01*
X124597676Y-33651508D01*
X124925394Y-33874942D01*
X125273730Y-34064636D01*
X125639223Y-34218704D01*
X125639232Y-34218706D01*
X125639238Y-34218709D01*
X126018235Y-34335614D01*
X126018248Y-34335617D01*
X126406999Y-34414205D01*
X126407014Y-34414208D01*
X126745299Y-34448058D01*
X126801680Y-34453700D01*
X126801681Y-34453700D01*
X127099103Y-34453700D01*
X127297130Y-34443816D01*
X127396145Y-34438875D01*
X127788353Y-34379759D01*
X128172726Y-34281886D01*
X128545445Y-34146228D01*
X128902803Y-33974133D01*
X129241251Y-33767312D01*
X129557424Y-33527820D01*
X129848181Y-33258037D01*
X130110631Y-32960645D01*
X130342166Y-32638600D01*
X130540485Y-32295101D01*
X130703617Y-31933563D01*
X130829941Y-31557578D01*
X130918201Y-31170885D01*
X130967521Y-30777325D01*
X130977409Y-30380810D01*
X130947769Y-29985280D01*
X130878893Y-29594668D01*
X130839648Y-29455185D01*
X130771469Y-29212862D01*
X130771465Y-29212848D01*
X130626564Y-28843646D01*
X130626559Y-28843634D01*
X130445613Y-28490685D01*
X130445609Y-28490677D01*
X130230414Y-28157491D01*
X129983114Y-27847386D01*
X129983111Y-27847383D01*
X129983104Y-27847374D01*
X129706176Y-27563455D01*
X129706173Y-27563452D01*
X129706172Y-27563451D01*
X129706167Y-27563446D01*
X129402324Y-27308492D01*
X129320656Y-27252812D01*
X129074605Y-27085057D01*
X128892461Y-26985867D01*
X128726270Y-26895364D01*
X128726262Y-26895360D01*
X128726259Y-26895359D01*
X128360777Y-26741296D01*
X128360761Y-26741290D01*
X128076387Y-26653573D01*
X128018128Y-26615003D01*
X127989971Y-26551058D01*
X128000854Y-26482041D01*
X128047322Y-26429865D01*
X128113209Y-26411082D01*
X148080526Y-26455053D01*
G37*
%TD.AperFunction*%
%TD*%
%TA.AperFunction,Conductor*%
%TO.N,/Heater_Trace*%
G36*
X163894225Y-46800435D02*
G01*
X163939980Y-46853239D01*
X163951185Y-46904293D01*
X163970392Y-52116111D01*
X163950955Y-52183223D01*
X163898320Y-52229172D01*
X163846212Y-52240568D01*
X157238322Y-52230930D01*
X157171311Y-52211148D01*
X157125634Y-52158277D01*
X157114503Y-52107157D01*
X157111570Y-50508477D01*
X157131132Y-50441402D01*
X157183852Y-50395550D01*
X157235570Y-50384250D01*
X158016234Y-50384250D01*
X158083273Y-50403935D01*
X158103915Y-50420569D01*
X158628641Y-50945296D01*
X158632296Y-50949285D01*
X158658486Y-50980496D01*
X158658488Y-50980497D01*
X158658490Y-50980500D01*
X158658492Y-50980501D01*
X158658493Y-50980502D01*
X158693771Y-51000870D01*
X158698335Y-51003777D01*
X158731705Y-51027143D01*
X158736323Y-51029296D01*
X158753739Y-51036509D01*
X158758509Y-51038246D01*
X158758511Y-51038247D01*
X158798655Y-51045325D01*
X158803887Y-51046484D01*
X158843266Y-51057037D01*
X158883851Y-51053485D01*
X158889255Y-51053250D01*
X160756725Y-51053250D01*
X160762128Y-51053485D01*
X160802714Y-51057037D01*
X160842098Y-51046482D01*
X160847316Y-51045326D01*
X160887469Y-51038247D01*
X160887474Y-51038243D01*
X160892261Y-51036502D01*
X160909649Y-51029299D01*
X160914267Y-51027145D01*
X160914273Y-51027144D01*
X160947667Y-51003759D01*
X160952181Y-51000884D01*
X160987490Y-50980500D01*
X161013687Y-50949278D01*
X161017315Y-50945317D01*
X161327067Y-50635567D01*
X161388389Y-50602084D01*
X161414747Y-50599250D01*
X161645480Y-50599250D01*
X161645481Y-50599249D01*
X161660298Y-50596302D01*
X161703959Y-50587618D01*
X161703959Y-50587617D01*
X161703961Y-50587617D01*
X161770282Y-50543302D01*
X161814597Y-50476981D01*
X161814597Y-50476979D01*
X161814598Y-50476979D01*
X161826229Y-50418502D01*
X161826230Y-50418500D01*
X161826230Y-49997286D01*
X161845915Y-49930247D01*
X161898719Y-49884492D01*
X161918122Y-49877515D01*
X161948098Y-49869482D01*
X161953316Y-49868326D01*
X161993469Y-49861247D01*
X161993474Y-49861243D01*
X161998261Y-49859502D01*
X162015649Y-49852299D01*
X162020265Y-49850145D01*
X162020273Y-49850144D01*
X162053652Y-49826770D01*
X162058182Y-49823884D01*
X162093490Y-49803500D01*
X162119686Y-49772279D01*
X162123314Y-49768319D01*
X162393811Y-49497822D01*
X162397773Y-49494191D01*
X162429000Y-49467990D01*
X162449375Y-49432696D01*
X162452276Y-49428143D01*
X162475644Y-49394773D01*
X162475645Y-49394767D01*
X162477800Y-49390147D01*
X162485008Y-49372747D01*
X162486746Y-49367970D01*
X162486747Y-49367969D01*
X162493824Y-49327826D01*
X162494987Y-49322579D01*
X162505536Y-49283214D01*
X162501985Y-49242634D01*
X162501750Y-49237233D01*
X162501750Y-48610265D01*
X162501986Y-48604858D01*
X162505536Y-48564283D01*
X162494991Y-48524932D01*
X162493824Y-48519672D01*
X162486747Y-48479531D01*
X162486745Y-48479527D01*
X162485006Y-48474750D01*
X162477796Y-48457342D01*
X162475643Y-48452725D01*
X162452282Y-48419363D01*
X162449373Y-48414798D01*
X162429000Y-48379510D01*
X162428996Y-48379506D01*
X162397785Y-48353316D01*
X162393796Y-48349661D01*
X162103341Y-48059206D01*
X162099685Y-48055217D01*
X162073491Y-48024000D01*
X162038209Y-48003630D01*
X162033645Y-48000723D01*
X162000274Y-47977356D01*
X161995689Y-47975218D01*
X161978221Y-47967982D01*
X161973470Y-47966253D01*
X161933348Y-47959178D01*
X161928065Y-47958007D01*
X161888711Y-47947462D01*
X161852621Y-47950621D01*
X161848128Y-47951014D01*
X161842725Y-47951250D01*
X159143246Y-47951250D01*
X159137844Y-47951014D01*
X159129946Y-47950323D01*
X159097264Y-47947463D01*
X159057921Y-47958005D01*
X159052641Y-47959176D01*
X159012510Y-47966253D01*
X159007778Y-47967975D01*
X158990278Y-47975223D01*
X158985706Y-47977355D01*
X158952337Y-48000720D01*
X158947777Y-48003625D01*
X158912492Y-48023997D01*
X158912489Y-48024000D01*
X158886303Y-48055207D01*
X158882648Y-48059196D01*
X158316703Y-48625141D01*
X158296352Y-48640758D01*
X158292491Y-48643998D01*
X158284518Y-48653500D01*
X158271546Y-48668958D01*
X158213377Y-48707658D01*
X158176560Y-48713250D01*
X157232049Y-48713250D01*
X157165010Y-48693565D01*
X157119255Y-48640761D01*
X157108049Y-48589478D01*
X157104958Y-46904978D01*
X157124520Y-46837902D01*
X157177240Y-46792050D01*
X157228958Y-46780750D01*
X163827186Y-46780750D01*
X163894225Y-46800435D01*
G37*
%TD.AperFunction*%
%TD*%
%TA.AperFunction,Conductor*%
%TO.N,/Heater_Trace*%
G36*
X146877289Y-41948435D02*
G01*
X146923044Y-42001239D01*
X146934250Y-42052750D01*
X146934250Y-46884750D01*
X146914565Y-46951789D01*
X146861761Y-46997544D01*
X146810250Y-47008750D01*
X145280250Y-47008750D01*
X145213211Y-46989065D01*
X145167456Y-46936261D01*
X145156250Y-46884750D01*
X145156250Y-44468750D01*
X141095939Y-44468750D01*
X141028900Y-44449065D01*
X141008258Y-44432431D01*
X140366569Y-43790742D01*
X140333084Y-43729419D01*
X140330250Y-43703061D01*
X140330250Y-42052750D01*
X140349935Y-41985711D01*
X140402739Y-41939956D01*
X140454250Y-41928750D01*
X146810250Y-41928750D01*
X146877289Y-41948435D01*
G37*
%TD.AperFunction*%
%TD*%
M02*
