M48
; DRILL file {KiCad 7.0.7} date Mon Nov 13 23:42:34 2023
; FORMAT={-:-/ absolute / inch / decimal}
; #@! TF.CreationDate,2023-11-13T23:42:34-06:00
; #@! TF.GenerationSoftware,Kicad,Pcbnew,7.0.7
; #@! TF.FileFunction,Plated,1,2,PTH
FMAT,2
INCH
; #@! TA.AperFunction,Plated,PTH,ViaDrill
T1C0.0157
; #@! TA.AperFunction,Plated,PTH,ComponentDrill
T2C0.0300
; #@! TA.AperFunction,Plated,PTH,ComponentDrill
T3C0.0354
; #@! TA.AperFunction,Plated,PTH,ComponentDrill
T4C0.0433
%
G90
G05
T1
X5.45Y-1.8
X5.5048Y-1.4907
X5.5048Y-1.6007
X5.5548Y-1.7007
X5.7448Y-1.8307
X5.8048Y-1.8907
X6.7053Y-2.0307
X6.7053Y-1.6307
X6.7053Y-2.1107
X6.7053Y-1.3907
X6.7053Y-1.4707
X6.7053Y-2.1907
X6.7053Y-2.4307
X6.7053Y-1.7907
X6.7053Y-2.5107
X6.7053Y-1.7107
X6.7053Y-1.8707
X6.7053Y-1.9507
X6.7053Y-2.2707
X6.7053Y-2.3507
X6.7053Y-1.5507
T2
X5.3548Y-1.7507
T3
X5.3548Y-1.5507
X5.3548Y-1.6507
X5.3548Y-2.0507
X5.3548Y-2.1507
X5.3548Y-2.2507
X5.3548Y-2.3507
T4
X5.543Y-2.08
X5.743Y-2.08
T0
M30
