%TF.GenerationSoftware,KiCad,Pcbnew,7.0.7*%
%TF.CreationDate,2023-11-13T23:42:54-06:00*%
%TF.ProjectId,ScienceHeaterElement_2023,53636965-6e63-4654-9865-61746572456c,rev?*%
%TF.SameCoordinates,Original*%
%TF.FileFunction,Legend,Bot*%
%TF.FilePolarity,Positive*%
%FSLAX46Y46*%
G04 Gerber Fmt 4.6, Leading zero omitted, Abs format (unit mm)*
G04 Created by KiCad (PCBNEW 7.0.7) date 2023-11-13 23:42:54*
%MOMM*%
%LPD*%
G01*
G04 APERTURE LIST*
%ADD10C,0.300000*%
%ADD11C,0.150000*%
%ADD12C,0.120000*%
G04 APERTURE END LIST*
D10*
X177329998Y-55298600D02*
X177115713Y-55370028D01*
X177115713Y-55370028D02*
X176758570Y-55370028D01*
X176758570Y-55370028D02*
X176615713Y-55298600D01*
X176615713Y-55298600D02*
X176544284Y-55227171D01*
X176544284Y-55227171D02*
X176472855Y-55084314D01*
X176472855Y-55084314D02*
X176472855Y-54941457D01*
X176472855Y-54941457D02*
X176544284Y-54798600D01*
X176544284Y-54798600D02*
X176615713Y-54727171D01*
X176615713Y-54727171D02*
X176758570Y-54655742D01*
X176758570Y-54655742D02*
X177044284Y-54584314D01*
X177044284Y-54584314D02*
X177187141Y-54512885D01*
X177187141Y-54512885D02*
X177258570Y-54441457D01*
X177258570Y-54441457D02*
X177329998Y-54298600D01*
X177329998Y-54298600D02*
X177329998Y-54155742D01*
X177329998Y-54155742D02*
X177258570Y-54012885D01*
X177258570Y-54012885D02*
X177187141Y-53941457D01*
X177187141Y-53941457D02*
X177044284Y-53870028D01*
X177044284Y-53870028D02*
X176687141Y-53870028D01*
X176687141Y-53870028D02*
X176472855Y-53941457D01*
X175187142Y-55298600D02*
X175329999Y-55370028D01*
X175329999Y-55370028D02*
X175615713Y-55370028D01*
X175615713Y-55370028D02*
X175758570Y-55298600D01*
X175758570Y-55298600D02*
X175829999Y-55227171D01*
X175829999Y-55227171D02*
X175901427Y-55084314D01*
X175901427Y-55084314D02*
X175901427Y-54655742D01*
X175901427Y-54655742D02*
X175829999Y-54512885D01*
X175829999Y-54512885D02*
X175758570Y-54441457D01*
X175758570Y-54441457D02*
X175615713Y-54370028D01*
X175615713Y-54370028D02*
X175329999Y-54370028D01*
X175329999Y-54370028D02*
X175187142Y-54441457D01*
X174544285Y-55370028D02*
X174544285Y-54370028D01*
X174544285Y-53870028D02*
X174615713Y-53941457D01*
X174615713Y-53941457D02*
X174544285Y-54012885D01*
X174544285Y-54012885D02*
X174472856Y-53941457D01*
X174472856Y-53941457D02*
X174544285Y-53870028D01*
X174544285Y-53870028D02*
X174544285Y-54012885D01*
X173258570Y-55298600D02*
X173401427Y-55370028D01*
X173401427Y-55370028D02*
X173687142Y-55370028D01*
X173687142Y-55370028D02*
X173829999Y-55298600D01*
X173829999Y-55298600D02*
X173901427Y-55155742D01*
X173901427Y-55155742D02*
X173901427Y-54584314D01*
X173901427Y-54584314D02*
X173829999Y-54441457D01*
X173829999Y-54441457D02*
X173687142Y-54370028D01*
X173687142Y-54370028D02*
X173401427Y-54370028D01*
X173401427Y-54370028D02*
X173258570Y-54441457D01*
X173258570Y-54441457D02*
X173187142Y-54584314D01*
X173187142Y-54584314D02*
X173187142Y-54727171D01*
X173187142Y-54727171D02*
X173901427Y-54870028D01*
X172544285Y-54370028D02*
X172544285Y-55370028D01*
X172544285Y-54512885D02*
X172472856Y-54441457D01*
X172472856Y-54441457D02*
X172329999Y-54370028D01*
X172329999Y-54370028D02*
X172115713Y-54370028D01*
X172115713Y-54370028D02*
X171972856Y-54441457D01*
X171972856Y-54441457D02*
X171901428Y-54584314D01*
X171901428Y-54584314D02*
X171901428Y-55370028D01*
X170544285Y-55298600D02*
X170687142Y-55370028D01*
X170687142Y-55370028D02*
X170972856Y-55370028D01*
X170972856Y-55370028D02*
X171115713Y-55298600D01*
X171115713Y-55298600D02*
X171187142Y-55227171D01*
X171187142Y-55227171D02*
X171258570Y-55084314D01*
X171258570Y-55084314D02*
X171258570Y-54655742D01*
X171258570Y-54655742D02*
X171187142Y-54512885D01*
X171187142Y-54512885D02*
X171115713Y-54441457D01*
X171115713Y-54441457D02*
X170972856Y-54370028D01*
X170972856Y-54370028D02*
X170687142Y-54370028D01*
X170687142Y-54370028D02*
X170544285Y-54441457D01*
X169329999Y-55298600D02*
X169472856Y-55370028D01*
X169472856Y-55370028D02*
X169758571Y-55370028D01*
X169758571Y-55370028D02*
X169901428Y-55298600D01*
X169901428Y-55298600D02*
X169972856Y-55155742D01*
X169972856Y-55155742D02*
X169972856Y-54584314D01*
X169972856Y-54584314D02*
X169901428Y-54441457D01*
X169901428Y-54441457D02*
X169758571Y-54370028D01*
X169758571Y-54370028D02*
X169472856Y-54370028D01*
X169472856Y-54370028D02*
X169329999Y-54441457D01*
X169329999Y-54441457D02*
X169258571Y-54584314D01*
X169258571Y-54584314D02*
X169258571Y-54727171D01*
X169258571Y-54727171D02*
X169972856Y-54870028D01*
X167472857Y-55370028D02*
X167472857Y-53870028D01*
X167472857Y-54584314D02*
X166615714Y-54584314D01*
X166615714Y-55370028D02*
X166615714Y-53870028D01*
X165329999Y-55298600D02*
X165472856Y-55370028D01*
X165472856Y-55370028D02*
X165758571Y-55370028D01*
X165758571Y-55370028D02*
X165901428Y-55298600D01*
X165901428Y-55298600D02*
X165972856Y-55155742D01*
X165972856Y-55155742D02*
X165972856Y-54584314D01*
X165972856Y-54584314D02*
X165901428Y-54441457D01*
X165901428Y-54441457D02*
X165758571Y-54370028D01*
X165758571Y-54370028D02*
X165472856Y-54370028D01*
X165472856Y-54370028D02*
X165329999Y-54441457D01*
X165329999Y-54441457D02*
X165258571Y-54584314D01*
X165258571Y-54584314D02*
X165258571Y-54727171D01*
X165258571Y-54727171D02*
X165972856Y-54870028D01*
X163972857Y-55370028D02*
X163972857Y-54584314D01*
X163972857Y-54584314D02*
X164044285Y-54441457D01*
X164044285Y-54441457D02*
X164187142Y-54370028D01*
X164187142Y-54370028D02*
X164472857Y-54370028D01*
X164472857Y-54370028D02*
X164615714Y-54441457D01*
X163972857Y-55298600D02*
X164115714Y-55370028D01*
X164115714Y-55370028D02*
X164472857Y-55370028D01*
X164472857Y-55370028D02*
X164615714Y-55298600D01*
X164615714Y-55298600D02*
X164687142Y-55155742D01*
X164687142Y-55155742D02*
X164687142Y-55012885D01*
X164687142Y-55012885D02*
X164615714Y-54870028D01*
X164615714Y-54870028D02*
X164472857Y-54798600D01*
X164472857Y-54798600D02*
X164115714Y-54798600D01*
X164115714Y-54798600D02*
X163972857Y-54727171D01*
X163472856Y-54370028D02*
X162901428Y-54370028D01*
X163258571Y-53870028D02*
X163258571Y-55155742D01*
X163258571Y-55155742D02*
X163187142Y-55298600D01*
X163187142Y-55298600D02*
X163044285Y-55370028D01*
X163044285Y-55370028D02*
X162901428Y-55370028D01*
X161829999Y-55298600D02*
X161972856Y-55370028D01*
X161972856Y-55370028D02*
X162258571Y-55370028D01*
X162258571Y-55370028D02*
X162401428Y-55298600D01*
X162401428Y-55298600D02*
X162472856Y-55155742D01*
X162472856Y-55155742D02*
X162472856Y-54584314D01*
X162472856Y-54584314D02*
X162401428Y-54441457D01*
X162401428Y-54441457D02*
X162258571Y-54370028D01*
X162258571Y-54370028D02*
X161972856Y-54370028D01*
X161972856Y-54370028D02*
X161829999Y-54441457D01*
X161829999Y-54441457D02*
X161758571Y-54584314D01*
X161758571Y-54584314D02*
X161758571Y-54727171D01*
X161758571Y-54727171D02*
X162472856Y-54870028D01*
X161115714Y-55370028D02*
X161115714Y-54370028D01*
X161115714Y-54655742D02*
X161044285Y-54512885D01*
X161044285Y-54512885D02*
X160972857Y-54441457D01*
X160972857Y-54441457D02*
X160829999Y-54370028D01*
X160829999Y-54370028D02*
X160687142Y-54370028D01*
X160115714Y-55298600D02*
X160115714Y-55370028D01*
X160115714Y-55370028D02*
X160187143Y-55512885D01*
X160187143Y-55512885D02*
X160258571Y-55584314D01*
X157472857Y-55370028D02*
X157972857Y-54655742D01*
X158330000Y-55370028D02*
X158330000Y-53870028D01*
X158330000Y-53870028D02*
X157758571Y-53870028D01*
X157758571Y-53870028D02*
X157615714Y-53941457D01*
X157615714Y-53941457D02*
X157544285Y-54012885D01*
X157544285Y-54012885D02*
X157472857Y-54155742D01*
X157472857Y-54155742D02*
X157472857Y-54370028D01*
X157472857Y-54370028D02*
X157544285Y-54512885D01*
X157544285Y-54512885D02*
X157615714Y-54584314D01*
X157615714Y-54584314D02*
X157758571Y-54655742D01*
X157758571Y-54655742D02*
X158330000Y-54655742D01*
X156258571Y-55298600D02*
X156401428Y-55370028D01*
X156401428Y-55370028D02*
X156687143Y-55370028D01*
X156687143Y-55370028D02*
X156830000Y-55298600D01*
X156830000Y-55298600D02*
X156901428Y-55155742D01*
X156901428Y-55155742D02*
X156901428Y-54584314D01*
X156901428Y-54584314D02*
X156830000Y-54441457D01*
X156830000Y-54441457D02*
X156687143Y-54370028D01*
X156687143Y-54370028D02*
X156401428Y-54370028D01*
X156401428Y-54370028D02*
X156258571Y-54441457D01*
X156258571Y-54441457D02*
X156187143Y-54584314D01*
X156187143Y-54584314D02*
X156187143Y-54727171D01*
X156187143Y-54727171D02*
X156901428Y-54870028D01*
X155687143Y-54370028D02*
X155330000Y-55370028D01*
X155330000Y-55370028D02*
X154972857Y-54370028D01*
X152472857Y-55370028D02*
X153330000Y-55370028D01*
X152901429Y-55370028D02*
X152901429Y-53870028D01*
X152901429Y-53870028D02*
X153044286Y-54084314D01*
X153044286Y-54084314D02*
X153187143Y-54227171D01*
X153187143Y-54227171D02*
X153330000Y-54298600D01*
X151830001Y-55227171D02*
X151758572Y-55298600D01*
X151758572Y-55298600D02*
X151830001Y-55370028D01*
X151830001Y-55370028D02*
X151901429Y-55298600D01*
X151901429Y-55298600D02*
X151830001Y-55227171D01*
X151830001Y-55227171D02*
X151830001Y-55370028D01*
X150830000Y-53870028D02*
X150687143Y-53870028D01*
X150687143Y-53870028D02*
X150544286Y-53941457D01*
X150544286Y-53941457D02*
X150472858Y-54012885D01*
X150472858Y-54012885D02*
X150401429Y-54155742D01*
X150401429Y-54155742D02*
X150330000Y-54441457D01*
X150330000Y-54441457D02*
X150330000Y-54798600D01*
X150330000Y-54798600D02*
X150401429Y-55084314D01*
X150401429Y-55084314D02*
X150472858Y-55227171D01*
X150472858Y-55227171D02*
X150544286Y-55298600D01*
X150544286Y-55298600D02*
X150687143Y-55370028D01*
X150687143Y-55370028D02*
X150830000Y-55370028D01*
X150830000Y-55370028D02*
X150972858Y-55298600D01*
X150972858Y-55298600D02*
X151044286Y-55227171D01*
X151044286Y-55227171D02*
X151115715Y-55084314D01*
X151115715Y-55084314D02*
X151187143Y-54798600D01*
X151187143Y-54798600D02*
X151187143Y-54441457D01*
X151187143Y-54441457D02*
X151115715Y-54155742D01*
X151115715Y-54155742D02*
X151044286Y-54012885D01*
X151044286Y-54012885D02*
X150972858Y-53941457D01*
X150972858Y-53941457D02*
X150830000Y-53870028D01*
X177508571Y-57785028D02*
X177508571Y-56285028D01*
X177508571Y-56285028D02*
X177008571Y-57356457D01*
X177008571Y-57356457D02*
X176508571Y-56285028D01*
X176508571Y-56285028D02*
X176508571Y-57785028D01*
X175151428Y-57785028D02*
X175151428Y-56999314D01*
X175151428Y-56999314D02*
X175222856Y-56856457D01*
X175222856Y-56856457D02*
X175365713Y-56785028D01*
X175365713Y-56785028D02*
X175651428Y-56785028D01*
X175651428Y-56785028D02*
X175794285Y-56856457D01*
X175151428Y-57713600D02*
X175294285Y-57785028D01*
X175294285Y-57785028D02*
X175651428Y-57785028D01*
X175651428Y-57785028D02*
X175794285Y-57713600D01*
X175794285Y-57713600D02*
X175865713Y-57570742D01*
X175865713Y-57570742D02*
X175865713Y-57427885D01*
X175865713Y-57427885D02*
X175794285Y-57285028D01*
X175794285Y-57285028D02*
X175651428Y-57213600D01*
X175651428Y-57213600D02*
X175294285Y-57213600D01*
X175294285Y-57213600D02*
X175151428Y-57142171D01*
X174437142Y-57785028D02*
X174437142Y-56785028D01*
X174437142Y-57070742D02*
X174365713Y-56927885D01*
X174365713Y-56927885D02*
X174294285Y-56856457D01*
X174294285Y-56856457D02*
X174151427Y-56785028D01*
X174151427Y-56785028D02*
X174008570Y-56785028D01*
X173579999Y-57713600D02*
X173437142Y-57785028D01*
X173437142Y-57785028D02*
X173151428Y-57785028D01*
X173151428Y-57785028D02*
X173008571Y-57713600D01*
X173008571Y-57713600D02*
X172937142Y-57570742D01*
X172937142Y-57570742D02*
X172937142Y-57499314D01*
X172937142Y-57499314D02*
X173008571Y-57356457D01*
X173008571Y-57356457D02*
X173151428Y-57285028D01*
X173151428Y-57285028D02*
X173365714Y-57285028D01*
X173365714Y-57285028D02*
X173508571Y-57213600D01*
X173508571Y-57213600D02*
X173579999Y-57070742D01*
X173579999Y-57070742D02*
X173579999Y-56999314D01*
X173579999Y-56999314D02*
X173508571Y-56856457D01*
X173508571Y-56856457D02*
X173365714Y-56785028D01*
X173365714Y-56785028D02*
X173151428Y-56785028D01*
X173151428Y-56785028D02*
X173008571Y-56856457D01*
X170294285Y-57785028D02*
X170794285Y-57070742D01*
X171151428Y-57785028D02*
X171151428Y-56285028D01*
X171151428Y-56285028D02*
X170579999Y-56285028D01*
X170579999Y-56285028D02*
X170437142Y-56356457D01*
X170437142Y-56356457D02*
X170365713Y-56427885D01*
X170365713Y-56427885D02*
X170294285Y-56570742D01*
X170294285Y-56570742D02*
X170294285Y-56785028D01*
X170294285Y-56785028D02*
X170365713Y-56927885D01*
X170365713Y-56927885D02*
X170437142Y-56999314D01*
X170437142Y-56999314D02*
X170579999Y-57070742D01*
X170579999Y-57070742D02*
X171151428Y-57070742D01*
X169437142Y-57785028D02*
X169579999Y-57713600D01*
X169579999Y-57713600D02*
X169651428Y-57642171D01*
X169651428Y-57642171D02*
X169722856Y-57499314D01*
X169722856Y-57499314D02*
X169722856Y-57070742D01*
X169722856Y-57070742D02*
X169651428Y-56927885D01*
X169651428Y-56927885D02*
X169579999Y-56856457D01*
X169579999Y-56856457D02*
X169437142Y-56785028D01*
X169437142Y-56785028D02*
X169222856Y-56785028D01*
X169222856Y-56785028D02*
X169079999Y-56856457D01*
X169079999Y-56856457D02*
X169008571Y-56927885D01*
X169008571Y-56927885D02*
X168937142Y-57070742D01*
X168937142Y-57070742D02*
X168937142Y-57499314D01*
X168937142Y-57499314D02*
X169008571Y-57642171D01*
X169008571Y-57642171D02*
X169079999Y-57713600D01*
X169079999Y-57713600D02*
X169222856Y-57785028D01*
X169222856Y-57785028D02*
X169437142Y-57785028D01*
X168437142Y-56785028D02*
X168079999Y-57785028D01*
X168079999Y-57785028D02*
X167722856Y-56785028D01*
X166579999Y-57713600D02*
X166722856Y-57785028D01*
X166722856Y-57785028D02*
X167008571Y-57785028D01*
X167008571Y-57785028D02*
X167151428Y-57713600D01*
X167151428Y-57713600D02*
X167222856Y-57570742D01*
X167222856Y-57570742D02*
X167222856Y-56999314D01*
X167222856Y-56999314D02*
X167151428Y-56856457D01*
X167151428Y-56856457D02*
X167008571Y-56785028D01*
X167008571Y-56785028D02*
X166722856Y-56785028D01*
X166722856Y-56785028D02*
X166579999Y-56856457D01*
X166579999Y-56856457D02*
X166508571Y-56999314D01*
X166508571Y-56999314D02*
X166508571Y-57142171D01*
X166508571Y-57142171D02*
X167222856Y-57285028D01*
X165865714Y-57785028D02*
X165865714Y-56785028D01*
X165865714Y-57070742D02*
X165794285Y-56927885D01*
X165794285Y-56927885D02*
X165722857Y-56856457D01*
X165722857Y-56856457D02*
X165579999Y-56785028D01*
X165579999Y-56785028D02*
X165437142Y-56785028D01*
X163794286Y-57785028D02*
X163794286Y-56285028D01*
X163794286Y-56285028D02*
X163437143Y-56285028D01*
X163437143Y-56285028D02*
X163222857Y-56356457D01*
X163222857Y-56356457D02*
X163080000Y-56499314D01*
X163080000Y-56499314D02*
X163008571Y-56642171D01*
X163008571Y-56642171D02*
X162937143Y-56927885D01*
X162937143Y-56927885D02*
X162937143Y-57142171D01*
X162937143Y-57142171D02*
X163008571Y-57427885D01*
X163008571Y-57427885D02*
X163080000Y-57570742D01*
X163080000Y-57570742D02*
X163222857Y-57713600D01*
X163222857Y-57713600D02*
X163437143Y-57785028D01*
X163437143Y-57785028D02*
X163794286Y-57785028D01*
X161722857Y-57713600D02*
X161865714Y-57785028D01*
X161865714Y-57785028D02*
X162151429Y-57785028D01*
X162151429Y-57785028D02*
X162294286Y-57713600D01*
X162294286Y-57713600D02*
X162365714Y-57570742D01*
X162365714Y-57570742D02*
X162365714Y-56999314D01*
X162365714Y-56999314D02*
X162294286Y-56856457D01*
X162294286Y-56856457D02*
X162151429Y-56785028D01*
X162151429Y-56785028D02*
X161865714Y-56785028D01*
X161865714Y-56785028D02*
X161722857Y-56856457D01*
X161722857Y-56856457D02*
X161651429Y-56999314D01*
X161651429Y-56999314D02*
X161651429Y-57142171D01*
X161651429Y-57142171D02*
X162365714Y-57285028D01*
X161080000Y-57713600D02*
X160937143Y-57785028D01*
X160937143Y-57785028D02*
X160651429Y-57785028D01*
X160651429Y-57785028D02*
X160508572Y-57713600D01*
X160508572Y-57713600D02*
X160437143Y-57570742D01*
X160437143Y-57570742D02*
X160437143Y-57499314D01*
X160437143Y-57499314D02*
X160508572Y-57356457D01*
X160508572Y-57356457D02*
X160651429Y-57285028D01*
X160651429Y-57285028D02*
X160865715Y-57285028D01*
X160865715Y-57285028D02*
X161008572Y-57213600D01*
X161008572Y-57213600D02*
X161080000Y-57070742D01*
X161080000Y-57070742D02*
X161080000Y-56999314D01*
X161080000Y-56999314D02*
X161008572Y-56856457D01*
X161008572Y-56856457D02*
X160865715Y-56785028D01*
X160865715Y-56785028D02*
X160651429Y-56785028D01*
X160651429Y-56785028D02*
X160508572Y-56856457D01*
X159794286Y-57785028D02*
X159794286Y-56785028D01*
X159794286Y-56285028D02*
X159865714Y-56356457D01*
X159865714Y-56356457D02*
X159794286Y-56427885D01*
X159794286Y-56427885D02*
X159722857Y-56356457D01*
X159722857Y-56356457D02*
X159794286Y-56285028D01*
X159794286Y-56285028D02*
X159794286Y-56427885D01*
X158437143Y-56785028D02*
X158437143Y-57999314D01*
X158437143Y-57999314D02*
X158508571Y-58142171D01*
X158508571Y-58142171D02*
X158580000Y-58213600D01*
X158580000Y-58213600D02*
X158722857Y-58285028D01*
X158722857Y-58285028D02*
X158937143Y-58285028D01*
X158937143Y-58285028D02*
X159080000Y-58213600D01*
X158437143Y-57713600D02*
X158580000Y-57785028D01*
X158580000Y-57785028D02*
X158865714Y-57785028D01*
X158865714Y-57785028D02*
X159008571Y-57713600D01*
X159008571Y-57713600D02*
X159080000Y-57642171D01*
X159080000Y-57642171D02*
X159151428Y-57499314D01*
X159151428Y-57499314D02*
X159151428Y-57070742D01*
X159151428Y-57070742D02*
X159080000Y-56927885D01*
X159080000Y-56927885D02*
X159008571Y-56856457D01*
X159008571Y-56856457D02*
X158865714Y-56785028D01*
X158865714Y-56785028D02*
X158580000Y-56785028D01*
X158580000Y-56785028D02*
X158437143Y-56856457D01*
X157722857Y-56785028D02*
X157722857Y-57785028D01*
X157722857Y-56927885D02*
X157651428Y-56856457D01*
X157651428Y-56856457D02*
X157508571Y-56785028D01*
X157508571Y-56785028D02*
X157294285Y-56785028D01*
X157294285Y-56785028D02*
X157151428Y-56856457D01*
X157151428Y-56856457D02*
X157080000Y-56999314D01*
X157080000Y-56999314D02*
X157080000Y-57785028D01*
X155437142Y-56285028D02*
X154580000Y-56285028D01*
X155008571Y-57785028D02*
X155008571Y-56285028D01*
X153508571Y-57713600D02*
X153651428Y-57785028D01*
X153651428Y-57785028D02*
X153937143Y-57785028D01*
X153937143Y-57785028D02*
X154080000Y-57713600D01*
X154080000Y-57713600D02*
X154151428Y-57570742D01*
X154151428Y-57570742D02*
X154151428Y-56999314D01*
X154151428Y-56999314D02*
X154080000Y-56856457D01*
X154080000Y-56856457D02*
X153937143Y-56785028D01*
X153937143Y-56785028D02*
X153651428Y-56785028D01*
X153651428Y-56785028D02*
X153508571Y-56856457D01*
X153508571Y-56856457D02*
X153437143Y-56999314D01*
X153437143Y-56999314D02*
X153437143Y-57142171D01*
X153437143Y-57142171D02*
X154151428Y-57285028D01*
X152151429Y-57785028D02*
X152151429Y-56999314D01*
X152151429Y-56999314D02*
X152222857Y-56856457D01*
X152222857Y-56856457D02*
X152365714Y-56785028D01*
X152365714Y-56785028D02*
X152651429Y-56785028D01*
X152651429Y-56785028D02*
X152794286Y-56856457D01*
X152151429Y-57713600D02*
X152294286Y-57785028D01*
X152294286Y-57785028D02*
X152651429Y-57785028D01*
X152651429Y-57785028D02*
X152794286Y-57713600D01*
X152794286Y-57713600D02*
X152865714Y-57570742D01*
X152865714Y-57570742D02*
X152865714Y-57427885D01*
X152865714Y-57427885D02*
X152794286Y-57285028D01*
X152794286Y-57285028D02*
X152651429Y-57213600D01*
X152651429Y-57213600D02*
X152294286Y-57213600D01*
X152294286Y-57213600D02*
X152151429Y-57142171D01*
X151437143Y-57785028D02*
X151437143Y-56785028D01*
X151437143Y-56927885D02*
X151365714Y-56856457D01*
X151365714Y-56856457D02*
X151222857Y-56785028D01*
X151222857Y-56785028D02*
X151008571Y-56785028D01*
X151008571Y-56785028D02*
X150865714Y-56856457D01*
X150865714Y-56856457D02*
X150794286Y-56999314D01*
X150794286Y-56999314D02*
X150794286Y-57785028D01*
X150794286Y-56999314D02*
X150722857Y-56856457D01*
X150722857Y-56856457D02*
X150580000Y-56785028D01*
X150580000Y-56785028D02*
X150365714Y-56785028D01*
X150365714Y-56785028D02*
X150222857Y-56856457D01*
X150222857Y-56856457D02*
X150151428Y-56999314D01*
X150151428Y-56999314D02*
X150151428Y-57785028D01*
X174651428Y-60200028D02*
X174651428Y-58700028D01*
X174651428Y-58700028D02*
X174151428Y-59771457D01*
X174151428Y-59771457D02*
X173651428Y-58700028D01*
X173651428Y-58700028D02*
X173651428Y-60200028D01*
X172937142Y-60200028D02*
X172937142Y-59200028D01*
X172937142Y-58700028D02*
X173008570Y-58771457D01*
X173008570Y-58771457D02*
X172937142Y-58842885D01*
X172937142Y-58842885D02*
X172865713Y-58771457D01*
X172865713Y-58771457D02*
X172937142Y-58700028D01*
X172937142Y-58700028D02*
X172937142Y-58842885D01*
X172294284Y-60128600D02*
X172151427Y-60200028D01*
X172151427Y-60200028D02*
X171865713Y-60200028D01*
X171865713Y-60200028D02*
X171722856Y-60128600D01*
X171722856Y-60128600D02*
X171651427Y-59985742D01*
X171651427Y-59985742D02*
X171651427Y-59914314D01*
X171651427Y-59914314D02*
X171722856Y-59771457D01*
X171722856Y-59771457D02*
X171865713Y-59700028D01*
X171865713Y-59700028D02*
X172079999Y-59700028D01*
X172079999Y-59700028D02*
X172222856Y-59628600D01*
X172222856Y-59628600D02*
X172294284Y-59485742D01*
X172294284Y-59485742D02*
X172294284Y-59414314D01*
X172294284Y-59414314D02*
X172222856Y-59271457D01*
X172222856Y-59271457D02*
X172079999Y-59200028D01*
X172079999Y-59200028D02*
X171865713Y-59200028D01*
X171865713Y-59200028D02*
X171722856Y-59271457D01*
X171079998Y-60128600D02*
X170937141Y-60200028D01*
X170937141Y-60200028D02*
X170651427Y-60200028D01*
X170651427Y-60200028D02*
X170508570Y-60128600D01*
X170508570Y-60128600D02*
X170437141Y-59985742D01*
X170437141Y-59985742D02*
X170437141Y-59914314D01*
X170437141Y-59914314D02*
X170508570Y-59771457D01*
X170508570Y-59771457D02*
X170651427Y-59700028D01*
X170651427Y-59700028D02*
X170865713Y-59700028D01*
X170865713Y-59700028D02*
X171008570Y-59628600D01*
X171008570Y-59628600D02*
X171079998Y-59485742D01*
X171079998Y-59485742D02*
X171079998Y-59414314D01*
X171079998Y-59414314D02*
X171008570Y-59271457D01*
X171008570Y-59271457D02*
X170865713Y-59200028D01*
X170865713Y-59200028D02*
X170651427Y-59200028D01*
X170651427Y-59200028D02*
X170508570Y-59271457D01*
X169579998Y-60200028D02*
X169722855Y-60128600D01*
X169722855Y-60128600D02*
X169794284Y-60057171D01*
X169794284Y-60057171D02*
X169865712Y-59914314D01*
X169865712Y-59914314D02*
X169865712Y-59485742D01*
X169865712Y-59485742D02*
X169794284Y-59342885D01*
X169794284Y-59342885D02*
X169722855Y-59271457D01*
X169722855Y-59271457D02*
X169579998Y-59200028D01*
X169579998Y-59200028D02*
X169365712Y-59200028D01*
X169365712Y-59200028D02*
X169222855Y-59271457D01*
X169222855Y-59271457D02*
X169151427Y-59342885D01*
X169151427Y-59342885D02*
X169079998Y-59485742D01*
X169079998Y-59485742D02*
X169079998Y-59914314D01*
X169079998Y-59914314D02*
X169151427Y-60057171D01*
X169151427Y-60057171D02*
X169222855Y-60128600D01*
X169222855Y-60128600D02*
X169365712Y-60200028D01*
X169365712Y-60200028D02*
X169579998Y-60200028D01*
X167794284Y-59200028D02*
X167794284Y-60200028D01*
X168437141Y-59200028D02*
X168437141Y-59985742D01*
X168437141Y-59985742D02*
X168365712Y-60128600D01*
X168365712Y-60128600D02*
X168222855Y-60200028D01*
X168222855Y-60200028D02*
X168008569Y-60200028D01*
X168008569Y-60200028D02*
X167865712Y-60128600D01*
X167865712Y-60128600D02*
X167794284Y-60057171D01*
X167079998Y-60200028D02*
X167079998Y-59200028D01*
X167079998Y-59485742D02*
X167008569Y-59342885D01*
X167008569Y-59342885D02*
X166937141Y-59271457D01*
X166937141Y-59271457D02*
X166794283Y-59200028D01*
X166794283Y-59200028D02*
X166651426Y-59200028D01*
X166151427Y-60200028D02*
X166151427Y-59200028D01*
X166151427Y-58700028D02*
X166222855Y-58771457D01*
X166222855Y-58771457D02*
X166151427Y-58842885D01*
X166151427Y-58842885D02*
X166079998Y-58771457D01*
X166079998Y-58771457D02*
X166151427Y-58700028D01*
X166151427Y-58700028D02*
X166151427Y-58842885D01*
X164365712Y-60128600D02*
X164151427Y-60200028D01*
X164151427Y-60200028D02*
X163794284Y-60200028D01*
X163794284Y-60200028D02*
X163651427Y-60128600D01*
X163651427Y-60128600D02*
X163579998Y-60057171D01*
X163579998Y-60057171D02*
X163508569Y-59914314D01*
X163508569Y-59914314D02*
X163508569Y-59771457D01*
X163508569Y-59771457D02*
X163579998Y-59628600D01*
X163579998Y-59628600D02*
X163651427Y-59557171D01*
X163651427Y-59557171D02*
X163794284Y-59485742D01*
X163794284Y-59485742D02*
X164079998Y-59414314D01*
X164079998Y-59414314D02*
X164222855Y-59342885D01*
X164222855Y-59342885D02*
X164294284Y-59271457D01*
X164294284Y-59271457D02*
X164365712Y-59128600D01*
X164365712Y-59128600D02*
X164365712Y-58985742D01*
X164365712Y-58985742D02*
X164294284Y-58842885D01*
X164294284Y-58842885D02*
X164222855Y-58771457D01*
X164222855Y-58771457D02*
X164079998Y-58700028D01*
X164079998Y-58700028D02*
X163722855Y-58700028D01*
X163722855Y-58700028D02*
X163508569Y-58771457D01*
X161651427Y-60200028D02*
X161722856Y-60200028D01*
X161722856Y-60200028D02*
X161865713Y-60128600D01*
X161865713Y-60128600D02*
X162079998Y-59914314D01*
X162079998Y-59914314D02*
X162437141Y-59485742D01*
X162437141Y-59485742D02*
X162579998Y-59271457D01*
X162579998Y-59271457D02*
X162651427Y-59057171D01*
X162651427Y-59057171D02*
X162651427Y-58914314D01*
X162651427Y-58914314D02*
X162579998Y-58771457D01*
X162579998Y-58771457D02*
X162437141Y-58700028D01*
X162437141Y-58700028D02*
X162365713Y-58700028D01*
X162365713Y-58700028D02*
X162222856Y-58771457D01*
X162222856Y-58771457D02*
X162151427Y-58914314D01*
X162151427Y-58914314D02*
X162151427Y-58985742D01*
X162151427Y-58985742D02*
X162222856Y-59128600D01*
X162222856Y-59128600D02*
X162294284Y-59200028D01*
X162294284Y-59200028D02*
X162722856Y-59485742D01*
X162722856Y-59485742D02*
X162794284Y-59557171D01*
X162794284Y-59557171D02*
X162865713Y-59700028D01*
X162865713Y-59700028D02*
X162865713Y-59914314D01*
X162865713Y-59914314D02*
X162794284Y-60057171D01*
X162794284Y-60057171D02*
X162722856Y-60128600D01*
X162722856Y-60128600D02*
X162579998Y-60200028D01*
X162579998Y-60200028D02*
X162365713Y-60200028D01*
X162365713Y-60200028D02*
X162222856Y-60128600D01*
X162222856Y-60128600D02*
X162151427Y-60057171D01*
X162151427Y-60057171D02*
X161937141Y-59771457D01*
X161937141Y-59771457D02*
X161865713Y-59557171D01*
X161865713Y-59557171D02*
X161865713Y-59414314D01*
X161222855Y-58700028D02*
X160365713Y-58700028D01*
X160794284Y-60200028D02*
X160794284Y-58700028D01*
X159794284Y-60128600D02*
X159794284Y-60200028D01*
X159794284Y-60200028D02*
X159865713Y-60342885D01*
X159865713Y-60342885D02*
X159937141Y-60414314D01*
X158079998Y-58842885D02*
X158008570Y-58771457D01*
X158008570Y-58771457D02*
X157865713Y-58700028D01*
X157865713Y-58700028D02*
X157508570Y-58700028D01*
X157508570Y-58700028D02*
X157365713Y-58771457D01*
X157365713Y-58771457D02*
X157294284Y-58842885D01*
X157294284Y-58842885D02*
X157222855Y-58985742D01*
X157222855Y-58985742D02*
X157222855Y-59128600D01*
X157222855Y-59128600D02*
X157294284Y-59342885D01*
X157294284Y-59342885D02*
X158151427Y-60200028D01*
X158151427Y-60200028D02*
X157222855Y-60200028D01*
X156294284Y-58700028D02*
X156151427Y-58700028D01*
X156151427Y-58700028D02*
X156008570Y-58771457D01*
X156008570Y-58771457D02*
X155937142Y-58842885D01*
X155937142Y-58842885D02*
X155865713Y-58985742D01*
X155865713Y-58985742D02*
X155794284Y-59271457D01*
X155794284Y-59271457D02*
X155794284Y-59628600D01*
X155794284Y-59628600D02*
X155865713Y-59914314D01*
X155865713Y-59914314D02*
X155937142Y-60057171D01*
X155937142Y-60057171D02*
X156008570Y-60128600D01*
X156008570Y-60128600D02*
X156151427Y-60200028D01*
X156151427Y-60200028D02*
X156294284Y-60200028D01*
X156294284Y-60200028D02*
X156437142Y-60128600D01*
X156437142Y-60128600D02*
X156508570Y-60057171D01*
X156508570Y-60057171D02*
X156579999Y-59914314D01*
X156579999Y-59914314D02*
X156651427Y-59628600D01*
X156651427Y-59628600D02*
X156651427Y-59271457D01*
X156651427Y-59271457D02*
X156579999Y-58985742D01*
X156579999Y-58985742D02*
X156508570Y-58842885D01*
X156508570Y-58842885D02*
X156437142Y-58771457D01*
X156437142Y-58771457D02*
X156294284Y-58700028D01*
X155222856Y-58842885D02*
X155151428Y-58771457D01*
X155151428Y-58771457D02*
X155008571Y-58700028D01*
X155008571Y-58700028D02*
X154651428Y-58700028D01*
X154651428Y-58700028D02*
X154508571Y-58771457D01*
X154508571Y-58771457D02*
X154437142Y-58842885D01*
X154437142Y-58842885D02*
X154365713Y-58985742D01*
X154365713Y-58985742D02*
X154365713Y-59128600D01*
X154365713Y-59128600D02*
X154437142Y-59342885D01*
X154437142Y-59342885D02*
X155294285Y-60200028D01*
X155294285Y-60200028D02*
X154365713Y-60200028D01*
X153080000Y-59200028D02*
X153080000Y-60200028D01*
X153437142Y-58628600D02*
X153794285Y-59700028D01*
X153794285Y-59700028D02*
X152865714Y-59700028D01*
X178794284Y-62543600D02*
X178579999Y-62615028D01*
X178579999Y-62615028D02*
X178222856Y-62615028D01*
X178222856Y-62615028D02*
X178079999Y-62543600D01*
X178079999Y-62543600D02*
X178008570Y-62472171D01*
X178008570Y-62472171D02*
X177937141Y-62329314D01*
X177937141Y-62329314D02*
X177937141Y-62186457D01*
X177937141Y-62186457D02*
X178008570Y-62043600D01*
X178008570Y-62043600D02*
X178079999Y-61972171D01*
X178079999Y-61972171D02*
X178222856Y-61900742D01*
X178222856Y-61900742D02*
X178508570Y-61829314D01*
X178508570Y-61829314D02*
X178651427Y-61757885D01*
X178651427Y-61757885D02*
X178722856Y-61686457D01*
X178722856Y-61686457D02*
X178794284Y-61543600D01*
X178794284Y-61543600D02*
X178794284Y-61400742D01*
X178794284Y-61400742D02*
X178722856Y-61257885D01*
X178722856Y-61257885D02*
X178651427Y-61186457D01*
X178651427Y-61186457D02*
X178508570Y-61115028D01*
X178508570Y-61115028D02*
X178151427Y-61115028D01*
X178151427Y-61115028D02*
X177937141Y-61186457D01*
X176722856Y-62543600D02*
X176865713Y-62615028D01*
X176865713Y-62615028D02*
X177151428Y-62615028D01*
X177151428Y-62615028D02*
X177294285Y-62543600D01*
X177294285Y-62543600D02*
X177365713Y-62400742D01*
X177365713Y-62400742D02*
X177365713Y-61829314D01*
X177365713Y-61829314D02*
X177294285Y-61686457D01*
X177294285Y-61686457D02*
X177151428Y-61615028D01*
X177151428Y-61615028D02*
X176865713Y-61615028D01*
X176865713Y-61615028D02*
X176722856Y-61686457D01*
X176722856Y-61686457D02*
X176651428Y-61829314D01*
X176651428Y-61829314D02*
X176651428Y-61972171D01*
X176651428Y-61972171D02*
X177365713Y-62115028D01*
X175365714Y-62615028D02*
X175365714Y-61829314D01*
X175365714Y-61829314D02*
X175437142Y-61686457D01*
X175437142Y-61686457D02*
X175579999Y-61615028D01*
X175579999Y-61615028D02*
X175865714Y-61615028D01*
X175865714Y-61615028D02*
X176008571Y-61686457D01*
X175365714Y-62543600D02*
X175508571Y-62615028D01*
X175508571Y-62615028D02*
X175865714Y-62615028D01*
X175865714Y-62615028D02*
X176008571Y-62543600D01*
X176008571Y-62543600D02*
X176079999Y-62400742D01*
X176079999Y-62400742D02*
X176079999Y-62257885D01*
X176079999Y-62257885D02*
X176008571Y-62115028D01*
X176008571Y-62115028D02*
X175865714Y-62043600D01*
X175865714Y-62043600D02*
X175508571Y-62043600D01*
X175508571Y-62043600D02*
X175365714Y-61972171D01*
X174651428Y-61615028D02*
X174651428Y-62615028D01*
X174651428Y-61757885D02*
X174579999Y-61686457D01*
X174579999Y-61686457D02*
X174437142Y-61615028D01*
X174437142Y-61615028D02*
X174222856Y-61615028D01*
X174222856Y-61615028D02*
X174079999Y-61686457D01*
X174079999Y-61686457D02*
X174008571Y-61829314D01*
X174008571Y-61829314D02*
X174008571Y-62615028D01*
X172151428Y-62615028D02*
X172151428Y-61115028D01*
X172151428Y-61115028D02*
X171794285Y-61115028D01*
X171794285Y-61115028D02*
X171579999Y-61186457D01*
X171579999Y-61186457D02*
X171437142Y-61329314D01*
X171437142Y-61329314D02*
X171365713Y-61472171D01*
X171365713Y-61472171D02*
X171294285Y-61757885D01*
X171294285Y-61757885D02*
X171294285Y-61972171D01*
X171294285Y-61972171D02*
X171365713Y-62257885D01*
X171365713Y-62257885D02*
X171437142Y-62400742D01*
X171437142Y-62400742D02*
X171579999Y-62543600D01*
X171579999Y-62543600D02*
X171794285Y-62615028D01*
X171794285Y-62615028D02*
X172151428Y-62615028D01*
X170008571Y-61615028D02*
X170008571Y-62615028D01*
X170651428Y-61615028D02*
X170651428Y-62400742D01*
X170651428Y-62400742D02*
X170579999Y-62543600D01*
X170579999Y-62543600D02*
X170437142Y-62615028D01*
X170437142Y-62615028D02*
X170222856Y-62615028D01*
X170222856Y-62615028D02*
X170079999Y-62543600D01*
X170079999Y-62543600D02*
X170008571Y-62472171D01*
X168651428Y-62615028D02*
X168651428Y-61115028D01*
X168651428Y-62543600D02*
X168794285Y-62615028D01*
X168794285Y-62615028D02*
X169079999Y-62615028D01*
X169079999Y-62615028D02*
X169222856Y-62543600D01*
X169222856Y-62543600D02*
X169294285Y-62472171D01*
X169294285Y-62472171D02*
X169365713Y-62329314D01*
X169365713Y-62329314D02*
X169365713Y-61900742D01*
X169365713Y-61900742D02*
X169294285Y-61757885D01*
X169294285Y-61757885D02*
X169222856Y-61686457D01*
X169222856Y-61686457D02*
X169079999Y-61615028D01*
X169079999Y-61615028D02*
X168794285Y-61615028D01*
X168794285Y-61615028D02*
X168651428Y-61686457D01*
X167294285Y-62615028D02*
X167294285Y-61829314D01*
X167294285Y-61829314D02*
X167365713Y-61686457D01*
X167365713Y-61686457D02*
X167508570Y-61615028D01*
X167508570Y-61615028D02*
X167794285Y-61615028D01*
X167794285Y-61615028D02*
X167937142Y-61686457D01*
X167294285Y-62543600D02*
X167437142Y-62615028D01*
X167437142Y-62615028D02*
X167794285Y-62615028D01*
X167794285Y-62615028D02*
X167937142Y-62543600D01*
X167937142Y-62543600D02*
X168008570Y-62400742D01*
X168008570Y-62400742D02*
X168008570Y-62257885D01*
X168008570Y-62257885D02*
X167937142Y-62115028D01*
X167937142Y-62115028D02*
X167794285Y-62043600D01*
X167794285Y-62043600D02*
X167437142Y-62043600D01*
X167437142Y-62043600D02*
X167294285Y-61972171D01*
X166508570Y-62543600D02*
X166508570Y-62615028D01*
X166508570Y-62615028D02*
X166579999Y-62757885D01*
X166579999Y-62757885D02*
X166651427Y-62829314D01*
X164937141Y-61115028D02*
X164079999Y-61115028D01*
X164508570Y-62615028D02*
X164508570Y-61115028D01*
X163365713Y-62615028D02*
X163508570Y-62543600D01*
X163508570Y-62543600D02*
X163579999Y-62472171D01*
X163579999Y-62472171D02*
X163651427Y-62329314D01*
X163651427Y-62329314D02*
X163651427Y-61900742D01*
X163651427Y-61900742D02*
X163579999Y-61757885D01*
X163579999Y-61757885D02*
X163508570Y-61686457D01*
X163508570Y-61686457D02*
X163365713Y-61615028D01*
X163365713Y-61615028D02*
X163151427Y-61615028D01*
X163151427Y-61615028D02*
X163008570Y-61686457D01*
X163008570Y-61686457D02*
X162937142Y-61757885D01*
X162937142Y-61757885D02*
X162865713Y-61900742D01*
X162865713Y-61900742D02*
X162865713Y-62329314D01*
X162865713Y-62329314D02*
X162937142Y-62472171D01*
X162937142Y-62472171D02*
X163008570Y-62543600D01*
X163008570Y-62543600D02*
X163151427Y-62615028D01*
X163151427Y-62615028D02*
X163365713Y-62615028D01*
X162222856Y-62615028D02*
X162222856Y-61115028D01*
X162222856Y-61686457D02*
X162079999Y-61615028D01*
X162079999Y-61615028D02*
X161794284Y-61615028D01*
X161794284Y-61615028D02*
X161651427Y-61686457D01*
X161651427Y-61686457D02*
X161579999Y-61757885D01*
X161579999Y-61757885D02*
X161508570Y-61900742D01*
X161508570Y-61900742D02*
X161508570Y-62329314D01*
X161508570Y-62329314D02*
X161579999Y-62472171D01*
X161579999Y-62472171D02*
X161651427Y-62543600D01*
X161651427Y-62543600D02*
X161794284Y-62615028D01*
X161794284Y-62615028D02*
X162079999Y-62615028D01*
X162079999Y-62615028D02*
X162222856Y-62543600D01*
X160294284Y-62543600D02*
X160437141Y-62615028D01*
X160437141Y-62615028D02*
X160722856Y-62615028D01*
X160722856Y-62615028D02*
X160865713Y-62543600D01*
X160865713Y-62543600D02*
X160937141Y-62400742D01*
X160937141Y-62400742D02*
X160937141Y-61829314D01*
X160937141Y-61829314D02*
X160865713Y-61686457D01*
X160865713Y-61686457D02*
X160722856Y-61615028D01*
X160722856Y-61615028D02*
X160437141Y-61615028D01*
X160437141Y-61615028D02*
X160294284Y-61686457D01*
X160294284Y-61686457D02*
X160222856Y-61829314D01*
X160222856Y-61829314D02*
X160222856Y-61972171D01*
X160222856Y-61972171D02*
X160937141Y-62115028D01*
X159722856Y-61615028D02*
X159365713Y-62615028D01*
X159008570Y-61615028D02*
X159365713Y-62615028D01*
X159365713Y-62615028D02*
X159508570Y-62972171D01*
X159508570Y-62972171D02*
X159579999Y-63043600D01*
X159579999Y-63043600D02*
X159722856Y-63115028D01*
X157365713Y-62543600D02*
X157151428Y-62615028D01*
X157151428Y-62615028D02*
X156794285Y-62615028D01*
X156794285Y-62615028D02*
X156651428Y-62543600D01*
X156651428Y-62543600D02*
X156579999Y-62472171D01*
X156579999Y-62472171D02*
X156508570Y-62329314D01*
X156508570Y-62329314D02*
X156508570Y-62186457D01*
X156508570Y-62186457D02*
X156579999Y-62043600D01*
X156579999Y-62043600D02*
X156651428Y-61972171D01*
X156651428Y-61972171D02*
X156794285Y-61900742D01*
X156794285Y-61900742D02*
X157079999Y-61829314D01*
X157079999Y-61829314D02*
X157222856Y-61757885D01*
X157222856Y-61757885D02*
X157294285Y-61686457D01*
X157294285Y-61686457D02*
X157365713Y-61543600D01*
X157365713Y-61543600D02*
X157365713Y-61400742D01*
X157365713Y-61400742D02*
X157294285Y-61257885D01*
X157294285Y-61257885D02*
X157222856Y-61186457D01*
X157222856Y-61186457D02*
X157079999Y-61115028D01*
X157079999Y-61115028D02*
X156722856Y-61115028D01*
X156722856Y-61115028D02*
X156508570Y-61186457D01*
X155222857Y-61615028D02*
X155222857Y-62615028D01*
X155865714Y-61615028D02*
X155865714Y-62400742D01*
X155865714Y-62400742D02*
X155794285Y-62543600D01*
X155794285Y-62543600D02*
X155651428Y-62615028D01*
X155651428Y-62615028D02*
X155437142Y-62615028D01*
X155437142Y-62615028D02*
X155294285Y-62543600D01*
X155294285Y-62543600D02*
X155222857Y-62472171D01*
X154722856Y-61615028D02*
X154151428Y-61615028D01*
X154508571Y-61115028D02*
X154508571Y-62400742D01*
X154508571Y-62400742D02*
X154437142Y-62543600D01*
X154437142Y-62543600D02*
X154294285Y-62615028D01*
X154294285Y-62615028D02*
X154151428Y-62615028D01*
X153079999Y-62543600D02*
X153222856Y-62615028D01*
X153222856Y-62615028D02*
X153508571Y-62615028D01*
X153508571Y-62615028D02*
X153651428Y-62543600D01*
X153651428Y-62543600D02*
X153722856Y-62400742D01*
X153722856Y-62400742D02*
X153722856Y-61829314D01*
X153722856Y-61829314D02*
X153651428Y-61686457D01*
X153651428Y-61686457D02*
X153508571Y-61615028D01*
X153508571Y-61615028D02*
X153222856Y-61615028D01*
X153222856Y-61615028D02*
X153079999Y-61686457D01*
X153079999Y-61686457D02*
X153008571Y-61829314D01*
X153008571Y-61829314D02*
X153008571Y-61972171D01*
X153008571Y-61972171D02*
X153722856Y-62115028D01*
X152365714Y-62615028D02*
X152365714Y-61615028D01*
X152365714Y-61900742D02*
X152294285Y-61757885D01*
X152294285Y-61757885D02*
X152222857Y-61686457D01*
X152222857Y-61686457D02*
X152079999Y-61615028D01*
X152079999Y-61615028D02*
X151937142Y-61615028D01*
X149865714Y-61115028D02*
X149865714Y-62186457D01*
X149865714Y-62186457D02*
X149937143Y-62400742D01*
X149937143Y-62400742D02*
X150080000Y-62543600D01*
X150080000Y-62543600D02*
X150294286Y-62615028D01*
X150294286Y-62615028D02*
X150437143Y-62615028D01*
X149151429Y-62615028D02*
X149151429Y-61615028D01*
X149151429Y-61900742D02*
X149080000Y-61757885D01*
X149080000Y-61757885D02*
X149008572Y-61686457D01*
X149008572Y-61686457D02*
X148865714Y-61615028D01*
X148865714Y-61615028D02*
X148722857Y-61615028D01*
D11*
X161112634Y-47003569D02*
X161112634Y-47813092D01*
X161112634Y-47813092D02*
X161065015Y-47908330D01*
X161065015Y-47908330D02*
X161017396Y-47955950D01*
X161017396Y-47955950D02*
X160922158Y-48003569D01*
X160922158Y-48003569D02*
X160731682Y-48003569D01*
X160731682Y-48003569D02*
X160636444Y-47955950D01*
X160636444Y-47955950D02*
X160588825Y-47908330D01*
X160588825Y-47908330D02*
X160541206Y-47813092D01*
X160541206Y-47813092D02*
X160541206Y-47003569D01*
X159541206Y-48003569D02*
X160112634Y-48003569D01*
X159826920Y-48003569D02*
X159826920Y-47003569D01*
X159826920Y-47003569D02*
X159922158Y-47146426D01*
X159922158Y-47146426D02*
X160017396Y-47241664D01*
X160017396Y-47241664D02*
X160112634Y-47289283D01*
X138657830Y-40658940D02*
X138705450Y-40611321D01*
X138705450Y-40611321D02*
X138753069Y-40468464D01*
X138753069Y-40468464D02*
X138753069Y-40373226D01*
X138753069Y-40373226D02*
X138705450Y-40230369D01*
X138705450Y-40230369D02*
X138610211Y-40135131D01*
X138610211Y-40135131D02*
X138514973Y-40087512D01*
X138514973Y-40087512D02*
X138324497Y-40039893D01*
X138324497Y-40039893D02*
X138181640Y-40039893D01*
X138181640Y-40039893D02*
X137991164Y-40087512D01*
X137991164Y-40087512D02*
X137895926Y-40135131D01*
X137895926Y-40135131D02*
X137800688Y-40230369D01*
X137800688Y-40230369D02*
X137753069Y-40373226D01*
X137753069Y-40373226D02*
X137753069Y-40468464D01*
X137753069Y-40468464D02*
X137800688Y-40611321D01*
X137800688Y-40611321D02*
X137848307Y-40658940D01*
X138753069Y-41230369D02*
X138705450Y-41135131D01*
X138705450Y-41135131D02*
X138657830Y-41087512D01*
X138657830Y-41087512D02*
X138562592Y-41039893D01*
X138562592Y-41039893D02*
X138276878Y-41039893D01*
X138276878Y-41039893D02*
X138181640Y-41087512D01*
X138181640Y-41087512D02*
X138134021Y-41135131D01*
X138134021Y-41135131D02*
X138086402Y-41230369D01*
X138086402Y-41230369D02*
X138086402Y-41373226D01*
X138086402Y-41373226D02*
X138134021Y-41468464D01*
X138134021Y-41468464D02*
X138181640Y-41516083D01*
X138181640Y-41516083D02*
X138276878Y-41563702D01*
X138276878Y-41563702D02*
X138562592Y-41563702D01*
X138562592Y-41563702D02*
X138657830Y-41516083D01*
X138657830Y-41516083D02*
X138705450Y-41468464D01*
X138705450Y-41468464D02*
X138753069Y-41373226D01*
X138753069Y-41373226D02*
X138753069Y-41230369D01*
X138086402Y-41992274D02*
X138753069Y-41992274D01*
X138181640Y-41992274D02*
X138134021Y-42039893D01*
X138134021Y-42039893D02*
X138086402Y-42135131D01*
X138086402Y-42135131D02*
X138086402Y-42277988D01*
X138086402Y-42277988D02*
X138134021Y-42373226D01*
X138134021Y-42373226D02*
X138229259Y-42420845D01*
X138229259Y-42420845D02*
X138753069Y-42420845D01*
X138086402Y-42897036D02*
X138753069Y-42897036D01*
X138181640Y-42897036D02*
X138134021Y-42944655D01*
X138134021Y-42944655D02*
X138086402Y-43039893D01*
X138086402Y-43039893D02*
X138086402Y-43182750D01*
X138086402Y-43182750D02*
X138134021Y-43277988D01*
X138134021Y-43277988D02*
X138229259Y-43325607D01*
X138229259Y-43325607D02*
X138753069Y-43325607D01*
X138753069Y-44325607D02*
X138753069Y-43754179D01*
X138753069Y-44039893D02*
X137753069Y-44039893D01*
X137753069Y-44039893D02*
X137895926Y-43944655D01*
X137895926Y-43944655D02*
X137991164Y-43849417D01*
X137991164Y-43849417D02*
X138038783Y-43754179D01*
X141544307Y-40563511D02*
X141496688Y-40468273D01*
X141496688Y-40468273D02*
X141401450Y-40373035D01*
X141401450Y-40373035D02*
X141258592Y-40230178D01*
X141258592Y-40230178D02*
X141210973Y-40134940D01*
X141210973Y-40134940D02*
X141210973Y-40039702D01*
X141449069Y-40087321D02*
X141401450Y-39992083D01*
X141401450Y-39992083D02*
X141306211Y-39896845D01*
X141306211Y-39896845D02*
X141115735Y-39849226D01*
X141115735Y-39849226D02*
X140782402Y-39849226D01*
X140782402Y-39849226D02*
X140591926Y-39896845D01*
X140591926Y-39896845D02*
X140496688Y-39992083D01*
X140496688Y-39992083D02*
X140449069Y-40087321D01*
X140449069Y-40087321D02*
X140449069Y-40277797D01*
X140449069Y-40277797D02*
X140496688Y-40373035D01*
X140496688Y-40373035D02*
X140591926Y-40468273D01*
X140591926Y-40468273D02*
X140782402Y-40515892D01*
X140782402Y-40515892D02*
X141115735Y-40515892D01*
X141115735Y-40515892D02*
X141306211Y-40468273D01*
X141306211Y-40468273D02*
X141401450Y-40373035D01*
X141401450Y-40373035D02*
X141449069Y-40277797D01*
X141449069Y-40277797D02*
X141449069Y-40087321D01*
X141449069Y-41468273D02*
X141449069Y-40896845D01*
X141449069Y-41182559D02*
X140449069Y-41182559D01*
X140449069Y-41182559D02*
X140591926Y-41087321D01*
X140591926Y-41087321D02*
X140687164Y-40992083D01*
X140687164Y-40992083D02*
X140734783Y-40896845D01*
X143498866Y-73866819D02*
X143832199Y-73390628D01*
X144070294Y-73866819D02*
X144070294Y-72866819D01*
X144070294Y-72866819D02*
X143689342Y-72866819D01*
X143689342Y-72866819D02*
X143594104Y-72914438D01*
X143594104Y-72914438D02*
X143546485Y-72962057D01*
X143546485Y-72962057D02*
X143498866Y-73057295D01*
X143498866Y-73057295D02*
X143498866Y-73200152D01*
X143498866Y-73200152D02*
X143546485Y-73295390D01*
X143546485Y-73295390D02*
X143594104Y-73343009D01*
X143594104Y-73343009D02*
X143689342Y-73390628D01*
X143689342Y-73390628D02*
X144070294Y-73390628D01*
X142546485Y-73866819D02*
X143117913Y-73866819D01*
X142832199Y-73866819D02*
X142832199Y-72866819D01*
X142832199Y-72866819D02*
X142927437Y-73009676D01*
X142927437Y-73009676D02*
X143022675Y-73104914D01*
X143022675Y-73104914D02*
X143117913Y-73152533D01*
X142215069Y-48112083D02*
X141738878Y-47778750D01*
X142215069Y-47540655D02*
X141215069Y-47540655D01*
X141215069Y-47540655D02*
X141215069Y-47921607D01*
X141215069Y-47921607D02*
X141262688Y-48016845D01*
X141262688Y-48016845D02*
X141310307Y-48064464D01*
X141310307Y-48064464D02*
X141405545Y-48112083D01*
X141405545Y-48112083D02*
X141548402Y-48112083D01*
X141548402Y-48112083D02*
X141643640Y-48064464D01*
X141643640Y-48064464D02*
X141691259Y-48016845D01*
X141691259Y-48016845D02*
X141738878Y-47921607D01*
X141738878Y-47921607D02*
X141738878Y-47540655D01*
X141310307Y-48493036D02*
X141262688Y-48540655D01*
X141262688Y-48540655D02*
X141215069Y-48635893D01*
X141215069Y-48635893D02*
X141215069Y-48873988D01*
X141215069Y-48873988D02*
X141262688Y-48969226D01*
X141262688Y-48969226D02*
X141310307Y-49016845D01*
X141310307Y-49016845D02*
X141405545Y-49064464D01*
X141405545Y-49064464D02*
X141500783Y-49064464D01*
X141500783Y-49064464D02*
X141643640Y-49016845D01*
X141643640Y-49016845D02*
X142215069Y-48445417D01*
X142215069Y-48445417D02*
X142215069Y-49064464D01*
X136561069Y-47540655D02*
X135561069Y-47540655D01*
X135561069Y-47540655D02*
X135561069Y-47778750D01*
X135561069Y-47778750D02*
X135608688Y-47921607D01*
X135608688Y-47921607D02*
X135703926Y-48016845D01*
X135703926Y-48016845D02*
X135799164Y-48064464D01*
X135799164Y-48064464D02*
X135989640Y-48112083D01*
X135989640Y-48112083D02*
X136132497Y-48112083D01*
X136132497Y-48112083D02*
X136322973Y-48064464D01*
X136322973Y-48064464D02*
X136418211Y-48016845D01*
X136418211Y-48016845D02*
X136513450Y-47921607D01*
X136513450Y-47921607D02*
X136561069Y-47778750D01*
X136561069Y-47778750D02*
X136561069Y-47540655D01*
X136561069Y-49064464D02*
X136561069Y-48493036D01*
X136561069Y-48778750D02*
X135561069Y-48778750D01*
X135561069Y-48778750D02*
X135703926Y-48683512D01*
X135703926Y-48683512D02*
X135799164Y-48588274D01*
X135799164Y-48588274D02*
X135846783Y-48493036D01*
X143036916Y-33587569D02*
X143370249Y-33111378D01*
X143608344Y-33587569D02*
X143608344Y-32587569D01*
X143608344Y-32587569D02*
X143227392Y-32587569D01*
X143227392Y-32587569D02*
X143132154Y-32635188D01*
X143132154Y-32635188D02*
X143084535Y-32682807D01*
X143084535Y-32682807D02*
X143036916Y-32778045D01*
X143036916Y-32778045D02*
X143036916Y-32920902D01*
X143036916Y-32920902D02*
X143084535Y-33016140D01*
X143084535Y-33016140D02*
X143132154Y-33063759D01*
X143132154Y-33063759D02*
X143227392Y-33111378D01*
X143227392Y-33111378D02*
X143608344Y-33111378D01*
X142703582Y-32587569D02*
X142084535Y-32587569D01*
X142084535Y-32587569D02*
X142417868Y-32968521D01*
X142417868Y-32968521D02*
X142275011Y-32968521D01*
X142275011Y-32968521D02*
X142179773Y-33016140D01*
X142179773Y-33016140D02*
X142132154Y-33063759D01*
X142132154Y-33063759D02*
X142084535Y-33158997D01*
X142084535Y-33158997D02*
X142084535Y-33397092D01*
X142084535Y-33397092D02*
X142132154Y-33492330D01*
X142132154Y-33492330D02*
X142179773Y-33539950D01*
X142179773Y-33539950D02*
X142275011Y-33587569D01*
X142275011Y-33587569D02*
X142560725Y-33587569D01*
X142560725Y-33587569D02*
X142655963Y-33539950D01*
X142655963Y-33539950D02*
X142703582Y-33492330D01*
X138657830Y-54374940D02*
X138705450Y-54327321D01*
X138705450Y-54327321D02*
X138753069Y-54184464D01*
X138753069Y-54184464D02*
X138753069Y-54089226D01*
X138753069Y-54089226D02*
X138705450Y-53946369D01*
X138705450Y-53946369D02*
X138610211Y-53851131D01*
X138610211Y-53851131D02*
X138514973Y-53803512D01*
X138514973Y-53803512D02*
X138324497Y-53755893D01*
X138324497Y-53755893D02*
X138181640Y-53755893D01*
X138181640Y-53755893D02*
X137991164Y-53803512D01*
X137991164Y-53803512D02*
X137895926Y-53851131D01*
X137895926Y-53851131D02*
X137800688Y-53946369D01*
X137800688Y-53946369D02*
X137753069Y-54089226D01*
X137753069Y-54089226D02*
X137753069Y-54184464D01*
X137753069Y-54184464D02*
X137800688Y-54327321D01*
X137800688Y-54327321D02*
X137848307Y-54374940D01*
X138753069Y-54946369D02*
X138705450Y-54851131D01*
X138705450Y-54851131D02*
X138657830Y-54803512D01*
X138657830Y-54803512D02*
X138562592Y-54755893D01*
X138562592Y-54755893D02*
X138276878Y-54755893D01*
X138276878Y-54755893D02*
X138181640Y-54803512D01*
X138181640Y-54803512D02*
X138134021Y-54851131D01*
X138134021Y-54851131D02*
X138086402Y-54946369D01*
X138086402Y-54946369D02*
X138086402Y-55089226D01*
X138086402Y-55089226D02*
X138134021Y-55184464D01*
X138134021Y-55184464D02*
X138181640Y-55232083D01*
X138181640Y-55232083D02*
X138276878Y-55279702D01*
X138276878Y-55279702D02*
X138562592Y-55279702D01*
X138562592Y-55279702D02*
X138657830Y-55232083D01*
X138657830Y-55232083D02*
X138705450Y-55184464D01*
X138705450Y-55184464D02*
X138753069Y-55089226D01*
X138753069Y-55089226D02*
X138753069Y-54946369D01*
X138086402Y-55708274D02*
X138753069Y-55708274D01*
X138181640Y-55708274D02*
X138134021Y-55755893D01*
X138134021Y-55755893D02*
X138086402Y-55851131D01*
X138086402Y-55851131D02*
X138086402Y-55993988D01*
X138086402Y-55993988D02*
X138134021Y-56089226D01*
X138134021Y-56089226D02*
X138229259Y-56136845D01*
X138229259Y-56136845D02*
X138753069Y-56136845D01*
X138086402Y-56613036D02*
X138753069Y-56613036D01*
X138181640Y-56613036D02*
X138134021Y-56660655D01*
X138134021Y-56660655D02*
X138086402Y-56755893D01*
X138086402Y-56755893D02*
X138086402Y-56898750D01*
X138086402Y-56898750D02*
X138134021Y-56993988D01*
X138134021Y-56993988D02*
X138229259Y-57041607D01*
X138229259Y-57041607D02*
X138753069Y-57041607D01*
X137848307Y-57470179D02*
X137800688Y-57517798D01*
X137800688Y-57517798D02*
X137753069Y-57613036D01*
X137753069Y-57613036D02*
X137753069Y-57851131D01*
X137753069Y-57851131D02*
X137800688Y-57946369D01*
X137800688Y-57946369D02*
X137848307Y-57993988D01*
X137848307Y-57993988D02*
X137943545Y-58041607D01*
X137943545Y-58041607D02*
X138038783Y-58041607D01*
X138038783Y-58041607D02*
X138181640Y-57993988D01*
X138181640Y-57993988D02*
X138753069Y-57422560D01*
X138753069Y-57422560D02*
X138753069Y-58041607D01*
D12*
%TO.C,U1*%
X161050730Y-50708750D02*
X159650730Y-50708750D01*
X159650730Y-48388750D02*
X161550730Y-48388750D01*
D11*
%TO.C,Conn1*%
X134742250Y-36213750D02*
X122804250Y-36213750D01*
X137282250Y-38118750D02*
X134742250Y-38118750D01*
X134742250Y-38118750D02*
X134742250Y-36213750D01*
X127122250Y-40658750D02*
X128392250Y-40658750D01*
X127122250Y-40658750D02*
X123312250Y-40658750D01*
X122804250Y-40658750D02*
X123312250Y-40658750D01*
X128392250Y-43198750D02*
X128392250Y-40658750D01*
X122804250Y-43198750D02*
X128392250Y-43198750D01*
X137282250Y-45738750D02*
X137282250Y-38118750D01*
X134742250Y-45738750D02*
X137282250Y-45738750D01*
X134742250Y-47643750D02*
X134742250Y-38118750D01*
X134742250Y-47643750D02*
X122804250Y-47643750D01*
X122804250Y-47643750D02*
X122804250Y-36213750D01*
D12*
%TO.C,Q1*%
X146954250Y-40658750D02*
X146954250Y-38708750D01*
X146954250Y-40658750D02*
X146954250Y-42608750D01*
X141834250Y-40658750D02*
X141834250Y-37208750D01*
X141834250Y-40658750D02*
X141834250Y-42608750D01*
%TO.C,G\u002A\u002A\u002A*%
G36*
X172462347Y-41606161D02*
G01*
X172419060Y-41709363D01*
X172281469Y-41897339D01*
X172082308Y-42115860D01*
X171889883Y-42289213D01*
X171678248Y-42438482D01*
X171530134Y-42495899D01*
X171464890Y-42492799D01*
X171367510Y-42446560D01*
X171424948Y-42351432D01*
X171634086Y-42215819D01*
X171671797Y-42193905D01*
X171909201Y-42004418D01*
X172112260Y-41771752D01*
X172168173Y-41693247D01*
X172325446Y-41518857D01*
X172426583Y-41488372D01*
X172462347Y-41606161D01*
G37*
G36*
X171214706Y-38901224D02*
G01*
X171239081Y-39087456D01*
X171250539Y-39179584D01*
X171322497Y-39441477D01*
X171436670Y-39722059D01*
X171500468Y-39866951D01*
X171568435Y-40079258D01*
X171571812Y-40199927D01*
X171557990Y-40235003D01*
X171610501Y-40287203D01*
X171662857Y-40269641D01*
X171754761Y-40152656D01*
X171805729Y-40081873D01*
X171873596Y-40119233D01*
X171928560Y-40268971D01*
X171952648Y-40499578D01*
X171955531Y-40588527D01*
X171979836Y-40680547D01*
X172037598Y-40627003D01*
X172048240Y-40610730D01*
X172107217Y-40549869D01*
X172121247Y-40648240D01*
X172096435Y-40734569D01*
X171982826Y-40783899D01*
X171740273Y-40796902D01*
X171626066Y-40793261D01*
X171433937Y-40764850D01*
X171357999Y-40717483D01*
X171331858Y-40595213D01*
X171264982Y-40398921D01*
X171171964Y-40159779D01*
X171073845Y-40457103D01*
X171044174Y-40544647D01*
X170983715Y-40666676D01*
X170886034Y-40732362D01*
X170706958Y-40762915D01*
X170402314Y-40779546D01*
X169828902Y-40804665D01*
X169830203Y-40524697D01*
X169831193Y-40470214D01*
X169859368Y-40232060D01*
X169914629Y-40112736D01*
X169981351Y-40128880D01*
X170043911Y-40297131D01*
X170107487Y-40584528D01*
X170224397Y-40185194D01*
X170240072Y-40133465D01*
X170333404Y-39887850D01*
X170419966Y-39746195D01*
X170483689Y-39727431D01*
X170508501Y-39850493D01*
X170528735Y-40036149D01*
X170589073Y-40213431D01*
X170666252Y-40286952D01*
X170687354Y-40252055D01*
X170711481Y-40090165D01*
X170720875Y-39840966D01*
X170723814Y-39713944D01*
X170778307Y-39387449D01*
X170917797Y-39119143D01*
X171030334Y-38970482D01*
X171149966Y-38861755D01*
X171214706Y-38901224D01*
G37*
G36*
X172971572Y-41157939D02*
G01*
X172962374Y-41284169D01*
X172866766Y-41644324D01*
X172690156Y-42020921D01*
X172460951Y-42368163D01*
X172207555Y-42640256D01*
X171958374Y-42791406D01*
X171882857Y-42822051D01*
X171842958Y-42885887D01*
X171861778Y-43020236D01*
X171937335Y-43270258D01*
X171996619Y-43428735D01*
X172116808Y-43657326D01*
X172194784Y-43742805D01*
X172231392Y-43782935D01*
X172331943Y-43868053D01*
X172296212Y-43977985D01*
X172275070Y-44017778D01*
X172271983Y-44163607D01*
X172332272Y-44411258D01*
X172461162Y-44786330D01*
X172509520Y-44921631D01*
X172606223Y-45225583D01*
X172662276Y-45454533D01*
X172666750Y-45566991D01*
X172665194Y-45569485D01*
X172617371Y-45614185D01*
X172562845Y-45581031D01*
X172489990Y-45449146D01*
X172387181Y-45197656D01*
X172242795Y-44805686D01*
X171976802Y-44067471D01*
X170975113Y-44067471D01*
X169973424Y-44067471D01*
X169858271Y-44400084D01*
X169816635Y-44533378D01*
X169787805Y-44773558D01*
X169846031Y-45017301D01*
X169900384Y-45199818D01*
X169897961Y-45219307D01*
X169882702Y-45342043D01*
X169763333Y-45487518D01*
X169695205Y-45550935D01*
X169538483Y-45627653D01*
X169342275Y-45590329D01*
X169236027Y-45544578D01*
X169132128Y-45429121D01*
X169115838Y-45291092D01*
X169271690Y-45291092D01*
X169306580Y-45333051D01*
X169451013Y-45387720D01*
X169594166Y-45345047D01*
X169659003Y-45219307D01*
X169619938Y-45056355D01*
X169500912Y-44987786D01*
X169343475Y-45068665D01*
X169277627Y-45164631D01*
X169271690Y-45291092D01*
X169115838Y-45291092D01*
X169106829Y-45214757D01*
X169108800Y-45142125D01*
X169162728Y-44941259D01*
X169316580Y-44817415D01*
X169370314Y-44784102D01*
X169529161Y-44607715D01*
X169645511Y-44373701D01*
X169695044Y-44142817D01*
X169653442Y-43975821D01*
X169616450Y-43878872D01*
X169720058Y-43782935D01*
X169764828Y-43742805D01*
X170083752Y-43742805D01*
X170130848Y-43751552D01*
X170316224Y-43761165D01*
X170609549Y-43767722D01*
X170975725Y-43770147D01*
X171261104Y-43768703D01*
X171574703Y-43763021D01*
X171788600Y-43754029D01*
X171867698Y-43742805D01*
X171861241Y-43715304D01*
X171815228Y-43566784D01*
X171739524Y-43339293D01*
X171611350Y-42963123D01*
X170975725Y-42963123D01*
X170340099Y-42963123D01*
X170211926Y-43339293D01*
X170171842Y-43458310D01*
X170108663Y-43653544D01*
X170083752Y-43742805D01*
X169764828Y-43742805D01*
X169785123Y-43724614D01*
X169907309Y-43530634D01*
X170014115Y-43270258D01*
X170079028Y-43059567D01*
X170109362Y-42905684D01*
X170081373Y-42831351D01*
X169993076Y-42791406D01*
X169898118Y-42749717D01*
X169643912Y-42545905D01*
X169396579Y-42239026D01*
X169184526Y-41874876D01*
X169036157Y-41499248D01*
X168979878Y-41157939D01*
X168979825Y-41136702D01*
X169135804Y-41136702D01*
X169194193Y-41412789D01*
X169234827Y-41566959D01*
X169465640Y-42037688D01*
X169822371Y-42429420D01*
X170273320Y-42704219D01*
X170376772Y-42743680D01*
X170887629Y-42839048D01*
X171392513Y-42786917D01*
X171861672Y-42602756D01*
X172265351Y-42302035D01*
X172573797Y-41900223D01*
X172757257Y-41412789D01*
X172815646Y-41136702D01*
X170975725Y-41136702D01*
X169135804Y-41136702D01*
X168979825Y-41136702D01*
X168979404Y-40966802D01*
X170975725Y-40966802D01*
X172972046Y-40966802D01*
X172971625Y-41136702D01*
X172971572Y-41157939D01*
G37*
%TO.C,R1*%
X138212200Y-56522000D02*
X148452200Y-56522000D01*
X138212200Y-72412000D02*
X138212200Y-56522000D01*
X138212200Y-72412000D02*
X148452200Y-72412000D01*
X140792200Y-56522000D02*
X140792200Y-53982000D01*
X145872200Y-56522000D02*
X145872200Y-53997000D01*
X148452200Y-72412000D02*
X148452200Y-56522000D01*
%TO.C,R2*%
X139807750Y-48533474D02*
X139807750Y-48024026D01*
X140852750Y-48533474D02*
X140852750Y-48024026D01*
%TO.C,G\u002A\u002A\u002A*%
G36*
X155681533Y-41149867D02*
G01*
X155681533Y-42292867D01*
X155342867Y-42292867D01*
X155004200Y-42292867D01*
X155004200Y-41149867D01*
X155004200Y-40006867D01*
X155342867Y-40006867D01*
X155681533Y-40006867D01*
X155681533Y-41149867D01*
G37*
G36*
X155315929Y-39091245D02*
G01*
X155511118Y-39119300D01*
X155623723Y-39191801D01*
X155665300Y-39343542D01*
X155652219Y-39520320D01*
X155538300Y-39600884D01*
X155471978Y-39613603D01*
X155217903Y-39625490D01*
X155077068Y-39538893D01*
X155019596Y-39338712D01*
X155012767Y-39264335D01*
X155020992Y-39127191D01*
X155106901Y-39082143D01*
X155315929Y-39091245D01*
G37*
G36*
X157193296Y-34996021D02*
G01*
X157262820Y-35204190D01*
X157290200Y-35466794D01*
X157288475Y-35510746D01*
X157228642Y-35794229D01*
X157109952Y-36069353D01*
X157046348Y-36186943D01*
X156969148Y-36444012D01*
X156981332Y-36751526D01*
X156986646Y-36793397D01*
X156992504Y-37030134D01*
X156950441Y-37120994D01*
X156878213Y-37058184D01*
X156793570Y-36833916D01*
X156748613Y-36566247D01*
X156794978Y-36251925D01*
X156966060Y-35900534D01*
X157035935Y-35767830D01*
X157116098Y-35417482D01*
X157035971Y-35095772D01*
X156998339Y-34996941D01*
X157031723Y-34887300D01*
X157100553Y-34884717D01*
X157193296Y-34996021D01*
G37*
G36*
X158549369Y-34893718D02*
G01*
X158644125Y-35017339D01*
X158717196Y-35224404D01*
X158746467Y-35468265D01*
X158743350Y-35522038D01*
X158679538Y-35785835D01*
X158559307Y-36052367D01*
X158475703Y-36210152D01*
X158410698Y-36453112D01*
X158429028Y-36748890D01*
X158441820Y-36850538D01*
X158444776Y-37052369D01*
X158405113Y-37128200D01*
X158376299Y-37124255D01*
X158277601Y-37020262D01*
X158229191Y-36807056D01*
X158231587Y-36527707D01*
X158285306Y-36225287D01*
X158390867Y-35942867D01*
X158505215Y-35676814D01*
X158553874Y-35366446D01*
X158475305Y-35095772D01*
X158437672Y-34996941D01*
X158471057Y-34887300D01*
X158549369Y-34893718D01*
G37*
G36*
X157938124Y-34972556D02*
G01*
X157943154Y-34979573D01*
X158041249Y-35256801D01*
X158017205Y-35604990D01*
X157873707Y-35982070D01*
X157831866Y-36064815D01*
X157735837Y-36371030D01*
X157734568Y-36724659D01*
X157740287Y-36797029D01*
X157730723Y-37030736D01*
X157676639Y-37105919D01*
X157596631Y-37019099D01*
X157509289Y-36766799D01*
X157487098Y-36661651D01*
X157482342Y-36469737D01*
X157538448Y-36248135D01*
X157666591Y-35937952D01*
X157746979Y-35752723D01*
X157830489Y-35514616D01*
X157847155Y-35348929D01*
X157806260Y-35207078D01*
X157758359Y-35061235D01*
X157762261Y-34921091D01*
X157828598Y-34880122D01*
X157938124Y-34972556D01*
G37*
G36*
X158235837Y-37297956D02*
G01*
X158642232Y-37301387D01*
X158920745Y-37310790D01*
X159095456Y-37329102D01*
X159190439Y-37359260D01*
X159229773Y-37404203D01*
X159237533Y-37466867D01*
X159234218Y-37513286D01*
X159206513Y-37563150D01*
X159130079Y-37597324D01*
X158980796Y-37618763D01*
X158734543Y-37630419D01*
X158367199Y-37635247D01*
X157854645Y-37636200D01*
X157533262Y-37634823D01*
X157104249Y-37628234D01*
X156756272Y-37617139D01*
X156518760Y-37602578D01*
X156421145Y-37585589D01*
X156403744Y-37551871D01*
X156416092Y-37416256D01*
X156429254Y-37395468D01*
X156506137Y-37355377D01*
X156664721Y-37327351D01*
X156926898Y-37309577D01*
X157314558Y-37300242D01*
X157849592Y-37297534D01*
X158235837Y-37297956D01*
G37*
G36*
X163933844Y-45210288D02*
G01*
X163731380Y-45516713D01*
X163704167Y-45543315D01*
X163456936Y-45714842D01*
X163174533Y-45764200D01*
X162843427Y-45690327D01*
X162583962Y-45493424D01*
X162419971Y-45212251D01*
X162387722Y-44982953D01*
X162806629Y-44982953D01*
X162875959Y-45252013D01*
X162928126Y-45322599D01*
X163111293Y-45416184D01*
X163315266Y-45396303D01*
X163467888Y-45261766D01*
X163497031Y-45200436D01*
X163549566Y-44941455D01*
X163504787Y-44708839D01*
X163384949Y-44538278D01*
X163212310Y-44465465D01*
X163009127Y-44526091D01*
X162855622Y-44717723D01*
X162806629Y-44982953D01*
X162387722Y-44982953D01*
X162374025Y-44885567D01*
X162468697Y-44552134D01*
X162575898Y-44388520D01*
X162812096Y-44213488D01*
X163146442Y-44158226D01*
X163237335Y-44158636D01*
X163526021Y-44192944D01*
X163714623Y-44298474D01*
X163854998Y-44500256D01*
X163972895Y-44864060D01*
X163964166Y-44941455D01*
X163933844Y-45210288D01*
G37*
G36*
X150710211Y-40011890D02*
G01*
X150946772Y-40139814D01*
X151028982Y-40211066D01*
X151096294Y-40237322D01*
X151109533Y-40146989D01*
X151113165Y-40111662D01*
X151193981Y-40030467D01*
X151405867Y-40006867D01*
X151702200Y-40006867D01*
X151702200Y-41149867D01*
X151702200Y-42292867D01*
X151414040Y-42292867D01*
X151125879Y-42292867D01*
X151096540Y-41481620D01*
X151068673Y-41042172D01*
X151012703Y-40736522D01*
X150915757Y-40549493D01*
X150764600Y-40455811D01*
X150545997Y-40430200D01*
X150436012Y-40446018D01*
X150312345Y-40539648D01*
X150232987Y-40736349D01*
X150190689Y-41057705D01*
X150178200Y-41525301D01*
X150178200Y-42292867D01*
X149839533Y-42292867D01*
X149500867Y-42292867D01*
X149500867Y-41485814D01*
X149501143Y-41414206D01*
X149529187Y-40861243D01*
X149606646Y-40453116D01*
X149738377Y-40173024D01*
X149929238Y-40004171D01*
X150091844Y-39952710D01*
X150398044Y-39945897D01*
X150710211Y-40011890D01*
G37*
G36*
X158390867Y-40783367D02*
G01*
X158401492Y-41184110D01*
X158447385Y-41518779D01*
X158539892Y-41729108D01*
X158690078Y-41838293D01*
X158909010Y-41869534D01*
X159074579Y-41843744D01*
X159196426Y-41745260D01*
X159272306Y-41550130D01*
X159311228Y-41234479D01*
X159322200Y-40774433D01*
X159322200Y-40006867D01*
X159618533Y-40006867D01*
X159914867Y-40006867D01*
X159914867Y-40984382D01*
X159914416Y-41225363D01*
X159908653Y-41574246D01*
X159891237Y-41807742D01*
X159855967Y-41961233D01*
X159796638Y-42070098D01*
X159707049Y-42169715D01*
X159590695Y-42259041D01*
X159296746Y-42360964D01*
X158970082Y-42364187D01*
X158669966Y-42272500D01*
X158455663Y-42089692D01*
X158416559Y-42057971D01*
X158392163Y-42144700D01*
X158377412Y-42214278D01*
X158278500Y-42276100D01*
X158052200Y-42292867D01*
X157713533Y-42292867D01*
X157713533Y-41149867D01*
X157713533Y-40006867D01*
X158052200Y-40006867D01*
X158390867Y-40006867D01*
X158390867Y-40783367D01*
G37*
G36*
X152276527Y-44167642D02*
G01*
X152581411Y-44272337D01*
X152771968Y-44496170D01*
X152864147Y-44853332D01*
X152872291Y-44930901D01*
X152874751Y-45160946D01*
X152809624Y-45325890D01*
X152650602Y-45506158D01*
X152525213Y-45614096D01*
X152209694Y-45756431D01*
X151888899Y-45737649D01*
X151587563Y-45556576D01*
X151455111Y-45416017D01*
X151367541Y-45251945D01*
X151409803Y-45157591D01*
X151582155Y-45152141D01*
X151735762Y-45207706D01*
X151845214Y-45309733D01*
X151898777Y-45377972D01*
X152059149Y-45422810D01*
X152242845Y-45381869D01*
X152376555Y-45261766D01*
X152449717Y-45044101D01*
X152443698Y-44762282D01*
X152331153Y-44542581D01*
X152212578Y-44445054D01*
X152064612Y-44428369D01*
X151890896Y-44557700D01*
X151758816Y-44652705D01*
X151578467Y-44723628D01*
X151427080Y-44737379D01*
X151363533Y-44680274D01*
X151363849Y-44675153D01*
X151418627Y-44553199D01*
X151539012Y-44378618D01*
X151635786Y-44273222D01*
X151812845Y-44179808D01*
X152079966Y-44155534D01*
X152276527Y-44167642D01*
G37*
G36*
X154579007Y-41168314D02*
G01*
X154542934Y-41429317D01*
X154408840Y-41775321D01*
X154206779Y-42070179D01*
X153969879Y-42254802D01*
X153647918Y-42347537D01*
X153236521Y-42356396D01*
X152848519Y-42263879D01*
X152545104Y-42077595D01*
X152297009Y-41749167D01*
X152165560Y-41353680D01*
X152165176Y-41149867D01*
X152802867Y-41149867D01*
X152804274Y-41201926D01*
X152848248Y-41473342D01*
X152934668Y-41681361D01*
X153083417Y-41815118D01*
X153353200Y-41869534D01*
X153481762Y-41858290D01*
X153718218Y-41738927D01*
X153857739Y-41485504D01*
X153903533Y-41093496D01*
X153893761Y-40879224D01*
X153838388Y-40688803D01*
X153715361Y-40562001D01*
X153516045Y-40457263D01*
X153240436Y-40431479D01*
X153013523Y-40548742D01*
X152859576Y-40793417D01*
X152802867Y-41149867D01*
X152165176Y-41149867D01*
X152164792Y-40945797D01*
X152288770Y-40561441D01*
X152531558Y-40236533D01*
X152887222Y-40006996D01*
X153109350Y-39947177D01*
X153485013Y-39940766D01*
X153849605Y-40024365D01*
X154131384Y-40187561D01*
X154326745Y-40418824D01*
X154511427Y-40791485D01*
X154565589Y-41093496D01*
X154579007Y-41168314D01*
G37*
G36*
X161774207Y-43733094D02*
G01*
X161911897Y-43782745D01*
X161946867Y-43943867D01*
X161971724Y-44081933D01*
X162073867Y-44155534D01*
X162147927Y-44186963D01*
X162200867Y-44324867D01*
X162177295Y-44423614D01*
X162073867Y-44494200D01*
X162046260Y-44497852D01*
X161986138Y-44562699D01*
X161955459Y-44732981D01*
X161946867Y-45040326D01*
X161946268Y-45135993D01*
X161929813Y-45419255D01*
X161883775Y-45584725D01*
X161798700Y-45672752D01*
X161686356Y-45718224D01*
X161501550Y-45756051D01*
X161339228Y-45762050D01*
X161269533Y-45728792D01*
X161262970Y-45694426D01*
X161218142Y-45559458D01*
X161216132Y-45460867D01*
X161345142Y-45425534D01*
X161410871Y-45420616D01*
X161484152Y-45371131D01*
X161516361Y-45234497D01*
X161523533Y-44969742D01*
X161522789Y-44870867D01*
X161505621Y-44641040D01*
X161454323Y-44522059D01*
X161353851Y-44469577D01*
X161300976Y-44447096D01*
X161231874Y-44335767D01*
X161270918Y-44213254D01*
X161405592Y-44155534D01*
X161482555Y-44109374D01*
X161523533Y-43943867D01*
X161524427Y-43904860D01*
X161574078Y-43767170D01*
X161735200Y-43732200D01*
X161774207Y-43733094D01*
G37*
G36*
X151194881Y-44882859D02*
G01*
X151152992Y-45210818D01*
X150946713Y-45516713D01*
X150790949Y-45644623D01*
X150473364Y-45766524D01*
X150152330Y-45728902D01*
X149856852Y-45531367D01*
X149627867Y-45298534D01*
X149828132Y-45270199D01*
X149970568Y-45272278D01*
X150120232Y-45333699D01*
X150280001Y-45412706D01*
X150504040Y-45406277D01*
X150683122Y-45302242D01*
X150747698Y-45194892D01*
X150711636Y-45092373D01*
X150522660Y-45045647D01*
X150176601Y-45052661D01*
X149670200Y-45092127D01*
X149670200Y-44840218D01*
X149696671Y-44666512D01*
X150093533Y-44666512D01*
X150101694Y-44684390D01*
X150218443Y-44729947D01*
X150429543Y-44748200D01*
X150575687Y-44743367D01*
X150708577Y-44707855D01*
X150719330Y-44627746D01*
X150688182Y-44572695D01*
X150546520Y-44458717D01*
X150502294Y-44448146D01*
X150327317Y-44471732D01*
X150165007Y-44556473D01*
X150093533Y-44666512D01*
X149696671Y-44666512D01*
X149704950Y-44612188D01*
X149858482Y-44354227D01*
X150099360Y-44191096D01*
X150388825Y-44135968D01*
X150688122Y-44202013D01*
X150958493Y-44402403D01*
X151072175Y-44552212D01*
X151100206Y-44627746D01*
X151194881Y-44882859D01*
G37*
G36*
X159877465Y-44202009D02*
G01*
X160084200Y-44324867D01*
X160123304Y-44366607D01*
X160235392Y-44581979D01*
X160182818Y-44776592D01*
X159969003Y-44945124D01*
X159597367Y-45082254D01*
X159433569Y-45138772D01*
X159271040Y-45249016D01*
X159245843Y-45363184D01*
X159371458Y-45458808D01*
X159461602Y-45489683D01*
X159626071Y-45493528D01*
X159780350Y-45378622D01*
X159871010Y-45305391D01*
X160045488Y-45225542D01*
X160192013Y-45215809D01*
X160253533Y-45287213D01*
X160224505Y-45400269D01*
X160093426Y-45583516D01*
X159914867Y-45705443D01*
X159637098Y-45766698D01*
X159313403Y-45744756D01*
X159047427Y-45629652D01*
X158874571Y-45438289D01*
X158830238Y-45187571D01*
X158871849Y-45043179D01*
X158993389Y-44931974D01*
X159237533Y-44831720D01*
X159432645Y-44763244D01*
X159676629Y-44658553D01*
X159787000Y-44571212D01*
X159784251Y-44488350D01*
X159685209Y-44422750D01*
X159504773Y-44423674D01*
X159340455Y-44509812D01*
X159284049Y-44556418D01*
X159111432Y-44621124D01*
X158962351Y-44595406D01*
X158898867Y-44483030D01*
X158933952Y-44369479D01*
X159091812Y-44241520D01*
X159333519Y-44166708D01*
X159611321Y-44151414D01*
X159877465Y-44202009D01*
G37*
G36*
X158415334Y-44157246D02*
G01*
X158497367Y-44183573D01*
X158540565Y-44270622D01*
X158557364Y-44454596D01*
X158560200Y-44771695D01*
X158555791Y-44990134D01*
X158514713Y-45353785D01*
X158428399Y-45576028D01*
X158263227Y-45713431D01*
X157999758Y-45761497D01*
X157713106Y-45679305D01*
X157614456Y-45640466D01*
X157502008Y-45679305D01*
X157447361Y-45725211D01*
X157285203Y-45764200D01*
X157215556Y-45754067D01*
X157164537Y-45699919D01*
X157136013Y-45570370D01*
X157123587Y-45334119D01*
X157120867Y-44959867D01*
X157120920Y-44823813D01*
X157124202Y-44498650D01*
X157138657Y-44300959D01*
X157172633Y-44199021D01*
X157234476Y-44161119D01*
X157332533Y-44155534D01*
X157356968Y-44155677D01*
X157462001Y-44170965D01*
X157517942Y-44239044D01*
X157540204Y-44398754D01*
X157544200Y-44688934D01*
X157552202Y-44935768D01*
X157604434Y-45222021D01*
X157713950Y-45378195D01*
X157890742Y-45425534D01*
X158003254Y-45394594D01*
X158082999Y-45273493D01*
X158124779Y-45036113D01*
X158136867Y-44656609D01*
X158136867Y-44651033D01*
X158141687Y-44374216D01*
X158167300Y-44226043D01*
X158230613Y-44166490D01*
X158348533Y-44155534D01*
X158415334Y-44157246D01*
G37*
G36*
X165756867Y-44607089D02*
G01*
X165756852Y-44630835D01*
X165752050Y-45032807D01*
X165739860Y-45369377D01*
X165722059Y-45605907D01*
X165700422Y-45707756D01*
X165649743Y-45736558D01*
X165488756Y-45764200D01*
X165431245Y-45756944D01*
X165369274Y-45696167D01*
X165340547Y-45541830D01*
X165333533Y-45256200D01*
X165320227Y-44946263D01*
X165268694Y-44729749D01*
X165166121Y-44580787D01*
X165038984Y-44478874D01*
X164875773Y-44453379D01*
X164756544Y-44587785D01*
X164683129Y-44879415D01*
X164657356Y-45325589D01*
X164654303Y-45525470D01*
X164633106Y-45689244D01*
X164576143Y-45750685D01*
X164465700Y-45748922D01*
X164413167Y-45739401D01*
X164337448Y-45698495D01*
X164296625Y-45598443D01*
X164280546Y-45402536D01*
X164279059Y-45074063D01*
X164288894Y-44781848D01*
X164328665Y-44465358D01*
X164395260Y-44290896D01*
X164402636Y-44282626D01*
X164560742Y-44197568D01*
X164782510Y-44158712D01*
X164994149Y-44171207D01*
X165121867Y-44240200D01*
X165161143Y-44293194D01*
X165249930Y-44320367D01*
X165310886Y-44199035D01*
X165333533Y-43943867D01*
X165334342Y-43841103D01*
X165352701Y-43656280D01*
X165414585Y-43578658D01*
X165545200Y-43562867D01*
X165756867Y-43562867D01*
X165756867Y-44607089D01*
G37*
G36*
X164625945Y-39041179D02*
G01*
X165065467Y-39171556D01*
X165461893Y-39426751D01*
X165692723Y-39690486D01*
X165890715Y-40109396D01*
X165972371Y-40576430D01*
X165941149Y-41054493D01*
X165800509Y-41506491D01*
X165553909Y-41895330D01*
X165204808Y-42183915D01*
X164862208Y-42321457D01*
X164422521Y-42382648D01*
X163994932Y-42337880D01*
X163639339Y-42187034D01*
X163501640Y-42084367D01*
X163177044Y-41733906D01*
X162999842Y-41340367D01*
X162983461Y-41266850D01*
X162984783Y-41157276D01*
X163075281Y-41114703D01*
X163295012Y-41107534D01*
X163399779Y-41110221D01*
X163605095Y-41152129D01*
X163697807Y-41255700D01*
X163827372Y-41493097D01*
X164077375Y-41706107D01*
X164380192Y-41784867D01*
X164510589Y-41778358D01*
X164854159Y-41671819D01*
X165089535Y-41435892D01*
X165215596Y-41072160D01*
X165231221Y-40582209D01*
X165176736Y-40238251D01*
X165019335Y-39899063D01*
X164763891Y-39696774D01*
X164408963Y-39629715D01*
X164268215Y-39641492D01*
X163998748Y-39730408D01*
X163801435Y-39880928D01*
X163724867Y-40062322D01*
X163724408Y-40070651D01*
X163634385Y-40149978D01*
X163386200Y-40176200D01*
X163169046Y-40153085D01*
X163054474Y-40062208D01*
X163070983Y-39886404D01*
X163213439Y-39608811D01*
X163409878Y-39369724D01*
X163762043Y-39143187D01*
X164179434Y-39032697D01*
X164625945Y-39041179D01*
G37*
G36*
X156884976Y-39288584D02*
G01*
X157020630Y-39317730D01*
X157079708Y-39421453D01*
X157104568Y-39647034D01*
X157128501Y-39846648D01*
X157186058Y-39973725D01*
X157295068Y-40006867D01*
X157418941Y-40051599D01*
X157459533Y-40218534D01*
X157422985Y-40380591D01*
X157290200Y-40430200D01*
X157247261Y-40432461D01*
X157179037Y-40465603D01*
X157140975Y-40565449D01*
X157124458Y-40766192D01*
X157120867Y-41102022D01*
X157120501Y-41185281D01*
X157098103Y-41645681D01*
X157035777Y-41967487D01*
X156926255Y-42174822D01*
X156762265Y-42291807D01*
X156758926Y-42293164D01*
X156537034Y-42342751D01*
X156274200Y-42353034D01*
X156114947Y-42334464D01*
X155995759Y-42265310D01*
X155951666Y-42108476D01*
X155945549Y-42014207D01*
X155993558Y-41899135D01*
X156163333Y-41854476D01*
X156274073Y-41836850D01*
X156348697Y-41790877D01*
X156390214Y-41682191D01*
X156411566Y-41475283D01*
X156425695Y-41134645D01*
X156450190Y-40442090D01*
X156214028Y-40414978D01*
X156030767Y-40354142D01*
X155950812Y-40197367D01*
X155945282Y-40110368D01*
X156000766Y-40026522D01*
X156178777Y-40006867D01*
X156246310Y-40005834D01*
X156374836Y-39977061D01*
X156433753Y-39873153D01*
X156459832Y-39647034D01*
X156469992Y-39522355D01*
X156505728Y-39360193D01*
X156595678Y-39297568D01*
X156782200Y-39287200D01*
X156884976Y-39288584D01*
G37*
G36*
X154632148Y-45445851D02*
G01*
X154477361Y-45632399D01*
X154374544Y-45691857D01*
X154050549Y-45759822D01*
X153728634Y-45676555D01*
X153616695Y-45632155D01*
X153564867Y-45676555D01*
X153515531Y-45733377D01*
X153359447Y-45764200D01*
X153268068Y-45759583D01*
X153204638Y-45722946D01*
X153175722Y-45620012D01*
X153172703Y-45416510D01*
X153185586Y-45110882D01*
X153652921Y-45110882D01*
X153671881Y-45267962D01*
X153751133Y-45408600D01*
X153833123Y-45466119D01*
X154015723Y-45495474D01*
X154174415Y-45431140D01*
X154242200Y-45289382D01*
X154230697Y-45249711D01*
X154113472Y-45137325D01*
X153923678Y-45042261D01*
X153728688Y-45002200D01*
X153698289Y-45010454D01*
X153652921Y-45110882D01*
X153185586Y-45110882D01*
X153186965Y-45078169D01*
X153191720Y-44993534D01*
X153223247Y-44666819D01*
X153268059Y-44410420D01*
X153318085Y-44273836D01*
X153438673Y-44202780D01*
X153682262Y-44158561D01*
X153971007Y-44160148D01*
X154240426Y-44206269D01*
X154426033Y-44295656D01*
X154522916Y-44408545D01*
X154580867Y-44549656D01*
X154527612Y-44630983D01*
X154385419Y-44661167D01*
X154227231Y-44628973D01*
X154126916Y-44536534D01*
X154102524Y-44493818D01*
X153961927Y-44417709D01*
X153791967Y-44435329D01*
X153676872Y-44545078D01*
X153681616Y-44681481D01*
X153820620Y-44789884D01*
X154075195Y-44831570D01*
X154348117Y-44888475D01*
X154548223Y-45035453D01*
X154649334Y-45234057D01*
X154644845Y-45289382D01*
X154632148Y-45445851D01*
G37*
G36*
X155025367Y-43578669D02*
G01*
X155102378Y-43589117D01*
X155292846Y-43675101D01*
X155427533Y-43878534D01*
X155473912Y-43969238D01*
X155606853Y-44114225D01*
X155801867Y-44153701D01*
X156004342Y-44190141D01*
X156204033Y-44295656D01*
X156281600Y-44363201D01*
X156346766Y-44388628D01*
X156358867Y-44295656D01*
X156396872Y-44202400D01*
X156570533Y-44155534D01*
X156582903Y-44155547D01*
X156679473Y-44163797D01*
X156738379Y-44209820D01*
X156768930Y-44326505D01*
X156780434Y-44546742D01*
X156782200Y-44903422D01*
X156781067Y-45053556D01*
X156770438Y-45370828D01*
X156751017Y-45602915D01*
X156725756Y-45707756D01*
X156675076Y-45736558D01*
X156514089Y-45764200D01*
X156472328Y-45760925D01*
X156400644Y-45710810D01*
X156367149Y-45569654D01*
X156358867Y-45298534D01*
X156351391Y-45130351D01*
X156267881Y-44785576D01*
X156098310Y-44569205D01*
X155850867Y-44494200D01*
X155748331Y-44490762D01*
X155618033Y-44473034D01*
X155611496Y-44474076D01*
X155575447Y-44569571D01*
X155540077Y-44787006D01*
X155512200Y-45086867D01*
X155504420Y-45199327D01*
X155477495Y-45482114D01*
X155439648Y-45643416D01*
X155377923Y-45720072D01*
X155279367Y-45748922D01*
X155221147Y-45755182D01*
X155147149Y-45737313D01*
X155107603Y-45652376D01*
X155091759Y-45466287D01*
X155088867Y-45144964D01*
X155088796Y-45089392D01*
X155082170Y-44782998D01*
X155058060Y-44602739D01*
X155007002Y-44510876D01*
X154919533Y-44469668D01*
X154821279Y-44418768D01*
X154750200Y-44290460D01*
X154778979Y-44211878D01*
X154919533Y-44155534D01*
X155018031Y-44138141D01*
X155088867Y-44062940D01*
X155056949Y-44000651D01*
X154919533Y-43926066D01*
X154822788Y-43872712D01*
X154750200Y-43716961D01*
X154758078Y-43645490D01*
X154833000Y-43578660D01*
X155025367Y-43578669D01*
G37*
G36*
X158774430Y-42885560D02*
G01*
X159995087Y-42885781D01*
X161064494Y-42886405D01*
X161992655Y-42887643D01*
X162789573Y-42889704D01*
X163465251Y-42892797D01*
X164029692Y-42897131D01*
X164492902Y-42902917D01*
X164864881Y-42910364D01*
X165155635Y-42919681D01*
X165375166Y-42931078D01*
X165533477Y-42944765D01*
X165640573Y-42960949D01*
X165706457Y-42979843D01*
X165741131Y-43001654D01*
X165754600Y-43026592D01*
X165756867Y-43054867D01*
X165755597Y-43077971D01*
X165745059Y-43103535D01*
X165715238Y-43125931D01*
X165656132Y-43145369D01*
X165557736Y-43162058D01*
X165410048Y-43176208D01*
X165203064Y-43188029D01*
X164926781Y-43197730D01*
X164571195Y-43205520D01*
X164126303Y-43211609D01*
X163582101Y-43216206D01*
X162928586Y-43219522D01*
X162155755Y-43221765D01*
X161253605Y-43223144D01*
X160212131Y-43223871D01*
X159021330Y-43224153D01*
X157671200Y-43224200D01*
X156567970Y-43224174D01*
X155347313Y-43223953D01*
X154277906Y-43223328D01*
X153349745Y-43222091D01*
X152552828Y-43220030D01*
X151877150Y-43216937D01*
X151312708Y-43212602D01*
X150849499Y-43206816D01*
X150477519Y-43199369D01*
X150186766Y-43190052D01*
X149967235Y-43178655D01*
X149808923Y-43164969D01*
X149701827Y-43148784D01*
X149635943Y-43129891D01*
X149601269Y-43108080D01*
X149587800Y-43083142D01*
X149585533Y-43054867D01*
X149586803Y-43031763D01*
X149597342Y-43006199D01*
X149627162Y-42983803D01*
X149686269Y-42964365D01*
X149784664Y-42947676D01*
X149932352Y-42933525D01*
X150139336Y-42921705D01*
X150415619Y-42912004D01*
X150771205Y-42904214D01*
X151216098Y-42898125D01*
X151760299Y-42893527D01*
X152413814Y-42890212D01*
X153186645Y-42887969D01*
X154088796Y-42886589D01*
X155130270Y-42885863D01*
X156321070Y-42885581D01*
X157671200Y-42885534D01*
X158774430Y-42885560D01*
G37*
G36*
X162622248Y-41764477D02*
G01*
X162568143Y-42013441D01*
X162401115Y-42202055D01*
X162239031Y-42294105D01*
X161912902Y-42370745D01*
X161572322Y-42357017D01*
X161293930Y-42249626D01*
X161162315Y-42181658D01*
X161058428Y-42207292D01*
X161052654Y-42214816D01*
X160925277Y-42270183D01*
X160714203Y-42292867D01*
X160422867Y-42292867D01*
X160422867Y-41424592D01*
X161115021Y-41424592D01*
X161130066Y-41588650D01*
X161233976Y-41792354D01*
X161288573Y-41842348D01*
X161515937Y-41939144D01*
X161762058Y-41932684D01*
X161952757Y-41820103D01*
X162002222Y-41739240D01*
X161990081Y-41572142D01*
X161824249Y-41425345D01*
X161515402Y-41311272D01*
X161367172Y-41275781D01*
X161210269Y-41255876D01*
X161142081Y-41300990D01*
X161115021Y-41424592D01*
X160422867Y-41424592D01*
X160422867Y-41366255D01*
X160422937Y-41276927D01*
X160427215Y-40889852D01*
X160442837Y-40627147D01*
X160476339Y-40450969D01*
X160534256Y-40323477D01*
X160623126Y-40206827D01*
X160700327Y-40124620D01*
X160846115Y-40025004D01*
X161048556Y-39970437D01*
X161363960Y-39940689D01*
X161537951Y-39932136D01*
X161804348Y-39940170D01*
X162000670Y-39993549D01*
X162192398Y-40105283D01*
X162242601Y-40141901D01*
X162436070Y-40323338D01*
X162549503Y-40493700D01*
X162556412Y-40513033D01*
X162577528Y-40627508D01*
X162505207Y-40674873D01*
X162301622Y-40684200D01*
X162059263Y-40652782D01*
X161835001Y-40509598D01*
X161779051Y-40456169D01*
X161560449Y-40366408D01*
X161329311Y-40391331D01*
X161155983Y-40528937D01*
X161121199Y-40611413D01*
X161155742Y-40774532D01*
X161317850Y-40892676D01*
X161578953Y-40938200D01*
X161585503Y-40938228D01*
X161859865Y-40974188D01*
X162155218Y-41062320D01*
X162408447Y-41179179D01*
X162556437Y-41301317D01*
X162563669Y-41314601D01*
X162605243Y-41480724D01*
X162622904Y-41715222D01*
X162622584Y-41739240D01*
X162622248Y-41764477D01*
G37*
G36*
X161309434Y-38049227D02*
G01*
X161323182Y-38187578D01*
X161278295Y-38210163D01*
X161083674Y-38240669D01*
X160755673Y-38266699D01*
X160315910Y-38288242D01*
X159786004Y-38305283D01*
X159187571Y-38317809D01*
X158542230Y-38325808D01*
X157871598Y-38329266D01*
X157197293Y-38328171D01*
X156540933Y-38322509D01*
X155924136Y-38312267D01*
X155368519Y-38297432D01*
X154895700Y-38277991D01*
X154527297Y-38253930D01*
X154284928Y-38225237D01*
X154190210Y-38191899D01*
X154193163Y-38166315D01*
X154259075Y-38011964D01*
X154387218Y-37763103D01*
X154865522Y-37763103D01*
X154867501Y-37795201D01*
X154913354Y-37822980D01*
X155019562Y-37844865D01*
X155201691Y-37861531D01*
X155475311Y-37873652D01*
X155855989Y-37881905D01*
X156359292Y-37886963D01*
X157000789Y-37889504D01*
X157796047Y-37890200D01*
X160775344Y-37890200D01*
X160606644Y-37615034D01*
X160533253Y-37493068D01*
X160364981Y-37207812D01*
X160138325Y-36819770D01*
X159868509Y-36355270D01*
X159570758Y-35840640D01*
X159260296Y-35302209D01*
X158952346Y-34766304D01*
X158662132Y-34259252D01*
X158404879Y-33807383D01*
X158236168Y-33514160D01*
X158039871Y-33192210D01*
X157900324Y-32995888D01*
X157806083Y-32909758D01*
X157745702Y-32918383D01*
X157725230Y-32946088D01*
X157624478Y-33102679D01*
X157456912Y-33373889D01*
X157235336Y-33738183D01*
X156972552Y-34174026D01*
X156681361Y-34659884D01*
X156374568Y-35174222D01*
X156064974Y-35695505D01*
X155765381Y-36202199D01*
X155488592Y-36672768D01*
X155247409Y-37085677D01*
X155054635Y-37419393D01*
X154923072Y-37652379D01*
X154865522Y-37763103D01*
X154387218Y-37763103D01*
X154398697Y-37740810D01*
X154600775Y-37371679D01*
X154854055Y-36923395D01*
X155147285Y-36414781D01*
X155469210Y-35864663D01*
X155808578Y-35291864D01*
X156154135Y-34715209D01*
X156494626Y-34153522D01*
X156818800Y-33625628D01*
X157115402Y-33150351D01*
X157373178Y-32746514D01*
X157580876Y-32432943D01*
X157727242Y-32228462D01*
X157801022Y-32151895D01*
X157851534Y-32190603D01*
X157983147Y-32361122D01*
X158181756Y-32654329D01*
X158438712Y-33056017D01*
X158745364Y-33551979D01*
X159093064Y-34128008D01*
X159473161Y-34769896D01*
X159877007Y-35463436D01*
X160295951Y-36194421D01*
X160721344Y-36948643D01*
X160787226Y-37065174D01*
X160957595Y-37360889D01*
X161132168Y-37658412D01*
X161222579Y-37827610D01*
X161247109Y-37890200D01*
X161309434Y-38049227D01*
G37*
%TO.C,D1*%
X138271250Y-46618750D02*
X138271250Y-49078750D01*
X136801250Y-46618750D02*
X138271250Y-46618750D01*
X136801250Y-49078750D02*
X136801250Y-46618750D01*
%TO.C,R3*%
X143124974Y-35085250D02*
X142615526Y-35085250D01*
X143124974Y-34040250D02*
X142615526Y-34040250D01*
D11*
%TO.C,Conn2*%
X134742250Y-48913750D02*
X122804250Y-48913750D01*
X122804250Y-48913750D02*
X122804250Y-62883750D01*
X137282250Y-50818750D02*
X134742250Y-50818750D01*
X134742250Y-50818750D02*
X134742250Y-48913750D01*
X134742250Y-50818750D02*
X134742250Y-62883750D01*
X128392250Y-53358750D02*
X128392250Y-58438750D01*
X127122250Y-53358750D02*
X128392250Y-53358750D01*
X127122250Y-53358750D02*
X123312250Y-53358750D01*
X122804250Y-53358750D02*
X123312250Y-53358750D01*
X128392250Y-54628750D02*
X130932250Y-54628750D01*
X130932250Y-57168750D02*
X130932250Y-54628750D01*
X128392250Y-57168750D02*
X130932250Y-57168750D01*
X122804250Y-58438750D02*
X128392250Y-58438750D01*
X137282250Y-60978750D02*
X137282250Y-50818750D01*
X134742250Y-60978750D02*
X137282250Y-60978750D01*
X134742250Y-62883750D02*
X122804250Y-62883750D01*
%TD*%
M02*
