%TF.GenerationSoftware,KiCad,Pcbnew,7.0.7*%
%TF.CreationDate,2023-11-06T08:22:01-06:00*%
%TF.ProjectId,ScienceHeaterElement_2023,53636965-6e63-4654-9865-61746572456c,rev?*%
%TF.SameCoordinates,Original*%
%TF.FileFunction,Legend,Bot*%
%TF.FilePolarity,Positive*%
%FSLAX46Y46*%
G04 Gerber Fmt 4.6, Leading zero omitted, Abs format (unit mm)*
G04 Created by KiCad (PCBNEW 7.0.7) date 2023-11-06 08:22:01*
%MOMM*%
%LPD*%
G01*
G04 APERTURE LIST*
%ADD10C,0.150000*%
%ADD11C,0.120000*%
G04 APERTURE END LIST*
D10*
X161112634Y-47003569D02*
X161112634Y-47813092D01*
X161112634Y-47813092D02*
X161065015Y-47908330D01*
X161065015Y-47908330D02*
X161017396Y-47955950D01*
X161017396Y-47955950D02*
X160922158Y-48003569D01*
X160922158Y-48003569D02*
X160731682Y-48003569D01*
X160731682Y-48003569D02*
X160636444Y-47955950D01*
X160636444Y-47955950D02*
X160588825Y-47908330D01*
X160588825Y-47908330D02*
X160541206Y-47813092D01*
X160541206Y-47813092D02*
X160541206Y-47003569D01*
X159541206Y-48003569D02*
X160112634Y-48003569D01*
X159826920Y-48003569D02*
X159826920Y-47003569D01*
X159826920Y-47003569D02*
X159922158Y-47146426D01*
X159922158Y-47146426D02*
X160017396Y-47241664D01*
X160017396Y-47241664D02*
X160112634Y-47289283D01*
X138657830Y-40658940D02*
X138705450Y-40611321D01*
X138705450Y-40611321D02*
X138753069Y-40468464D01*
X138753069Y-40468464D02*
X138753069Y-40373226D01*
X138753069Y-40373226D02*
X138705450Y-40230369D01*
X138705450Y-40230369D02*
X138610211Y-40135131D01*
X138610211Y-40135131D02*
X138514973Y-40087512D01*
X138514973Y-40087512D02*
X138324497Y-40039893D01*
X138324497Y-40039893D02*
X138181640Y-40039893D01*
X138181640Y-40039893D02*
X137991164Y-40087512D01*
X137991164Y-40087512D02*
X137895926Y-40135131D01*
X137895926Y-40135131D02*
X137800688Y-40230369D01*
X137800688Y-40230369D02*
X137753069Y-40373226D01*
X137753069Y-40373226D02*
X137753069Y-40468464D01*
X137753069Y-40468464D02*
X137800688Y-40611321D01*
X137800688Y-40611321D02*
X137848307Y-40658940D01*
X138753069Y-41230369D02*
X138705450Y-41135131D01*
X138705450Y-41135131D02*
X138657830Y-41087512D01*
X138657830Y-41087512D02*
X138562592Y-41039893D01*
X138562592Y-41039893D02*
X138276878Y-41039893D01*
X138276878Y-41039893D02*
X138181640Y-41087512D01*
X138181640Y-41087512D02*
X138134021Y-41135131D01*
X138134021Y-41135131D02*
X138086402Y-41230369D01*
X138086402Y-41230369D02*
X138086402Y-41373226D01*
X138086402Y-41373226D02*
X138134021Y-41468464D01*
X138134021Y-41468464D02*
X138181640Y-41516083D01*
X138181640Y-41516083D02*
X138276878Y-41563702D01*
X138276878Y-41563702D02*
X138562592Y-41563702D01*
X138562592Y-41563702D02*
X138657830Y-41516083D01*
X138657830Y-41516083D02*
X138705450Y-41468464D01*
X138705450Y-41468464D02*
X138753069Y-41373226D01*
X138753069Y-41373226D02*
X138753069Y-41230369D01*
X138086402Y-41992274D02*
X138753069Y-41992274D01*
X138181640Y-41992274D02*
X138134021Y-42039893D01*
X138134021Y-42039893D02*
X138086402Y-42135131D01*
X138086402Y-42135131D02*
X138086402Y-42277988D01*
X138086402Y-42277988D02*
X138134021Y-42373226D01*
X138134021Y-42373226D02*
X138229259Y-42420845D01*
X138229259Y-42420845D02*
X138753069Y-42420845D01*
X138086402Y-42897036D02*
X138753069Y-42897036D01*
X138181640Y-42897036D02*
X138134021Y-42944655D01*
X138134021Y-42944655D02*
X138086402Y-43039893D01*
X138086402Y-43039893D02*
X138086402Y-43182750D01*
X138086402Y-43182750D02*
X138134021Y-43277988D01*
X138134021Y-43277988D02*
X138229259Y-43325607D01*
X138229259Y-43325607D02*
X138753069Y-43325607D01*
X138753069Y-44325607D02*
X138753069Y-43754179D01*
X138753069Y-44039893D02*
X137753069Y-44039893D01*
X137753069Y-44039893D02*
X137895926Y-43944655D01*
X137895926Y-43944655D02*
X137991164Y-43849417D01*
X137991164Y-43849417D02*
X138038783Y-43754179D01*
X141544307Y-40563511D02*
X141496688Y-40468273D01*
X141496688Y-40468273D02*
X141401450Y-40373035D01*
X141401450Y-40373035D02*
X141258592Y-40230178D01*
X141258592Y-40230178D02*
X141210973Y-40134940D01*
X141210973Y-40134940D02*
X141210973Y-40039702D01*
X141449069Y-40087321D02*
X141401450Y-39992083D01*
X141401450Y-39992083D02*
X141306211Y-39896845D01*
X141306211Y-39896845D02*
X141115735Y-39849226D01*
X141115735Y-39849226D02*
X140782402Y-39849226D01*
X140782402Y-39849226D02*
X140591926Y-39896845D01*
X140591926Y-39896845D02*
X140496688Y-39992083D01*
X140496688Y-39992083D02*
X140449069Y-40087321D01*
X140449069Y-40087321D02*
X140449069Y-40277797D01*
X140449069Y-40277797D02*
X140496688Y-40373035D01*
X140496688Y-40373035D02*
X140591926Y-40468273D01*
X140591926Y-40468273D02*
X140782402Y-40515892D01*
X140782402Y-40515892D02*
X141115735Y-40515892D01*
X141115735Y-40515892D02*
X141306211Y-40468273D01*
X141306211Y-40468273D02*
X141401450Y-40373035D01*
X141401450Y-40373035D02*
X141449069Y-40277797D01*
X141449069Y-40277797D02*
X141449069Y-40087321D01*
X141449069Y-41468273D02*
X141449069Y-40896845D01*
X141449069Y-41182559D02*
X140449069Y-41182559D01*
X140449069Y-41182559D02*
X140591926Y-41087321D01*
X140591926Y-41087321D02*
X140687164Y-40992083D01*
X140687164Y-40992083D02*
X140734783Y-40896845D01*
X143544916Y-51019569D02*
X143878249Y-50543378D01*
X144116344Y-51019569D02*
X144116344Y-50019569D01*
X144116344Y-50019569D02*
X143735392Y-50019569D01*
X143735392Y-50019569D02*
X143640154Y-50067188D01*
X143640154Y-50067188D02*
X143592535Y-50114807D01*
X143592535Y-50114807D02*
X143544916Y-50210045D01*
X143544916Y-50210045D02*
X143544916Y-50352902D01*
X143544916Y-50352902D02*
X143592535Y-50448140D01*
X143592535Y-50448140D02*
X143640154Y-50495759D01*
X143640154Y-50495759D02*
X143735392Y-50543378D01*
X143735392Y-50543378D02*
X144116344Y-50543378D01*
X142592535Y-51019569D02*
X143163963Y-51019569D01*
X142878249Y-51019569D02*
X142878249Y-50019569D01*
X142878249Y-50019569D02*
X142973487Y-50162426D01*
X142973487Y-50162426D02*
X143068725Y-50257664D01*
X143068725Y-50257664D02*
X143163963Y-50305283D01*
X142215069Y-48112083D02*
X141738878Y-47778750D01*
X142215069Y-47540655D02*
X141215069Y-47540655D01*
X141215069Y-47540655D02*
X141215069Y-47921607D01*
X141215069Y-47921607D02*
X141262688Y-48016845D01*
X141262688Y-48016845D02*
X141310307Y-48064464D01*
X141310307Y-48064464D02*
X141405545Y-48112083D01*
X141405545Y-48112083D02*
X141548402Y-48112083D01*
X141548402Y-48112083D02*
X141643640Y-48064464D01*
X141643640Y-48064464D02*
X141691259Y-48016845D01*
X141691259Y-48016845D02*
X141738878Y-47921607D01*
X141738878Y-47921607D02*
X141738878Y-47540655D01*
X141310307Y-48493036D02*
X141262688Y-48540655D01*
X141262688Y-48540655D02*
X141215069Y-48635893D01*
X141215069Y-48635893D02*
X141215069Y-48873988D01*
X141215069Y-48873988D02*
X141262688Y-48969226D01*
X141262688Y-48969226D02*
X141310307Y-49016845D01*
X141310307Y-49016845D02*
X141405545Y-49064464D01*
X141405545Y-49064464D02*
X141500783Y-49064464D01*
X141500783Y-49064464D02*
X141643640Y-49016845D01*
X141643640Y-49016845D02*
X142215069Y-48445417D01*
X142215069Y-48445417D02*
X142215069Y-49064464D01*
X136561069Y-47540655D02*
X135561069Y-47540655D01*
X135561069Y-47540655D02*
X135561069Y-47778750D01*
X135561069Y-47778750D02*
X135608688Y-47921607D01*
X135608688Y-47921607D02*
X135703926Y-48016845D01*
X135703926Y-48016845D02*
X135799164Y-48064464D01*
X135799164Y-48064464D02*
X135989640Y-48112083D01*
X135989640Y-48112083D02*
X136132497Y-48112083D01*
X136132497Y-48112083D02*
X136322973Y-48064464D01*
X136322973Y-48064464D02*
X136418211Y-48016845D01*
X136418211Y-48016845D02*
X136513450Y-47921607D01*
X136513450Y-47921607D02*
X136561069Y-47778750D01*
X136561069Y-47778750D02*
X136561069Y-47540655D01*
X136561069Y-49064464D02*
X136561069Y-48493036D01*
X136561069Y-48778750D02*
X135561069Y-48778750D01*
X135561069Y-48778750D02*
X135703926Y-48683512D01*
X135703926Y-48683512D02*
X135799164Y-48588274D01*
X135799164Y-48588274D02*
X135846783Y-48493036D01*
X143036916Y-33587569D02*
X143370249Y-33111378D01*
X143608344Y-33587569D02*
X143608344Y-32587569D01*
X143608344Y-32587569D02*
X143227392Y-32587569D01*
X143227392Y-32587569D02*
X143132154Y-32635188D01*
X143132154Y-32635188D02*
X143084535Y-32682807D01*
X143084535Y-32682807D02*
X143036916Y-32778045D01*
X143036916Y-32778045D02*
X143036916Y-32920902D01*
X143036916Y-32920902D02*
X143084535Y-33016140D01*
X143084535Y-33016140D02*
X143132154Y-33063759D01*
X143132154Y-33063759D02*
X143227392Y-33111378D01*
X143227392Y-33111378D02*
X143608344Y-33111378D01*
X142703582Y-32587569D02*
X142084535Y-32587569D01*
X142084535Y-32587569D02*
X142417868Y-32968521D01*
X142417868Y-32968521D02*
X142275011Y-32968521D01*
X142275011Y-32968521D02*
X142179773Y-33016140D01*
X142179773Y-33016140D02*
X142132154Y-33063759D01*
X142132154Y-33063759D02*
X142084535Y-33158997D01*
X142084535Y-33158997D02*
X142084535Y-33397092D01*
X142084535Y-33397092D02*
X142132154Y-33492330D01*
X142132154Y-33492330D02*
X142179773Y-33539950D01*
X142179773Y-33539950D02*
X142275011Y-33587569D01*
X142275011Y-33587569D02*
X142560725Y-33587569D01*
X142560725Y-33587569D02*
X142655963Y-33539950D01*
X142655963Y-33539950D02*
X142703582Y-33492330D01*
X138657830Y-54374940D02*
X138705450Y-54327321D01*
X138705450Y-54327321D02*
X138753069Y-54184464D01*
X138753069Y-54184464D02*
X138753069Y-54089226D01*
X138753069Y-54089226D02*
X138705450Y-53946369D01*
X138705450Y-53946369D02*
X138610211Y-53851131D01*
X138610211Y-53851131D02*
X138514973Y-53803512D01*
X138514973Y-53803512D02*
X138324497Y-53755893D01*
X138324497Y-53755893D02*
X138181640Y-53755893D01*
X138181640Y-53755893D02*
X137991164Y-53803512D01*
X137991164Y-53803512D02*
X137895926Y-53851131D01*
X137895926Y-53851131D02*
X137800688Y-53946369D01*
X137800688Y-53946369D02*
X137753069Y-54089226D01*
X137753069Y-54089226D02*
X137753069Y-54184464D01*
X137753069Y-54184464D02*
X137800688Y-54327321D01*
X137800688Y-54327321D02*
X137848307Y-54374940D01*
X138753069Y-54946369D02*
X138705450Y-54851131D01*
X138705450Y-54851131D02*
X138657830Y-54803512D01*
X138657830Y-54803512D02*
X138562592Y-54755893D01*
X138562592Y-54755893D02*
X138276878Y-54755893D01*
X138276878Y-54755893D02*
X138181640Y-54803512D01*
X138181640Y-54803512D02*
X138134021Y-54851131D01*
X138134021Y-54851131D02*
X138086402Y-54946369D01*
X138086402Y-54946369D02*
X138086402Y-55089226D01*
X138086402Y-55089226D02*
X138134021Y-55184464D01*
X138134021Y-55184464D02*
X138181640Y-55232083D01*
X138181640Y-55232083D02*
X138276878Y-55279702D01*
X138276878Y-55279702D02*
X138562592Y-55279702D01*
X138562592Y-55279702D02*
X138657830Y-55232083D01*
X138657830Y-55232083D02*
X138705450Y-55184464D01*
X138705450Y-55184464D02*
X138753069Y-55089226D01*
X138753069Y-55089226D02*
X138753069Y-54946369D01*
X138086402Y-55708274D02*
X138753069Y-55708274D01*
X138181640Y-55708274D02*
X138134021Y-55755893D01*
X138134021Y-55755893D02*
X138086402Y-55851131D01*
X138086402Y-55851131D02*
X138086402Y-55993988D01*
X138086402Y-55993988D02*
X138134021Y-56089226D01*
X138134021Y-56089226D02*
X138229259Y-56136845D01*
X138229259Y-56136845D02*
X138753069Y-56136845D01*
X138086402Y-56613036D02*
X138753069Y-56613036D01*
X138181640Y-56613036D02*
X138134021Y-56660655D01*
X138134021Y-56660655D02*
X138086402Y-56755893D01*
X138086402Y-56755893D02*
X138086402Y-56898750D01*
X138086402Y-56898750D02*
X138134021Y-56993988D01*
X138134021Y-56993988D02*
X138229259Y-57041607D01*
X138229259Y-57041607D02*
X138753069Y-57041607D01*
X137848307Y-57470179D02*
X137800688Y-57517798D01*
X137800688Y-57517798D02*
X137753069Y-57613036D01*
X137753069Y-57613036D02*
X137753069Y-57851131D01*
X137753069Y-57851131D02*
X137800688Y-57946369D01*
X137800688Y-57946369D02*
X137848307Y-57993988D01*
X137848307Y-57993988D02*
X137943545Y-58041607D01*
X137943545Y-58041607D02*
X138038783Y-58041607D01*
X138038783Y-58041607D02*
X138181640Y-57993988D01*
X138181640Y-57993988D02*
X138753069Y-57422560D01*
X138753069Y-57422560D02*
X138753069Y-58041607D01*
D11*
%TO.C,U1*%
X161050730Y-50708750D02*
X159650730Y-50708750D01*
X159650730Y-48388750D02*
X161550730Y-48388750D01*
D10*
%TO.C,Conn1*%
X134742250Y-36213750D02*
X122804250Y-36213750D01*
X137282250Y-38118750D02*
X134742250Y-38118750D01*
X134742250Y-38118750D02*
X134742250Y-36213750D01*
X127122250Y-40658750D02*
X128392250Y-40658750D01*
X127122250Y-40658750D02*
X123312250Y-40658750D01*
X122804250Y-40658750D02*
X123312250Y-40658750D01*
X128392250Y-43198750D02*
X128392250Y-40658750D01*
X122804250Y-43198750D02*
X128392250Y-43198750D01*
X137282250Y-45738750D02*
X137282250Y-38118750D01*
X134742250Y-45738750D02*
X137282250Y-45738750D01*
X134742250Y-47643750D02*
X134742250Y-38118750D01*
X134742250Y-47643750D02*
X122804250Y-47643750D01*
X122804250Y-47643750D02*
X122804250Y-36213750D01*
D11*
%TO.C,Q1*%
X146954250Y-40658750D02*
X146954250Y-38708750D01*
X146954250Y-40658750D02*
X146954250Y-42608750D01*
X141834250Y-40658750D02*
X141834250Y-37208750D01*
X141834250Y-40658750D02*
X141834250Y-42608750D01*
%TO.C,G\u002A\u002A\u002A*%
G36*
X172775622Y-62671739D02*
G01*
X172766424Y-62797969D01*
X172670816Y-63158124D01*
X172494206Y-63534721D01*
X172265001Y-63881963D01*
X172011605Y-64154056D01*
X171762424Y-64305206D01*
X171686907Y-64335851D01*
X171647008Y-64399687D01*
X171665828Y-64534036D01*
X171741385Y-64784058D01*
X171800669Y-64942535D01*
X171920858Y-65171126D01*
X171998834Y-65256605D01*
X172035442Y-65296735D01*
X172135993Y-65381853D01*
X172100262Y-65491785D01*
X172079120Y-65531578D01*
X172076033Y-65677407D01*
X172136322Y-65925058D01*
X172265212Y-66300130D01*
X172313570Y-66435431D01*
X172410273Y-66739383D01*
X172466326Y-66968333D01*
X172470800Y-67080791D01*
X172469244Y-67083285D01*
X172421421Y-67127985D01*
X172366895Y-67094831D01*
X172294040Y-66962946D01*
X172191231Y-66711456D01*
X172046845Y-66319486D01*
X171780852Y-65581271D01*
X170779163Y-65581271D01*
X169777474Y-65581271D01*
X169662321Y-65913884D01*
X169620685Y-66047178D01*
X169591855Y-66287358D01*
X169650081Y-66531101D01*
X169704434Y-66713618D01*
X169702011Y-66733107D01*
X169686752Y-66855843D01*
X169567383Y-67001318D01*
X169499255Y-67064735D01*
X169342533Y-67141453D01*
X169146325Y-67104129D01*
X169040077Y-67058378D01*
X168936178Y-66942921D01*
X168919888Y-66804892D01*
X169075740Y-66804892D01*
X169110630Y-66846851D01*
X169255063Y-66901520D01*
X169398216Y-66858847D01*
X169463053Y-66733107D01*
X169423988Y-66570155D01*
X169304962Y-66501586D01*
X169147525Y-66582465D01*
X169081677Y-66678431D01*
X169075740Y-66804892D01*
X168919888Y-66804892D01*
X168910879Y-66728557D01*
X168912850Y-66655925D01*
X168966778Y-66455059D01*
X169120630Y-66331215D01*
X169174364Y-66297902D01*
X169333211Y-66121515D01*
X169449561Y-65887501D01*
X169499094Y-65656617D01*
X169457492Y-65489621D01*
X169420500Y-65392672D01*
X169524108Y-65296735D01*
X169568878Y-65256605D01*
X169887802Y-65256605D01*
X169934898Y-65265352D01*
X170120274Y-65274965D01*
X170413599Y-65281522D01*
X170779775Y-65283947D01*
X171065154Y-65282503D01*
X171378753Y-65276821D01*
X171592650Y-65267829D01*
X171671748Y-65256605D01*
X171665291Y-65229104D01*
X171619278Y-65080584D01*
X171543574Y-64853093D01*
X171415400Y-64476923D01*
X170779775Y-64476923D01*
X170144149Y-64476923D01*
X170015976Y-64853093D01*
X169975892Y-64972110D01*
X169912713Y-65167344D01*
X169887802Y-65256605D01*
X169568878Y-65256605D01*
X169589173Y-65238414D01*
X169711359Y-65044434D01*
X169818165Y-64784058D01*
X169883078Y-64573367D01*
X169913412Y-64419484D01*
X169885423Y-64345151D01*
X169797126Y-64305206D01*
X169702168Y-64263517D01*
X169447962Y-64059705D01*
X169200629Y-63752826D01*
X168988576Y-63388676D01*
X168840207Y-63013048D01*
X168783928Y-62671739D01*
X168783875Y-62650502D01*
X168939854Y-62650502D01*
X168998243Y-62926589D01*
X169038877Y-63080759D01*
X169269690Y-63551488D01*
X169626421Y-63943220D01*
X170077370Y-64218019D01*
X170180822Y-64257480D01*
X170691679Y-64352848D01*
X171196563Y-64300717D01*
X171665722Y-64116556D01*
X172069401Y-63815835D01*
X172377847Y-63414023D01*
X172561307Y-62926589D01*
X172619696Y-62650502D01*
X170779775Y-62650502D01*
X168939854Y-62650502D01*
X168783875Y-62650502D01*
X168783454Y-62480602D01*
X170779775Y-62480602D01*
X172776096Y-62480602D01*
X172775675Y-62650502D01*
X172775622Y-62671739D01*
G37*
G36*
X171018756Y-60415024D02*
G01*
X171043131Y-60601256D01*
X171054589Y-60693384D01*
X171126547Y-60955277D01*
X171240720Y-61235859D01*
X171304518Y-61380751D01*
X171372485Y-61593058D01*
X171375862Y-61713727D01*
X171362040Y-61748803D01*
X171414551Y-61801003D01*
X171466907Y-61783441D01*
X171558811Y-61666456D01*
X171609779Y-61595673D01*
X171677646Y-61633033D01*
X171732610Y-61782771D01*
X171756698Y-62013378D01*
X171759581Y-62102327D01*
X171783886Y-62194347D01*
X171841648Y-62140803D01*
X171852290Y-62124530D01*
X171911267Y-62063669D01*
X171925297Y-62162040D01*
X171900485Y-62248369D01*
X171786876Y-62297699D01*
X171544323Y-62310702D01*
X171430116Y-62307061D01*
X171237987Y-62278650D01*
X171162049Y-62231283D01*
X171135908Y-62109013D01*
X171069032Y-61912721D01*
X170976014Y-61673579D01*
X170877895Y-61970903D01*
X170848224Y-62058447D01*
X170787765Y-62180476D01*
X170690084Y-62246162D01*
X170511008Y-62276715D01*
X170206364Y-62293346D01*
X169632952Y-62318465D01*
X169634253Y-62038497D01*
X169635243Y-61984014D01*
X169663418Y-61745860D01*
X169718679Y-61626536D01*
X169785401Y-61642680D01*
X169847961Y-61810931D01*
X169911537Y-62098328D01*
X170028447Y-61698994D01*
X170044122Y-61647265D01*
X170137454Y-61401650D01*
X170224016Y-61259995D01*
X170287739Y-61241231D01*
X170312551Y-61364293D01*
X170332785Y-61549949D01*
X170393123Y-61727231D01*
X170470302Y-61800752D01*
X170491404Y-61765855D01*
X170515531Y-61603965D01*
X170524925Y-61354766D01*
X170527864Y-61227744D01*
X170582357Y-60901249D01*
X170721847Y-60632943D01*
X170834384Y-60484282D01*
X170954016Y-60375555D01*
X171018756Y-60415024D01*
G37*
G36*
X172266397Y-63119961D02*
G01*
X172223110Y-63223163D01*
X172085519Y-63411139D01*
X171886358Y-63629660D01*
X171693933Y-63803013D01*
X171482298Y-63952282D01*
X171334184Y-64009699D01*
X171268940Y-64006599D01*
X171171560Y-63960360D01*
X171228998Y-63865232D01*
X171438136Y-63729619D01*
X171475847Y-63707705D01*
X171713251Y-63518218D01*
X171916310Y-63285552D01*
X171972223Y-63207047D01*
X172129496Y-63032657D01*
X172230633Y-63002172D01*
X172266397Y-63119961D01*
G37*
%TO.C,R1*%
X139258250Y-56538750D02*
X147498250Y-56538750D01*
X139258250Y-67778750D02*
X139258250Y-56538750D01*
X139258250Y-67778750D02*
X147498250Y-67778750D01*
X140838250Y-56538750D02*
X140838250Y-53708750D01*
X145918250Y-56538750D02*
X145918250Y-53724750D01*
X147498250Y-67778750D02*
X147498250Y-56538750D01*
%TO.C,R2*%
X139807750Y-48533474D02*
X139807750Y-48024026D01*
X140852750Y-48533474D02*
X140852750Y-48024026D01*
%TO.C,G\u002A\u002A\u002A*%
G36*
X161113484Y-59563027D02*
G01*
X161127232Y-59701378D01*
X161082345Y-59723963D01*
X160887724Y-59754469D01*
X160559723Y-59780499D01*
X160119960Y-59802042D01*
X159590054Y-59819083D01*
X158991621Y-59831609D01*
X158346280Y-59839608D01*
X157675648Y-59843066D01*
X157001343Y-59841971D01*
X156344983Y-59836309D01*
X155728186Y-59826067D01*
X155172569Y-59811232D01*
X154699750Y-59791791D01*
X154331347Y-59767730D01*
X154088978Y-59739037D01*
X153994260Y-59705699D01*
X153997213Y-59680115D01*
X154063125Y-59525764D01*
X154191268Y-59276903D01*
X154669572Y-59276903D01*
X154671551Y-59309001D01*
X154717404Y-59336780D01*
X154823612Y-59358665D01*
X155005741Y-59375331D01*
X155279361Y-59387452D01*
X155660039Y-59395705D01*
X156163342Y-59400763D01*
X156804839Y-59403304D01*
X157600097Y-59404000D01*
X160579394Y-59404000D01*
X160410694Y-59128834D01*
X160337303Y-59006868D01*
X160169031Y-58721612D01*
X159942375Y-58333570D01*
X159672559Y-57869070D01*
X159374808Y-57354440D01*
X159064346Y-56816009D01*
X158756396Y-56280104D01*
X158466182Y-55773052D01*
X158208929Y-55321183D01*
X158040218Y-55027960D01*
X157843921Y-54706010D01*
X157704374Y-54509688D01*
X157610133Y-54423558D01*
X157549752Y-54432183D01*
X157529280Y-54459888D01*
X157428528Y-54616479D01*
X157260962Y-54887689D01*
X157039386Y-55251983D01*
X156776602Y-55687826D01*
X156485411Y-56173684D01*
X156178618Y-56688022D01*
X155869024Y-57209305D01*
X155569431Y-57715999D01*
X155292642Y-58186568D01*
X155051459Y-58599477D01*
X154858685Y-58933193D01*
X154727122Y-59166179D01*
X154669572Y-59276903D01*
X154191268Y-59276903D01*
X154202747Y-59254610D01*
X154404825Y-58885479D01*
X154658105Y-58437195D01*
X154951335Y-57928581D01*
X155273260Y-57378463D01*
X155612628Y-56805664D01*
X155958185Y-56229009D01*
X156298676Y-55667322D01*
X156622850Y-55139428D01*
X156919452Y-54664151D01*
X157177228Y-54260314D01*
X157384926Y-53946743D01*
X157531292Y-53742262D01*
X157605072Y-53665695D01*
X157655584Y-53704403D01*
X157787197Y-53874922D01*
X157985806Y-54168129D01*
X158242762Y-54569817D01*
X158549414Y-55065779D01*
X158897114Y-55641808D01*
X159277211Y-56283696D01*
X159681057Y-56977236D01*
X160100001Y-57708221D01*
X160525394Y-58462443D01*
X160591276Y-58578974D01*
X160761645Y-58874689D01*
X160936218Y-59172212D01*
X161026629Y-59341410D01*
X161051159Y-59404000D01*
X161113484Y-59563027D01*
G37*
G36*
X162426298Y-63278277D02*
G01*
X162372193Y-63527241D01*
X162205165Y-63715855D01*
X162043081Y-63807905D01*
X161716952Y-63884545D01*
X161376372Y-63870817D01*
X161097980Y-63763426D01*
X160966365Y-63695458D01*
X160862478Y-63721092D01*
X160856704Y-63728616D01*
X160729327Y-63783983D01*
X160518253Y-63806667D01*
X160226917Y-63806667D01*
X160226917Y-62938392D01*
X160919071Y-62938392D01*
X160934116Y-63102450D01*
X161038026Y-63306154D01*
X161092623Y-63356148D01*
X161319987Y-63452944D01*
X161566108Y-63446484D01*
X161756807Y-63333903D01*
X161806272Y-63253040D01*
X161794131Y-63085942D01*
X161628299Y-62939145D01*
X161319452Y-62825072D01*
X161171222Y-62789581D01*
X161014319Y-62769676D01*
X160946131Y-62814790D01*
X160919071Y-62938392D01*
X160226917Y-62938392D01*
X160226917Y-62880055D01*
X160226987Y-62790727D01*
X160231265Y-62403652D01*
X160246887Y-62140947D01*
X160280389Y-61964769D01*
X160338306Y-61837277D01*
X160427176Y-61720627D01*
X160504377Y-61638420D01*
X160650165Y-61538804D01*
X160852606Y-61484237D01*
X161168010Y-61454489D01*
X161342001Y-61445936D01*
X161608398Y-61453970D01*
X161804720Y-61507349D01*
X161996448Y-61619083D01*
X162046651Y-61655701D01*
X162240120Y-61837138D01*
X162353553Y-62007500D01*
X162360462Y-62026833D01*
X162381578Y-62141308D01*
X162309257Y-62188673D01*
X162105672Y-62198000D01*
X161863313Y-62166582D01*
X161639051Y-62023398D01*
X161583101Y-61969969D01*
X161364499Y-61880208D01*
X161133361Y-61905131D01*
X160960033Y-62042737D01*
X160925249Y-62125213D01*
X160959792Y-62288332D01*
X161121900Y-62406476D01*
X161383003Y-62452000D01*
X161389553Y-62452028D01*
X161663915Y-62487988D01*
X161959268Y-62576120D01*
X162212497Y-62692979D01*
X162360487Y-62815117D01*
X162367719Y-62828401D01*
X162409293Y-62994524D01*
X162426954Y-63229022D01*
X162426634Y-63253040D01*
X162426298Y-63278277D01*
G37*
G36*
X158578480Y-64399360D02*
G01*
X159799137Y-64399581D01*
X160868544Y-64400205D01*
X161796705Y-64401443D01*
X162593623Y-64403504D01*
X163269301Y-64406597D01*
X163833742Y-64410931D01*
X164296952Y-64416717D01*
X164668931Y-64424164D01*
X164959685Y-64433481D01*
X165179216Y-64444878D01*
X165337527Y-64458565D01*
X165444623Y-64474749D01*
X165510507Y-64493643D01*
X165545181Y-64515454D01*
X165558650Y-64540392D01*
X165560917Y-64568667D01*
X165559647Y-64591771D01*
X165549109Y-64617335D01*
X165519288Y-64639731D01*
X165460182Y-64659169D01*
X165361786Y-64675858D01*
X165214098Y-64690008D01*
X165007114Y-64701829D01*
X164730831Y-64711530D01*
X164375245Y-64719320D01*
X163930353Y-64725409D01*
X163386151Y-64730006D01*
X162732636Y-64733322D01*
X161959805Y-64735565D01*
X161057655Y-64736944D01*
X160016181Y-64737671D01*
X158825380Y-64737953D01*
X157475250Y-64738000D01*
X156372020Y-64737974D01*
X155151363Y-64737753D01*
X154081956Y-64737128D01*
X153153795Y-64735891D01*
X152356878Y-64733830D01*
X151681200Y-64730737D01*
X151116758Y-64726402D01*
X150653549Y-64720616D01*
X150281569Y-64713169D01*
X149990816Y-64703852D01*
X149771285Y-64692455D01*
X149612973Y-64678769D01*
X149505877Y-64662584D01*
X149439993Y-64643691D01*
X149405319Y-64621880D01*
X149391850Y-64596942D01*
X149389583Y-64568667D01*
X149390853Y-64545563D01*
X149401392Y-64519999D01*
X149431212Y-64497603D01*
X149490319Y-64478165D01*
X149588714Y-64461476D01*
X149736402Y-64447325D01*
X149943386Y-64435505D01*
X150219669Y-64425804D01*
X150575255Y-64418014D01*
X151020148Y-64411925D01*
X151564349Y-64407327D01*
X152217864Y-64404012D01*
X152990695Y-64401769D01*
X153892846Y-64400389D01*
X154934320Y-64399663D01*
X156125120Y-64399381D01*
X157475250Y-64399334D01*
X158578480Y-64399360D01*
G37*
G36*
X154829417Y-65092469D02*
G01*
X154906428Y-65102917D01*
X155096896Y-65188901D01*
X155231583Y-65392334D01*
X155277962Y-65483038D01*
X155410903Y-65628025D01*
X155605917Y-65667501D01*
X155808392Y-65703941D01*
X156008083Y-65809456D01*
X156085650Y-65877001D01*
X156150816Y-65902428D01*
X156162917Y-65809456D01*
X156200922Y-65716200D01*
X156374583Y-65669334D01*
X156386953Y-65669347D01*
X156483523Y-65677597D01*
X156542429Y-65723620D01*
X156572980Y-65840305D01*
X156584484Y-66060542D01*
X156586250Y-66417222D01*
X156585117Y-66567356D01*
X156574488Y-66884628D01*
X156555067Y-67116715D01*
X156529806Y-67221556D01*
X156479126Y-67250358D01*
X156318139Y-67278000D01*
X156276378Y-67274725D01*
X156204694Y-67224610D01*
X156171199Y-67083454D01*
X156162917Y-66812334D01*
X156155441Y-66644151D01*
X156071931Y-66299376D01*
X155902360Y-66083005D01*
X155654917Y-66008000D01*
X155552381Y-66004562D01*
X155422083Y-65986834D01*
X155415546Y-65987876D01*
X155379497Y-66083371D01*
X155344127Y-66300806D01*
X155316250Y-66600667D01*
X155308470Y-66713127D01*
X155281545Y-66995914D01*
X155243698Y-67157216D01*
X155181973Y-67233872D01*
X155083417Y-67262722D01*
X155025197Y-67268982D01*
X154951199Y-67251113D01*
X154911653Y-67166176D01*
X154895809Y-66980087D01*
X154892917Y-66658764D01*
X154892846Y-66603192D01*
X154886220Y-66296798D01*
X154862110Y-66116539D01*
X154811052Y-66024676D01*
X154723583Y-65983468D01*
X154625329Y-65932568D01*
X154554250Y-65804260D01*
X154583029Y-65725678D01*
X154723583Y-65669334D01*
X154822081Y-65651941D01*
X154892917Y-65576740D01*
X154860999Y-65514451D01*
X154723583Y-65439866D01*
X154626838Y-65386512D01*
X154554250Y-65230761D01*
X154562128Y-65159290D01*
X154637050Y-65092460D01*
X154829417Y-65092469D01*
G37*
G36*
X154436198Y-66959651D02*
G01*
X154281411Y-67146199D01*
X154178594Y-67205657D01*
X153854599Y-67273622D01*
X153532684Y-67190355D01*
X153420745Y-67145955D01*
X153368917Y-67190355D01*
X153319581Y-67247177D01*
X153163497Y-67278000D01*
X153072118Y-67273383D01*
X153008688Y-67236746D01*
X152979772Y-67133812D01*
X152976753Y-66930310D01*
X152989636Y-66624682D01*
X153456971Y-66624682D01*
X153475931Y-66781762D01*
X153555183Y-66922400D01*
X153637173Y-66979919D01*
X153819773Y-67009274D01*
X153978465Y-66944940D01*
X154046250Y-66803182D01*
X154034747Y-66763511D01*
X153917522Y-66651125D01*
X153727728Y-66556061D01*
X153532738Y-66516000D01*
X153502339Y-66524254D01*
X153456971Y-66624682D01*
X152989636Y-66624682D01*
X152991015Y-66591969D01*
X152995770Y-66507334D01*
X153027297Y-66180619D01*
X153072109Y-65924220D01*
X153122135Y-65787636D01*
X153242723Y-65716580D01*
X153486312Y-65672361D01*
X153775057Y-65673948D01*
X154044476Y-65720069D01*
X154230083Y-65809456D01*
X154326966Y-65922345D01*
X154384917Y-66063456D01*
X154331662Y-66144783D01*
X154189469Y-66174967D01*
X154031281Y-66142773D01*
X153930966Y-66050334D01*
X153906574Y-66007618D01*
X153765977Y-65931509D01*
X153596017Y-65949129D01*
X153480922Y-66058878D01*
X153485666Y-66195281D01*
X153624670Y-66303684D01*
X153879245Y-66345370D01*
X154152167Y-66402275D01*
X154352273Y-66549253D01*
X154453384Y-66747857D01*
X154448895Y-66803182D01*
X154436198Y-66959651D01*
G37*
G36*
X156689026Y-60802384D02*
G01*
X156824680Y-60831530D01*
X156883758Y-60935253D01*
X156908618Y-61160834D01*
X156932551Y-61360448D01*
X156990108Y-61487525D01*
X157099118Y-61520667D01*
X157222991Y-61565399D01*
X157263583Y-61732334D01*
X157227035Y-61894391D01*
X157094250Y-61944000D01*
X157051311Y-61946261D01*
X156983087Y-61979403D01*
X156945025Y-62079249D01*
X156928508Y-62279992D01*
X156924917Y-62615822D01*
X156924551Y-62699081D01*
X156902153Y-63159481D01*
X156839827Y-63481287D01*
X156730305Y-63688622D01*
X156566315Y-63805607D01*
X156562976Y-63806964D01*
X156341084Y-63856551D01*
X156078250Y-63866834D01*
X155918997Y-63848264D01*
X155799809Y-63779110D01*
X155755716Y-63622276D01*
X155749599Y-63528007D01*
X155797608Y-63412935D01*
X155967383Y-63368276D01*
X156078123Y-63350650D01*
X156152747Y-63304677D01*
X156194264Y-63195991D01*
X156215616Y-62989083D01*
X156229745Y-62648445D01*
X156254240Y-61955890D01*
X156018078Y-61928778D01*
X155834817Y-61867942D01*
X155754862Y-61711167D01*
X155749332Y-61624168D01*
X155804816Y-61540322D01*
X155982827Y-61520667D01*
X156050360Y-61519634D01*
X156178886Y-61490861D01*
X156237803Y-61386953D01*
X156263882Y-61160834D01*
X156274042Y-61036155D01*
X156309778Y-60873993D01*
X156399728Y-60811368D01*
X156586250Y-60801000D01*
X156689026Y-60802384D01*
G37*
G36*
X164429995Y-60554979D02*
G01*
X164869517Y-60685356D01*
X165265943Y-60940551D01*
X165496773Y-61204286D01*
X165694765Y-61623196D01*
X165776421Y-62090230D01*
X165745199Y-62568293D01*
X165604559Y-63020291D01*
X165357959Y-63409130D01*
X165008858Y-63697715D01*
X164666258Y-63835257D01*
X164226571Y-63896448D01*
X163798982Y-63851680D01*
X163443389Y-63700834D01*
X163305690Y-63598167D01*
X162981094Y-63247706D01*
X162803892Y-62854167D01*
X162787511Y-62780650D01*
X162788833Y-62671076D01*
X162879331Y-62628503D01*
X163099062Y-62621334D01*
X163203829Y-62624021D01*
X163409145Y-62665929D01*
X163501857Y-62769500D01*
X163631422Y-63006897D01*
X163881425Y-63219907D01*
X164184242Y-63298667D01*
X164314639Y-63292158D01*
X164658209Y-63185619D01*
X164893585Y-62949692D01*
X165019646Y-62585960D01*
X165035271Y-62096009D01*
X164980786Y-61752051D01*
X164823385Y-61412863D01*
X164567941Y-61210574D01*
X164213013Y-61143515D01*
X164072265Y-61155292D01*
X163802798Y-61244208D01*
X163605485Y-61394728D01*
X163528917Y-61576122D01*
X163528458Y-61584451D01*
X163438435Y-61663778D01*
X163190250Y-61690000D01*
X162973096Y-61666885D01*
X162858524Y-61576008D01*
X162875033Y-61400204D01*
X163017489Y-61122611D01*
X163213928Y-60883524D01*
X163566093Y-60656987D01*
X163983484Y-60546497D01*
X164429995Y-60554979D01*
G37*
G36*
X165560917Y-66120889D02*
G01*
X165560902Y-66144635D01*
X165556100Y-66546607D01*
X165543910Y-66883177D01*
X165526109Y-67119707D01*
X165504472Y-67221556D01*
X165453793Y-67250358D01*
X165292806Y-67278000D01*
X165235295Y-67270744D01*
X165173324Y-67209967D01*
X165144597Y-67055630D01*
X165137583Y-66770000D01*
X165124277Y-66460063D01*
X165072744Y-66243549D01*
X164970171Y-66094587D01*
X164843034Y-65992674D01*
X164679823Y-65967179D01*
X164560594Y-66101585D01*
X164487179Y-66393215D01*
X164461406Y-66839389D01*
X164458353Y-67039270D01*
X164437156Y-67203044D01*
X164380193Y-67264485D01*
X164269750Y-67262722D01*
X164217217Y-67253201D01*
X164141498Y-67212295D01*
X164100675Y-67112243D01*
X164084596Y-66916336D01*
X164083109Y-66587863D01*
X164092944Y-66295648D01*
X164132715Y-65979158D01*
X164199310Y-65804696D01*
X164206686Y-65796426D01*
X164364792Y-65711368D01*
X164586560Y-65672512D01*
X164798199Y-65685007D01*
X164925917Y-65754000D01*
X164965193Y-65806994D01*
X165053980Y-65834167D01*
X165114936Y-65712835D01*
X165137583Y-65457667D01*
X165138392Y-65354903D01*
X165156751Y-65170080D01*
X165218635Y-65092458D01*
X165349250Y-65076667D01*
X165560917Y-65076667D01*
X165560917Y-66120889D01*
G37*
G36*
X158219384Y-65671046D02*
G01*
X158301417Y-65697373D01*
X158344615Y-65784422D01*
X158361414Y-65968396D01*
X158364250Y-66285495D01*
X158359841Y-66503934D01*
X158318763Y-66867585D01*
X158232449Y-67089828D01*
X158067277Y-67227231D01*
X157803808Y-67275297D01*
X157517156Y-67193105D01*
X157418506Y-67154266D01*
X157306058Y-67193105D01*
X157251411Y-67239011D01*
X157089253Y-67278000D01*
X157019606Y-67267867D01*
X156968587Y-67213719D01*
X156940063Y-67084170D01*
X156927637Y-66847919D01*
X156924917Y-66473667D01*
X156924970Y-66337613D01*
X156928252Y-66012450D01*
X156942707Y-65814759D01*
X156976683Y-65712821D01*
X157038526Y-65674919D01*
X157136583Y-65669334D01*
X157161018Y-65669477D01*
X157266051Y-65684765D01*
X157321992Y-65752844D01*
X157344254Y-65912554D01*
X157348250Y-66202734D01*
X157356252Y-66449568D01*
X157408484Y-66735821D01*
X157518000Y-66891995D01*
X157694792Y-66939334D01*
X157807304Y-66908394D01*
X157887049Y-66787293D01*
X157928829Y-66549913D01*
X157940917Y-66170409D01*
X157940917Y-66164833D01*
X157945737Y-65888016D01*
X157971350Y-65739843D01*
X158034663Y-65680290D01*
X158152583Y-65669334D01*
X158219384Y-65671046D01*
G37*
G36*
X159681515Y-65715809D02*
G01*
X159888250Y-65838667D01*
X159927354Y-65880407D01*
X160039442Y-66095779D01*
X159986868Y-66290392D01*
X159773053Y-66458924D01*
X159401417Y-66596054D01*
X159237619Y-66652572D01*
X159075090Y-66762816D01*
X159049893Y-66876984D01*
X159175508Y-66972608D01*
X159265652Y-67003483D01*
X159430121Y-67007328D01*
X159584400Y-66892422D01*
X159675060Y-66819191D01*
X159849538Y-66739342D01*
X159996063Y-66729609D01*
X160057583Y-66801013D01*
X160028555Y-66914069D01*
X159897476Y-67097316D01*
X159718917Y-67219243D01*
X159441148Y-67280498D01*
X159117453Y-67258556D01*
X158851477Y-67143452D01*
X158678621Y-66952089D01*
X158634288Y-66701371D01*
X158675899Y-66556979D01*
X158797439Y-66445774D01*
X159041583Y-66345520D01*
X159236695Y-66277044D01*
X159480679Y-66172353D01*
X159591050Y-66085012D01*
X159588301Y-66002150D01*
X159489259Y-65936550D01*
X159308823Y-65937474D01*
X159144505Y-66023612D01*
X159088099Y-66070218D01*
X158915482Y-66134924D01*
X158766401Y-66109206D01*
X158702917Y-65996830D01*
X158738002Y-65883279D01*
X158895862Y-65755320D01*
X159137569Y-65680508D01*
X159415371Y-65665214D01*
X159681515Y-65715809D01*
G37*
G36*
X150998931Y-66396659D02*
G01*
X150957042Y-66724618D01*
X150750763Y-67030513D01*
X150594999Y-67158423D01*
X150277414Y-67280324D01*
X149956380Y-67242702D01*
X149660902Y-67045167D01*
X149431917Y-66812334D01*
X149632182Y-66783999D01*
X149774618Y-66786078D01*
X149924282Y-66847499D01*
X150084051Y-66926506D01*
X150308090Y-66920077D01*
X150487172Y-66816042D01*
X150551748Y-66708692D01*
X150515686Y-66606173D01*
X150326710Y-66559447D01*
X149980651Y-66566461D01*
X149474250Y-66605927D01*
X149474250Y-66354018D01*
X149500721Y-66180312D01*
X149897583Y-66180312D01*
X149905744Y-66198190D01*
X150022493Y-66243747D01*
X150233593Y-66262000D01*
X150379737Y-66257167D01*
X150512627Y-66221655D01*
X150523380Y-66141546D01*
X150492232Y-66086495D01*
X150350570Y-65972517D01*
X150306344Y-65961946D01*
X150131367Y-65985532D01*
X149969057Y-66070273D01*
X149897583Y-66180312D01*
X149500721Y-66180312D01*
X149509000Y-66125988D01*
X149662532Y-65868027D01*
X149903410Y-65704896D01*
X150192875Y-65649768D01*
X150492172Y-65715813D01*
X150762543Y-65916203D01*
X150876225Y-66066012D01*
X150904256Y-66141546D01*
X150998931Y-66396659D01*
G37*
G36*
X161578257Y-65246894D02*
G01*
X161715947Y-65296545D01*
X161750917Y-65457667D01*
X161775774Y-65595733D01*
X161877917Y-65669334D01*
X161951977Y-65700763D01*
X162004917Y-65838667D01*
X161981345Y-65937414D01*
X161877917Y-66008000D01*
X161850310Y-66011652D01*
X161790188Y-66076499D01*
X161759509Y-66246781D01*
X161750917Y-66554126D01*
X161750318Y-66649793D01*
X161733863Y-66933055D01*
X161687825Y-67098525D01*
X161602750Y-67186552D01*
X161490406Y-67232024D01*
X161305600Y-67269851D01*
X161143278Y-67275850D01*
X161073583Y-67242592D01*
X161067020Y-67208226D01*
X161022192Y-67073258D01*
X161020182Y-66974667D01*
X161149192Y-66939334D01*
X161214921Y-66934416D01*
X161288202Y-66884931D01*
X161320411Y-66748297D01*
X161327583Y-66483542D01*
X161326839Y-66384667D01*
X161309671Y-66154840D01*
X161258373Y-66035859D01*
X161157901Y-65983377D01*
X161105026Y-65960896D01*
X161035924Y-65849567D01*
X161074968Y-65727054D01*
X161209642Y-65669334D01*
X161286605Y-65623174D01*
X161327583Y-65457667D01*
X161328477Y-65418660D01*
X161378128Y-65280970D01*
X161539250Y-65246000D01*
X161578257Y-65246894D01*
G37*
G36*
X154383057Y-62682114D02*
G01*
X154346984Y-62943117D01*
X154212890Y-63289121D01*
X154010829Y-63583979D01*
X153773929Y-63768602D01*
X153451968Y-63861337D01*
X153040571Y-63870196D01*
X152652569Y-63777679D01*
X152349154Y-63591395D01*
X152101059Y-63262967D01*
X151969610Y-62867480D01*
X151969226Y-62663667D01*
X152606917Y-62663667D01*
X152608324Y-62715726D01*
X152652298Y-62987142D01*
X152738718Y-63195161D01*
X152887467Y-63328918D01*
X153157250Y-63383334D01*
X153285812Y-63372090D01*
X153522268Y-63252727D01*
X153661789Y-62999304D01*
X153707583Y-62607296D01*
X153697811Y-62393024D01*
X153642438Y-62202603D01*
X153519411Y-62075801D01*
X153320095Y-61971063D01*
X153044486Y-61945279D01*
X152817573Y-62062542D01*
X152663626Y-62307217D01*
X152606917Y-62663667D01*
X151969226Y-62663667D01*
X151968842Y-62459597D01*
X152092820Y-62075241D01*
X152335608Y-61750333D01*
X152691272Y-61520796D01*
X152913400Y-61460977D01*
X153289063Y-61454566D01*
X153653655Y-61538165D01*
X153935434Y-61701361D01*
X154130795Y-61932624D01*
X154315477Y-62305285D01*
X154369639Y-62607296D01*
X154383057Y-62682114D01*
G37*
G36*
X152080577Y-65681442D02*
G01*
X152385461Y-65786137D01*
X152576018Y-66009970D01*
X152668197Y-66367132D01*
X152676341Y-66444701D01*
X152678801Y-66674746D01*
X152613674Y-66839690D01*
X152454652Y-67019958D01*
X152329263Y-67127896D01*
X152013744Y-67270231D01*
X151692949Y-67251449D01*
X151391613Y-67070376D01*
X151259161Y-66929817D01*
X151171591Y-66765745D01*
X151213853Y-66671391D01*
X151386205Y-66665941D01*
X151539812Y-66721506D01*
X151649264Y-66823533D01*
X151702827Y-66891772D01*
X151863199Y-66936610D01*
X152046895Y-66895669D01*
X152180605Y-66775566D01*
X152253767Y-66557901D01*
X152247748Y-66276082D01*
X152135203Y-66056381D01*
X152016628Y-65958854D01*
X151868662Y-65942169D01*
X151694946Y-66071500D01*
X151562866Y-66166505D01*
X151382517Y-66237428D01*
X151231130Y-66251179D01*
X151167583Y-66194074D01*
X151167899Y-66188953D01*
X151222677Y-66066999D01*
X151343062Y-65892418D01*
X151439836Y-65787022D01*
X151616895Y-65693608D01*
X151884016Y-65669334D01*
X152080577Y-65681442D01*
G37*
G36*
X158194917Y-62297167D02*
G01*
X158205542Y-62697910D01*
X158251435Y-63032579D01*
X158343942Y-63242908D01*
X158494128Y-63352093D01*
X158713060Y-63383334D01*
X158878629Y-63357544D01*
X159000476Y-63259060D01*
X159076356Y-63063930D01*
X159115278Y-62748279D01*
X159126250Y-62288233D01*
X159126250Y-61520667D01*
X159422583Y-61520667D01*
X159718917Y-61520667D01*
X159718917Y-62498182D01*
X159718466Y-62739163D01*
X159712703Y-63088046D01*
X159695287Y-63321542D01*
X159660017Y-63475033D01*
X159600688Y-63583898D01*
X159511099Y-63683515D01*
X159394745Y-63772841D01*
X159100796Y-63874764D01*
X158774132Y-63877987D01*
X158474016Y-63786300D01*
X158259713Y-63603492D01*
X158220609Y-63571771D01*
X158196213Y-63658500D01*
X158181462Y-63728078D01*
X158082550Y-63789900D01*
X157856250Y-63806667D01*
X157517583Y-63806667D01*
X157517583Y-62663667D01*
X157517583Y-61520667D01*
X157856250Y-61520667D01*
X158194917Y-61520667D01*
X158194917Y-62297167D01*
G37*
G36*
X150514261Y-61525690D02*
G01*
X150750822Y-61653614D01*
X150833032Y-61724866D01*
X150900344Y-61751122D01*
X150913583Y-61660789D01*
X150917215Y-61625462D01*
X150998031Y-61544267D01*
X151209917Y-61520667D01*
X151506250Y-61520667D01*
X151506250Y-62663667D01*
X151506250Y-63806667D01*
X151218090Y-63806667D01*
X150929929Y-63806667D01*
X150900590Y-62995420D01*
X150872723Y-62555972D01*
X150816753Y-62250322D01*
X150719807Y-62063293D01*
X150568650Y-61969611D01*
X150350047Y-61944000D01*
X150240062Y-61959818D01*
X150116395Y-62053448D01*
X150037037Y-62250149D01*
X149994739Y-62571505D01*
X149982250Y-63039101D01*
X149982250Y-63806667D01*
X149643583Y-63806667D01*
X149304917Y-63806667D01*
X149304917Y-62999614D01*
X149305193Y-62928006D01*
X149333237Y-62375043D01*
X149410696Y-61966916D01*
X149542427Y-61686824D01*
X149733288Y-61517971D01*
X149895894Y-61466510D01*
X150202094Y-61459697D01*
X150514261Y-61525690D01*
G37*
G36*
X163737894Y-66724088D02*
G01*
X163535430Y-67030513D01*
X163508217Y-67057115D01*
X163260986Y-67228642D01*
X162978583Y-67278000D01*
X162647477Y-67204127D01*
X162388012Y-67007224D01*
X162224021Y-66726051D01*
X162191772Y-66496753D01*
X162610679Y-66496753D01*
X162680009Y-66765813D01*
X162732176Y-66836399D01*
X162915343Y-66929984D01*
X163119316Y-66910103D01*
X163271938Y-66775566D01*
X163301081Y-66714236D01*
X163353616Y-66455255D01*
X163308837Y-66222639D01*
X163188999Y-66052078D01*
X163016360Y-65979265D01*
X162813177Y-66039891D01*
X162659672Y-66231523D01*
X162610679Y-66496753D01*
X162191772Y-66496753D01*
X162178075Y-66399367D01*
X162272747Y-66065934D01*
X162379948Y-65902320D01*
X162616146Y-65727288D01*
X162950492Y-65672026D01*
X163041385Y-65672436D01*
X163330071Y-65706744D01*
X163518673Y-65812274D01*
X163659048Y-66014056D01*
X163776945Y-66377860D01*
X163768216Y-66455255D01*
X163737894Y-66724088D01*
G37*
G36*
X158039887Y-58811756D02*
G01*
X158446282Y-58815187D01*
X158724795Y-58824590D01*
X158899506Y-58842902D01*
X158994489Y-58873060D01*
X159033823Y-58918003D01*
X159041583Y-58980667D01*
X159038268Y-59027086D01*
X159010563Y-59076950D01*
X158934129Y-59111124D01*
X158784846Y-59132563D01*
X158538593Y-59144219D01*
X158171249Y-59149047D01*
X157658695Y-59150000D01*
X157337312Y-59148623D01*
X156908299Y-59142034D01*
X156560322Y-59130939D01*
X156322810Y-59116378D01*
X156225195Y-59099389D01*
X156207794Y-59065671D01*
X156220142Y-58930056D01*
X156233304Y-58909268D01*
X156310187Y-58869177D01*
X156468771Y-58841151D01*
X156730948Y-58823377D01*
X157118608Y-58814042D01*
X157653642Y-58811334D01*
X158039887Y-58811756D01*
G37*
G36*
X157742174Y-56486356D02*
G01*
X157747204Y-56493373D01*
X157845299Y-56770601D01*
X157821255Y-57118790D01*
X157677757Y-57495870D01*
X157635916Y-57578615D01*
X157539887Y-57884830D01*
X157538618Y-58238459D01*
X157544337Y-58310829D01*
X157534773Y-58544536D01*
X157480689Y-58619719D01*
X157400681Y-58532899D01*
X157313339Y-58280599D01*
X157291148Y-58175451D01*
X157286392Y-57983537D01*
X157342498Y-57761935D01*
X157470641Y-57451752D01*
X157551029Y-57266523D01*
X157634539Y-57028416D01*
X157651205Y-56862729D01*
X157610310Y-56720878D01*
X157562409Y-56575035D01*
X157566311Y-56434891D01*
X157632648Y-56393922D01*
X157742174Y-56486356D01*
G37*
G36*
X158353419Y-56407518D02*
G01*
X158448175Y-56531139D01*
X158521246Y-56738204D01*
X158550517Y-56982065D01*
X158547400Y-57035838D01*
X158483588Y-57299635D01*
X158363357Y-57566167D01*
X158279753Y-57723952D01*
X158214748Y-57966912D01*
X158233078Y-58262690D01*
X158245870Y-58364338D01*
X158248826Y-58566169D01*
X158209163Y-58642000D01*
X158180349Y-58638055D01*
X158081651Y-58534062D01*
X158033241Y-58320856D01*
X158035637Y-58041507D01*
X158089356Y-57739087D01*
X158194917Y-57456667D01*
X158309265Y-57190614D01*
X158357924Y-56880246D01*
X158279355Y-56609572D01*
X158241722Y-56510741D01*
X158275107Y-56401100D01*
X158353419Y-56407518D01*
G37*
G36*
X156997346Y-56509821D02*
G01*
X157066870Y-56717990D01*
X157094250Y-56980594D01*
X157092525Y-57024546D01*
X157032692Y-57308029D01*
X156914002Y-57583153D01*
X156850398Y-57700743D01*
X156773198Y-57957812D01*
X156785382Y-58265326D01*
X156790696Y-58307197D01*
X156796554Y-58543934D01*
X156754491Y-58634794D01*
X156682263Y-58571984D01*
X156597620Y-58347716D01*
X156552663Y-58080047D01*
X156599028Y-57765725D01*
X156770110Y-57414334D01*
X156839985Y-57281630D01*
X156920148Y-56931282D01*
X156840021Y-56609572D01*
X156802389Y-56510741D01*
X156835773Y-56401100D01*
X156904603Y-56398517D01*
X156997346Y-56509821D01*
G37*
G36*
X155119979Y-60605045D02*
G01*
X155315168Y-60633100D01*
X155427773Y-60705601D01*
X155469350Y-60857342D01*
X155456269Y-61034120D01*
X155342350Y-61114684D01*
X155276028Y-61127403D01*
X155021953Y-61139290D01*
X154881118Y-61052693D01*
X154823646Y-60852512D01*
X154816817Y-60778135D01*
X154825042Y-60640991D01*
X154910951Y-60595943D01*
X155119979Y-60605045D01*
G37*
G36*
X155485583Y-62663667D02*
G01*
X155485583Y-63806667D01*
X155146917Y-63806667D01*
X154808250Y-63806667D01*
X154808250Y-62663667D01*
X154808250Y-61520667D01*
X155146917Y-61520667D01*
X155485583Y-61520667D01*
X155485583Y-62663667D01*
G37*
%TO.C,D1*%
X138271250Y-46618750D02*
X138271250Y-49078750D01*
X136801250Y-46618750D02*
X138271250Y-46618750D01*
X136801250Y-49078750D02*
X136801250Y-46618750D01*
%TO.C,R3*%
X143124974Y-35085250D02*
X142615526Y-35085250D01*
X143124974Y-34040250D02*
X142615526Y-34040250D01*
D10*
%TO.C,Conn2*%
X134742250Y-48913750D02*
X122804250Y-48913750D01*
X122804250Y-48913750D02*
X122804250Y-62883750D01*
X137282250Y-50818750D02*
X134742250Y-50818750D01*
X134742250Y-50818750D02*
X134742250Y-48913750D01*
X134742250Y-50818750D02*
X134742250Y-62883750D01*
X128392250Y-53358750D02*
X128392250Y-58438750D01*
X127122250Y-53358750D02*
X128392250Y-53358750D01*
X127122250Y-53358750D02*
X123312250Y-53358750D01*
X122804250Y-53358750D02*
X123312250Y-53358750D01*
X128392250Y-54628750D02*
X130932250Y-54628750D01*
X130932250Y-57168750D02*
X130932250Y-54628750D01*
X128392250Y-57168750D02*
X130932250Y-57168750D01*
X122804250Y-58438750D02*
X128392250Y-58438750D01*
X137282250Y-60978750D02*
X137282250Y-50818750D01*
X134742250Y-60978750D02*
X137282250Y-60978750D01*
X134742250Y-62883750D02*
X122804250Y-62883750D01*
%TD*%
M02*
