%TF.GenerationSoftware,KiCad,Pcbnew,7.0.7*%
%TF.CreationDate,2023-11-06T08:22:00-06:00*%
%TF.ProjectId,ScienceHeaterElement_2023,53636965-6e63-4654-9865-61746572456c,rev?*%
%TF.SameCoordinates,Original*%
%TF.FileFunction,Copper,L1,Top*%
%TF.FilePolarity,Positive*%
%FSLAX46Y46*%
G04 Gerber Fmt 4.6, Leading zero omitted, Abs format (unit mm)*
G04 Created by KiCad (PCBNEW 7.0.7) date 2023-11-06 08:22:00*
%MOMM*%
%LPD*%
G01*
G04 APERTURE LIST*
%TA.AperFunction,ComponentPad*%
%ADD10C,1.524000*%
%TD*%
%TA.AperFunction,ComponentPad*%
%ADD11R,1.800000X1.800000*%
%TD*%
%TA.AperFunction,ComponentPad*%
%ADD12O,1.800000X1.800000*%
%TD*%
%TA.AperFunction,ViaPad*%
%ADD13C,0.800000*%
%TD*%
%TA.AperFunction,Conductor*%
%ADD14C,0.254000*%
%TD*%
%TA.AperFunction,Conductor*%
%ADD15C,0.250000*%
%TD*%
G04 APERTURE END LIST*
D10*
%TO.P,Conn1,1*%
%TO.N,+3.3V*%
X136012250Y-39388750D03*
%TO.P,Conn1,2*%
%TO.N,Gate_Driving_Pin*%
X136012250Y-41928750D03*
%TO.P,Conn1,3*%
%TO.N,Temp_Sense*%
X136012250Y-44468750D03*
%TD*%
D11*
%TO.P,R1,1*%
%TO.N,+12V*%
X140838250Y-52658750D03*
D12*
%TO.P,R1,2*%
%TO.N,/Heater_Trace*%
X145918250Y-52658750D03*
%TD*%
D10*
%TO.P,Conn2,1*%
%TO.N,+12V*%
X136012250Y-52088750D03*
%TO.P,Conn2,2*%
X136012250Y-54628750D03*
%TO.P,Conn2,3*%
%TO.N,GND*%
X136012250Y-57168750D03*
%TO.P,Conn2,4*%
X136012250Y-59708750D03*
%TD*%
D13*
%TO.N,GND*%
X139822250Y-40658750D03*
X139822250Y-37864750D03*
X147442250Y-48024750D03*
%TO.N,/Heater_Trace*%
X158110250Y-48024750D03*
X158110250Y-51072750D03*
X145918250Y-46500750D03*
X162936250Y-51072750D03*
X162936250Y-48024750D03*
X138430000Y-45720000D03*
X141092250Y-43198750D03*
%TD*%
D14*
%TO.N,/Heater_Trace*%
X138430000Y-45720000D02*
X140951250Y-43198750D01*
X140951250Y-43198750D02*
X141092250Y-43198750D01*
X170048250Y-64534750D02*
X170048250Y-65042750D01*
X151760250Y-47262750D02*
X151760250Y-47770750D01*
X152014250Y-53104750D02*
X151760250Y-53358750D01*
X169794250Y-36848750D02*
X152014250Y-36848750D01*
X169794250Y-44976750D02*
X152014250Y-44976750D01*
X151252250Y-51072750D02*
X150236250Y-50056750D01*
X169794250Y-59200750D02*
X152014250Y-59200750D01*
X158110250Y-48024750D02*
X160396250Y-48024750D01*
X152014250Y-60216750D02*
X169794250Y-60216750D01*
X169794250Y-56152750D02*
X170048250Y-56406750D01*
X152014250Y-42944750D02*
X151760250Y-43198750D01*
X162936250Y-51072750D02*
X160396250Y-51072750D01*
X152014250Y-49040750D02*
X151760250Y-49294750D01*
X151760250Y-53358750D02*
X151760250Y-53866750D01*
X160396250Y-48024750D02*
X162936250Y-48024750D01*
X152014250Y-43960750D02*
X169794250Y-43960750D01*
X150236250Y-49040750D02*
X146680250Y-49040750D01*
X170048250Y-46754750D02*
X169794250Y-47008750D01*
X151760250Y-37610750D02*
X152014250Y-37864750D01*
X169794250Y-55136750D02*
X152014250Y-55136750D01*
X170048250Y-50818750D02*
X169794250Y-51072750D01*
X152014250Y-59200750D02*
X151760250Y-59454750D01*
X151760250Y-45738750D02*
X152014250Y-45992750D01*
X169794250Y-34816750D02*
X152014250Y-34816750D01*
X169794250Y-64280750D02*
X170048250Y-64534750D01*
X152014250Y-40912750D02*
X151760250Y-41166750D01*
X151760250Y-55390750D02*
X151760250Y-55898750D01*
X170048250Y-62502750D02*
X170048250Y-63010750D01*
X151760250Y-43706750D02*
X152014250Y-43960750D01*
X170048250Y-36594750D02*
X169794250Y-36848750D01*
X151760250Y-63518750D02*
X151760250Y-64026750D01*
X152014250Y-35832750D02*
X169794250Y-35832750D01*
X151760250Y-41166750D02*
X151760250Y-41674750D01*
X152014250Y-39896750D02*
X169794250Y-39896750D01*
X151760250Y-35578750D02*
X152014250Y-35832750D01*
X170048250Y-42690750D02*
X169794250Y-42944750D01*
X152014250Y-33800750D02*
X151252250Y-34562750D01*
X151760250Y-59962750D02*
X152014250Y-60216750D01*
X170048250Y-34562750D02*
X169794250Y-34816750D01*
X170048250Y-65042750D02*
X169794250Y-65296750D01*
X169794250Y-42944750D02*
X152014250Y-42944750D01*
X152014250Y-45992750D02*
X169794250Y-45992750D01*
X169794250Y-45992750D02*
X170048250Y-46246750D01*
X170048250Y-42182750D02*
X170048250Y-42690750D01*
X152014250Y-54120750D02*
X169794250Y-54120750D01*
X152014250Y-37864750D02*
X169794250Y-37864750D01*
X169794250Y-61232750D02*
X152014250Y-61232750D01*
X152014250Y-62248750D02*
X169794250Y-62248750D01*
X151252250Y-34562750D02*
X151252250Y-46754750D01*
X146680250Y-50056750D02*
X145918250Y-50818750D01*
X152014250Y-41928750D02*
X169794250Y-41928750D01*
X152014250Y-34816750D02*
X151760250Y-35070750D01*
X152014250Y-56152750D02*
X169794250Y-56152750D01*
X169794250Y-38880750D02*
X152014250Y-38880750D01*
X152014250Y-58184750D02*
X169794250Y-58184750D01*
X151252250Y-48024750D02*
X150236250Y-49040750D01*
X145918250Y-48278750D02*
X145918250Y-46500750D01*
X170048250Y-44722750D02*
X169794250Y-44976750D01*
X146680250Y-49040750D02*
X145918250Y-48278750D01*
X169794250Y-43960750D02*
X170048250Y-44214750D01*
X150236250Y-50056750D02*
X146680250Y-50056750D01*
X169794250Y-63264750D02*
X152014250Y-63264750D01*
X151760250Y-57930750D02*
X152014250Y-58184750D01*
X169794250Y-47008750D02*
X152014250Y-47008750D01*
X169794250Y-49040750D02*
X152014250Y-49040750D01*
X170048250Y-38118750D02*
X170048250Y-38626750D01*
X169794250Y-65296750D02*
X152014250Y-65296750D01*
X169794250Y-33800750D02*
X170048250Y-34054750D01*
X151760250Y-55898750D02*
X152014250Y-56152750D01*
X152014250Y-47008750D02*
X151760250Y-47262750D01*
X152014250Y-50056750D02*
X169794250Y-50056750D01*
X170048250Y-52850750D02*
X169794250Y-53104750D01*
X152014250Y-38880750D02*
X151760250Y-39134750D01*
X169794250Y-41928750D02*
X170048250Y-42182750D01*
X169794250Y-58184750D02*
X170048250Y-58438750D01*
X169794250Y-40912750D02*
X152014250Y-40912750D01*
X152014250Y-44976750D02*
X151760250Y-45230750D01*
X151760250Y-39642750D02*
X152014250Y-39896750D01*
X151760250Y-61994750D02*
X152014250Y-62248750D01*
X170048250Y-36086750D02*
X170048250Y-36594750D01*
X162936250Y-48024750D02*
X169794250Y-48024750D01*
X169794250Y-35832750D02*
X170048250Y-36086750D01*
X170048250Y-46246750D02*
X170048250Y-46754750D01*
X151252250Y-64534750D02*
X151252250Y-51072750D01*
X169794250Y-54120750D02*
X170048250Y-54374750D01*
X152014250Y-48024750D02*
X158110250Y-48024750D01*
X169794250Y-53104750D02*
X152014250Y-53104750D01*
X170048250Y-40150750D02*
X170048250Y-40658750D01*
X145918250Y-50818750D02*
X145918250Y-51580750D01*
X170048250Y-54882750D02*
X169794250Y-55136750D01*
X170048250Y-54374750D02*
X170048250Y-54882750D01*
X170048250Y-34054750D02*
X170048250Y-34562750D01*
X151760250Y-57422750D02*
X151760250Y-57930750D01*
X170048250Y-50310750D02*
X170048250Y-50818750D01*
X169794250Y-48024750D02*
X170048250Y-48278750D01*
X151760250Y-59454750D02*
X151760250Y-59962750D01*
X152014250Y-36848750D02*
X151760250Y-37102750D01*
X169794250Y-62248750D02*
X170048250Y-62502750D01*
X170048250Y-38626750D02*
X169794250Y-38880750D01*
X169794250Y-50056750D02*
X170048250Y-50310750D01*
X169794250Y-39896750D02*
X170048250Y-40150750D01*
X152014250Y-65296750D02*
X151252250Y-64534750D01*
X151760250Y-43198750D02*
X151760250Y-43706750D01*
X151760250Y-47770750D02*
X152014250Y-48024750D01*
X169794250Y-60216750D02*
X170048250Y-60470750D01*
X152014250Y-33800750D02*
X169794250Y-33800750D01*
X169794250Y-37864750D02*
X170048250Y-38118750D01*
X170048250Y-48278750D02*
X170048250Y-48786750D01*
X151760250Y-45230750D02*
X151760250Y-45738750D01*
X151760250Y-51326750D02*
X151760250Y-51834750D01*
X151760250Y-53866750D02*
X152014250Y-54120750D01*
X160396250Y-51072750D02*
X158110250Y-51072750D01*
X169794250Y-52088750D02*
X170048250Y-52342750D01*
X151760250Y-49294750D02*
X151760250Y-49802750D01*
X151760250Y-41674750D02*
X152014250Y-41928750D01*
X170048250Y-48786750D02*
X169794250Y-49040750D01*
X151252250Y-46754750D02*
X151252250Y-48024750D01*
X170048250Y-44214750D02*
X170048250Y-44722750D01*
X170048250Y-40658750D02*
X169794250Y-40912750D01*
X152014250Y-63264750D02*
X151760250Y-63518750D01*
X170048250Y-60978750D02*
X169794250Y-61232750D01*
X151760250Y-35070750D02*
X151760250Y-35578750D01*
X170048250Y-58438750D02*
X170048250Y-58946750D01*
X151760250Y-64026750D02*
X152014250Y-64280750D01*
X152014250Y-57168750D02*
X151760250Y-57422750D01*
X151760250Y-49802750D02*
X152014250Y-50056750D01*
X151760250Y-39134750D02*
X151760250Y-39642750D01*
X169794250Y-57168750D02*
X152014250Y-57168750D01*
X170048250Y-56914750D02*
X169794250Y-57168750D01*
X152014250Y-51072750D02*
X151760250Y-51326750D01*
X152014250Y-55136750D02*
X151760250Y-55390750D01*
X170048250Y-52342750D02*
X170048250Y-52850750D01*
X158110250Y-51072750D02*
X152014250Y-51072750D01*
X151760250Y-37102750D02*
X151760250Y-37610750D01*
X152014250Y-61232750D02*
X151760250Y-61486750D01*
X170048250Y-60470750D02*
X170048250Y-60978750D01*
X170048250Y-63010750D02*
X169794250Y-63264750D01*
X151760250Y-51834750D02*
X152014250Y-52088750D01*
X152014250Y-52088750D02*
X169794250Y-52088750D01*
X152014250Y-64280750D02*
X169794250Y-64280750D01*
X170048250Y-56406750D02*
X170048250Y-56914750D01*
X170048250Y-58946750D02*
X169794250Y-59200750D01*
X169794250Y-51072750D02*
X162936250Y-51072750D01*
X151760250Y-61486750D02*
X151760250Y-61994750D01*
D15*
X145918250Y-52658750D02*
X145918250Y-51580750D01*
%TD*%
%TA.AperFunction,Conductor*%
%TO.N,GND*%
G36*
X148080526Y-26455053D02*
G01*
X148147519Y-26474884D01*
X148193158Y-26527789D01*
X148204250Y-26579052D01*
X148204250Y-48289250D01*
X148184565Y-48356289D01*
X148131761Y-48402044D01*
X148080250Y-48413250D01*
X146991531Y-48413250D01*
X146924492Y-48393565D01*
X146903850Y-48376931D01*
X146582069Y-48055149D01*
X146548584Y-47993826D01*
X146545750Y-47967468D01*
X146545750Y-47197215D01*
X146565435Y-47130176D01*
X146577593Y-47114250D01*
X146650783Y-47032966D01*
X146745429Y-46869034D01*
X146803924Y-46689006D01*
X146823710Y-46500750D01*
X146803924Y-46312494D01*
X146745429Y-46132466D01*
X146650783Y-45968534D01*
X146524121Y-45827862D01*
X146524120Y-45827861D01*
X146370984Y-45716601D01*
X146370979Y-45716598D01*
X146198057Y-45639607D01*
X146198052Y-45639605D01*
X146052250Y-45608615D01*
X146012896Y-45600250D01*
X145823604Y-45600250D01*
X145791147Y-45607148D01*
X145638447Y-45639605D01*
X145638442Y-45639607D01*
X145465520Y-45716598D01*
X145465515Y-45716601D01*
X145312379Y-45827861D01*
X145185716Y-45968535D01*
X145091071Y-46132465D01*
X145091068Y-46132472D01*
X145032577Y-46312490D01*
X145032576Y-46312494D01*
X145012790Y-46500750D01*
X145032576Y-46689006D01*
X145032577Y-46689009D01*
X145091068Y-46869027D01*
X145091071Y-46869034D01*
X145185717Y-47032966D01*
X145258901Y-47114244D01*
X145289130Y-47177234D01*
X145290750Y-47197215D01*
X145290750Y-48195782D01*
X145289022Y-48211431D01*
X145289304Y-48211458D01*
X145288569Y-48219225D01*
X145290750Y-48288609D01*
X145290750Y-48318227D01*
X145291621Y-48325130D01*
X145292079Y-48330949D01*
X145293548Y-48377692D01*
X145297005Y-48389591D01*
X145298160Y-48393565D01*
X145299166Y-48397025D01*
X145303112Y-48416079D01*
X145305633Y-48436037D01*
X145305636Y-48436049D01*
X145322845Y-48479515D01*
X145324737Y-48485043D01*
X145337780Y-48529937D01*
X145337780Y-48529938D01*
X145348027Y-48547265D01*
X145356585Y-48564735D01*
X145363995Y-48583451D01*
X145391479Y-48621279D01*
X145394687Y-48626163D01*
X145418484Y-48666402D01*
X145418490Y-48666410D01*
X145432719Y-48680638D01*
X145445359Y-48695437D01*
X145457184Y-48711714D01*
X145457186Y-48711715D01*
X145457187Y-48711717D01*
X145493207Y-48741515D01*
X145497518Y-48745437D01*
X145904686Y-49152605D01*
X146177874Y-49425793D01*
X146187721Y-49438083D01*
X146187939Y-49437904D01*
X146192906Y-49443909D01*
X146209288Y-49459292D01*
X146244683Y-49519533D01*
X146241891Y-49589347D01*
X146219963Y-49628709D01*
X146217490Y-49631699D01*
X146213549Y-49636030D01*
X145533203Y-50316376D01*
X145520919Y-50326219D01*
X145521099Y-50326437D01*
X145515088Y-50331409D01*
X145467572Y-50382008D01*
X145446625Y-50402955D01*
X145442356Y-50408459D01*
X145438565Y-50412897D01*
X145406558Y-50446980D01*
X145406555Y-50446984D01*
X145396856Y-50464627D01*
X145386178Y-50480883D01*
X145373844Y-50496784D01*
X145373839Y-50496792D01*
X145355275Y-50539693D01*
X145352704Y-50544941D01*
X145330177Y-50585917D01*
X145325170Y-50605418D01*
X145318871Y-50623814D01*
X145312143Y-50639362D01*
X145310875Y-50642294D01*
X145310874Y-50642296D01*
X145303562Y-50688466D01*
X145302377Y-50694188D01*
X145290750Y-50739473D01*
X145290750Y-50759608D01*
X145289223Y-50779007D01*
X145286075Y-50798881D01*
X145290475Y-50845427D01*
X145290750Y-50851265D01*
X145290750Y-51332017D01*
X145271065Y-51399056D01*
X145225769Y-51441071D01*
X145149626Y-51482278D01*
X145149615Y-51482285D01*
X144966472Y-51624831D01*
X144966469Y-51624834D01*
X144966466Y-51624836D01*
X144966466Y-51624837D01*
X144942136Y-51651267D01*
X144809266Y-51795602D01*
X144682325Y-51989901D01*
X144589092Y-52202449D01*
X144532116Y-52427441D01*
X144532114Y-52427452D01*
X144512950Y-52658743D01*
X144512950Y-52658756D01*
X144532114Y-52890047D01*
X144532116Y-52890058D01*
X144589092Y-53115050D01*
X144682325Y-53327598D01*
X144809266Y-53521897D01*
X144809269Y-53521901D01*
X144809271Y-53521903D01*
X144966466Y-53692663D01*
X144966469Y-53692665D01*
X144966472Y-53692668D01*
X145149615Y-53835214D01*
X145149621Y-53835218D01*
X145149624Y-53835220D01*
X145353747Y-53945686D01*
X145467737Y-53984818D01*
X145573265Y-54021047D01*
X145573267Y-54021047D01*
X145573269Y-54021048D01*
X145802201Y-54059250D01*
X145802202Y-54059250D01*
X146034298Y-54059250D01*
X146034299Y-54059250D01*
X146263231Y-54021048D01*
X146482753Y-53945686D01*
X146686876Y-53835220D01*
X146713977Y-53814127D01*
X146748379Y-53787350D01*
X146870034Y-53692663D01*
X147027229Y-53521903D01*
X147154174Y-53327599D01*
X147247407Y-53115050D01*
X147304384Y-52890055D01*
X147304385Y-52890047D01*
X147323550Y-52658756D01*
X147323550Y-52658743D01*
X147304385Y-52427452D01*
X147304383Y-52427441D01*
X147247407Y-52202449D01*
X147154174Y-51989901D01*
X147027233Y-51795602D01*
X147027230Y-51795599D01*
X147027229Y-51795597D01*
X146870034Y-51624837D01*
X146870029Y-51624833D01*
X146870027Y-51624831D01*
X146686884Y-51482285D01*
X146686873Y-51482278D01*
X146610731Y-51441071D01*
X146561141Y-51391851D01*
X146545750Y-51332017D01*
X146545750Y-51130031D01*
X146565435Y-51062992D01*
X146582069Y-51042350D01*
X146903850Y-50720569D01*
X146965173Y-50687084D01*
X146991531Y-50684250D01*
X148080250Y-50684250D01*
X148147289Y-50703935D01*
X148193044Y-50756739D01*
X148204250Y-50808250D01*
X148204250Y-72496201D01*
X148184565Y-72563240D01*
X148131761Y-72608995D01*
X148080246Y-72620201D01*
X128367037Y-72619540D01*
X128299998Y-72599853D01*
X128254245Y-72547048D01*
X128244304Y-72477889D01*
X128273331Y-72414334D01*
X128324627Y-72379020D01*
X128463025Y-72328648D01*
X128820383Y-72156553D01*
X129158831Y-71949732D01*
X129475004Y-71710240D01*
X129765761Y-71440457D01*
X130028211Y-71143065D01*
X130259746Y-70821020D01*
X130458065Y-70477521D01*
X130621197Y-70115983D01*
X130747521Y-69739998D01*
X130835781Y-69353305D01*
X130885101Y-68959745D01*
X130894989Y-68563230D01*
X130865349Y-68167700D01*
X130796473Y-67777088D01*
X130689047Y-67395274D01*
X130660754Y-67323185D01*
X130544144Y-67026066D01*
X130544139Y-67026054D01*
X130363193Y-66673105D01*
X130363189Y-66673097D01*
X130147994Y-66339911D01*
X129900694Y-66029806D01*
X129900691Y-66029803D01*
X129900684Y-66029794D01*
X129623756Y-65745875D01*
X129623753Y-65745872D01*
X129623752Y-65745871D01*
X129623747Y-65745866D01*
X129319904Y-65490912D01*
X129174736Y-65391938D01*
X128992185Y-65267477D01*
X128860569Y-65195803D01*
X128643850Y-65077784D01*
X128643842Y-65077780D01*
X128643839Y-65077779D01*
X128278357Y-64923716D01*
X128278341Y-64923710D01*
X127899344Y-64806805D01*
X127899331Y-64806802D01*
X127510580Y-64728214D01*
X127510559Y-64728211D01*
X127115900Y-64688720D01*
X127115899Y-64688720D01*
X126818479Y-64688720D01*
X126818477Y-64688720D01*
X126521435Y-64703544D01*
X126129227Y-64762661D01*
X125744852Y-64860534D01*
X125372129Y-64996194D01*
X125014771Y-65168289D01*
X124676333Y-65375104D01*
X124676322Y-65375112D01*
X124360155Y-65614600D01*
X124360152Y-65614602D01*
X124069393Y-65884388D01*
X123806945Y-66181779D01*
X123575419Y-66503813D01*
X123575406Y-66503833D01*
X123377096Y-66847316D01*
X123213961Y-67208860D01*
X123199482Y-67251954D01*
X123159471Y-67309233D01*
X123094844Y-67335787D01*
X123026120Y-67323185D01*
X122975118Y-67275430D01*
X122957940Y-67212531D01*
X122956022Y-63758749D01*
X141272842Y-63758749D01*
X141277605Y-63828387D01*
X141277750Y-63832620D01*
X141277750Y-63902432D01*
X141287253Y-63971579D01*
X141287686Y-63975789D01*
X141292451Y-64045433D01*
X141292452Y-64045437D01*
X141306653Y-64113785D01*
X141307372Y-64117955D01*
X141316879Y-64187111D01*
X141335709Y-64254316D01*
X141336711Y-64258429D01*
X141350914Y-64326775D01*
X141350919Y-64326790D01*
X141374291Y-64392555D01*
X141375571Y-64396590D01*
X141394404Y-64463805D01*
X141394405Y-64463808D01*
X141422216Y-64527834D01*
X141423769Y-64531773D01*
X141447144Y-64597543D01*
X141447146Y-64597548D01*
X141479252Y-64659509D01*
X141481071Y-64663333D01*
X141508893Y-64727384D01*
X141545164Y-64787026D01*
X141547239Y-64790718D01*
X141579350Y-64852688D01*
X141593842Y-64873219D01*
X141619612Y-64909727D01*
X141621914Y-64913236D01*
X141658195Y-64972897D01*
X141677147Y-64996192D01*
X141702240Y-65027036D01*
X141704798Y-65030410D01*
X141745060Y-65087448D01*
X141792706Y-65138463D01*
X141795489Y-65141655D01*
X141839541Y-65195803D01*
X141890556Y-65243448D01*
X141893550Y-65246442D01*
X141941196Y-65297457D01*
X141995343Y-65341509D01*
X141998535Y-65344292D01*
X142049552Y-65391940D01*
X142106581Y-65432194D01*
X142109956Y-65434753D01*
X142114885Y-65438763D01*
X142164103Y-65478805D01*
X142184012Y-65490912D01*
X142223746Y-65515075D01*
X142227278Y-65517391D01*
X142284314Y-65557651D01*
X142346302Y-65589770D01*
X142349966Y-65591831D01*
X142382698Y-65611736D01*
X142409619Y-65628108D01*
X142409622Y-65628109D01*
X142409625Y-65628111D01*
X142473684Y-65655935D01*
X142477475Y-65657739D01*
X142539453Y-65689854D01*
X142588297Y-65707213D01*
X142605227Y-65713230D01*
X142609164Y-65714782D01*
X142673192Y-65742594D01*
X142740425Y-65761431D01*
X142744435Y-65762704D01*
X142810218Y-65786084D01*
X142878583Y-65800290D01*
X142882663Y-65801284D01*
X142949892Y-65820121D01*
X143019076Y-65829630D01*
X143023191Y-65830339D01*
X143091564Y-65844548D01*
X143161243Y-65849314D01*
X143165398Y-65849742D01*
X143234572Y-65859250D01*
X143234573Y-65859250D01*
X143521927Y-65859250D01*
X143521928Y-65859250D01*
X143591106Y-65849741D01*
X143595252Y-65849314D01*
X143664936Y-65844548D01*
X143733307Y-65830339D01*
X143737426Y-65829629D01*
X143806608Y-65820121D01*
X143873833Y-65801285D01*
X143877917Y-65800289D01*
X143946282Y-65786084D01*
X144012056Y-65762707D01*
X144016080Y-65761429D01*
X144083308Y-65742594D01*
X144147345Y-65714777D01*
X144151253Y-65713236D01*
X144217047Y-65689854D01*
X144279034Y-65657733D01*
X144282838Y-65655925D01*
X144346875Y-65628111D01*
X144406550Y-65591820D01*
X144410190Y-65589773D01*
X144472186Y-65557651D01*
X144529228Y-65517386D01*
X144532736Y-65515085D01*
X144592397Y-65478805D01*
X144646559Y-65434739D01*
X144649893Y-65432210D01*
X144706948Y-65391939D01*
X144757966Y-65344289D01*
X144761154Y-65341510D01*
X144769740Y-65334524D01*
X144815303Y-65297458D01*
X144862952Y-65246437D01*
X144865943Y-65243447D01*
X144916958Y-65195803D01*
X144961010Y-65141654D01*
X144963789Y-65138466D01*
X145011439Y-65087448D01*
X145051710Y-65030393D01*
X145054239Y-65027059D01*
X145098305Y-64972897D01*
X145134585Y-64913236D01*
X145136886Y-64909728D01*
X145177151Y-64852686D01*
X145209273Y-64790690D01*
X145211320Y-64787050D01*
X145247611Y-64727375D01*
X145275428Y-64663333D01*
X145277233Y-64659534D01*
X145309354Y-64597547D01*
X145332736Y-64531753D01*
X145334282Y-64527835D01*
X145334283Y-64527834D01*
X145362094Y-64463808D01*
X145380929Y-64396580D01*
X145382208Y-64392554D01*
X145405584Y-64326782D01*
X145419787Y-64258430D01*
X145419788Y-64258429D01*
X145419789Y-64258417D01*
X145420790Y-64254316D01*
X145439621Y-64187108D01*
X145449129Y-64117926D01*
X145449839Y-64113807D01*
X145464048Y-64045436D01*
X145468814Y-63975752D01*
X145469241Y-63971606D01*
X145478750Y-63902428D01*
X145478750Y-63832620D01*
X145478895Y-63828387D01*
X145480181Y-63809570D01*
X145483658Y-63758750D01*
X145478895Y-63689111D01*
X145478750Y-63684878D01*
X145478750Y-63615073D01*
X145469245Y-63545921D01*
X145469242Y-63545898D01*
X145468814Y-63541743D01*
X145464048Y-63472064D01*
X145449839Y-63403691D01*
X145449130Y-63399576D01*
X145439621Y-63330392D01*
X145420784Y-63263163D01*
X145419787Y-63259069D01*
X145405584Y-63190718D01*
X145382204Y-63124933D01*
X145380931Y-63120925D01*
X145362094Y-63053692D01*
X145334282Y-62989664D01*
X145332730Y-62985727D01*
X145321543Y-62954250D01*
X145309354Y-62919953D01*
X145277239Y-62857975D01*
X145275435Y-62854184D01*
X145247611Y-62790125D01*
X145247609Y-62790122D01*
X145247608Y-62790119D01*
X145231236Y-62763198D01*
X145211331Y-62730466D01*
X145209270Y-62726802D01*
X145177151Y-62664814D01*
X145136891Y-62607778D01*
X145134575Y-62604246D01*
X145098307Y-62544607D01*
X145098305Y-62544603D01*
X145054253Y-62490456D01*
X145051694Y-62487081D01*
X145011440Y-62430052D01*
X144963792Y-62379035D01*
X144961009Y-62375843D01*
X144916957Y-62321696D01*
X144865942Y-62274050D01*
X144862948Y-62271056D01*
X144815302Y-62220041D01*
X144815303Y-62220041D01*
X144761155Y-62175989D01*
X144757963Y-62173206D01*
X144706948Y-62125560D01*
X144649910Y-62085298D01*
X144646536Y-62082740D01*
X144630833Y-62069965D01*
X144592397Y-62038695D01*
X144532736Y-62002414D01*
X144529227Y-62000112D01*
X144472189Y-61959851D01*
X144472188Y-61959850D01*
X144410218Y-61927739D01*
X144406526Y-61925664D01*
X144346884Y-61889393D01*
X144282833Y-61861571D01*
X144279016Y-61859755D01*
X144256001Y-61847830D01*
X144217048Y-61827646D01*
X144217043Y-61827644D01*
X144151273Y-61804269D01*
X144147334Y-61802716D01*
X144083308Y-61774905D01*
X144083305Y-61774904D01*
X144016090Y-61756071D01*
X144012055Y-61754791D01*
X143946290Y-61731419D01*
X143946282Y-61731416D01*
X143946279Y-61731415D01*
X143946275Y-61731414D01*
X143877929Y-61717211D01*
X143873816Y-61716209D01*
X143806611Y-61697379D01*
X143737455Y-61687872D01*
X143733285Y-61687153D01*
X143664937Y-61672952D01*
X143664933Y-61672951D01*
X143595289Y-61668186D01*
X143591079Y-61667753D01*
X143521932Y-61658250D01*
X143521928Y-61658250D01*
X143234572Y-61658250D01*
X143234567Y-61658250D01*
X143165421Y-61667753D01*
X143161211Y-61668186D01*
X143091566Y-61672951D01*
X143091562Y-61672952D01*
X143023212Y-61687154D01*
X143019043Y-61687872D01*
X142957002Y-61696401D01*
X142949892Y-61697379D01*
X142949890Y-61697379D01*
X142949886Y-61697380D01*
X142882681Y-61716209D01*
X142878569Y-61717211D01*
X142810222Y-61731415D01*
X142810203Y-61731420D01*
X142744433Y-61754794D01*
X142740399Y-61756074D01*
X142673194Y-61774904D01*
X142673191Y-61774905D01*
X142609155Y-61802719D01*
X142605217Y-61804272D01*
X142539457Y-61827643D01*
X142539455Y-61827644D01*
X142477487Y-61859752D01*
X142473666Y-61861570D01*
X142409624Y-61889389D01*
X142349973Y-61925663D01*
X142346283Y-61927738D01*
X142284309Y-61959851D01*
X142227289Y-62000100D01*
X142223750Y-62002421D01*
X142164106Y-62038692D01*
X142164099Y-62038697D01*
X142109957Y-62082744D01*
X142106585Y-62085301D01*
X142049553Y-62125559D01*
X141998533Y-62173208D01*
X141995343Y-62175990D01*
X141959419Y-62205216D01*
X141941197Y-62220042D01*
X141941195Y-62220044D01*
X141893549Y-62271058D01*
X141890558Y-62274049D01*
X141839544Y-62321695D01*
X141839540Y-62321700D01*
X141795490Y-62375843D01*
X141792708Y-62379033D01*
X141745059Y-62430053D01*
X141704801Y-62487085D01*
X141702244Y-62490457D01*
X141658197Y-62544599D01*
X141658192Y-62544606D01*
X141621921Y-62604250D01*
X141619600Y-62607789D01*
X141579351Y-62664809D01*
X141547238Y-62726783D01*
X141545163Y-62730473D01*
X141508889Y-62790124D01*
X141481070Y-62854166D01*
X141479252Y-62857987D01*
X141447144Y-62919955D01*
X141447143Y-62919957D01*
X141423772Y-62985717D01*
X141422219Y-62989655D01*
X141394405Y-63053691D01*
X141394404Y-63053694D01*
X141375574Y-63120899D01*
X141374294Y-63124933D01*
X141350920Y-63190703D01*
X141350915Y-63190722D01*
X141336711Y-63259069D01*
X141335709Y-63263181D01*
X141316880Y-63330386D01*
X141307372Y-63399543D01*
X141306654Y-63403712D01*
X141292452Y-63472062D01*
X141292451Y-63472066D01*
X141287686Y-63541711D01*
X141287253Y-63545921D01*
X141277750Y-63615067D01*
X141277750Y-63684878D01*
X141277605Y-63689111D01*
X141272842Y-63758749D01*
X122956022Y-63758749D01*
X122954479Y-60978751D01*
X125395704Y-60978751D01*
X125415863Y-61260616D01*
X125475928Y-61536727D01*
X125475930Y-61536734D01*
X125524906Y-61668043D01*
X125574682Y-61801500D01*
X125574684Y-61801504D01*
X125710105Y-62049508D01*
X125710110Y-62049516D01*
X125879446Y-62275724D01*
X125879462Y-62275742D01*
X126079257Y-62475537D01*
X126079275Y-62475553D01*
X126305483Y-62644889D01*
X126305491Y-62644894D01*
X126553495Y-62780315D01*
X126553499Y-62780317D01*
X126553501Y-62780318D01*
X126818266Y-62879070D01*
X126956327Y-62909103D01*
X127094383Y-62939136D01*
X127094385Y-62939136D01*
X127094389Y-62939137D01*
X127305697Y-62954250D01*
X127446803Y-62954250D01*
X127658111Y-62939137D01*
X127934234Y-62879070D01*
X128198999Y-62780318D01*
X128447014Y-62644891D01*
X128673232Y-62475547D01*
X128873047Y-62275732D01*
X129042391Y-62049514D01*
X129177818Y-61801499D01*
X129276570Y-61536734D01*
X129336637Y-61260611D01*
X129356796Y-60978750D01*
X129336637Y-60696889D01*
X129276570Y-60420766D01*
X129177818Y-60156001D01*
X129042391Y-59907986D01*
X129042389Y-59907983D01*
X128873053Y-59681775D01*
X128873037Y-59681757D01*
X128673242Y-59481962D01*
X128673224Y-59481946D01*
X128447016Y-59312610D01*
X128447008Y-59312605D01*
X128199004Y-59177184D01*
X128199000Y-59177182D01*
X128098622Y-59139743D01*
X127934234Y-59078430D01*
X127934230Y-59078429D01*
X127934227Y-59078428D01*
X127658116Y-59018363D01*
X127446803Y-59003250D01*
X127305697Y-59003250D01*
X127094383Y-59018363D01*
X126818272Y-59078428D01*
X126818267Y-59078429D01*
X126818266Y-59078430D01*
X126754253Y-59102305D01*
X126553499Y-59177182D01*
X126553495Y-59177184D01*
X126305491Y-59312605D01*
X126305483Y-59312610D01*
X126079275Y-59481946D01*
X126079257Y-59481962D01*
X125879462Y-59681757D01*
X125879446Y-59681775D01*
X125710110Y-59907983D01*
X125710105Y-59907991D01*
X125574684Y-60155995D01*
X125574682Y-60155999D01*
X125475928Y-60420772D01*
X125415863Y-60696883D01*
X125395704Y-60978748D01*
X125395704Y-60978751D01*
X122954479Y-60978751D01*
X122950954Y-54628752D01*
X134744927Y-54628752D01*
X134764179Y-54848812D01*
X134764180Y-54848820D01*
X134821354Y-55062195D01*
X134821355Y-55062197D01*
X134821356Y-55062200D01*
X134914716Y-55262412D01*
X134914718Y-55262416D01*
X135041420Y-55443365D01*
X135041425Y-55443371D01*
X135197628Y-55599574D01*
X135197634Y-55599579D01*
X135378583Y-55726281D01*
X135378585Y-55726282D01*
X135378588Y-55726284D01*
X135578800Y-55819644D01*
X135792182Y-55876820D01*
X135949373Y-55890572D01*
X136012248Y-55896073D01*
X136012250Y-55896073D01*
X136012252Y-55896073D01*
X136067267Y-55891259D01*
X136232318Y-55876820D01*
X136445700Y-55819644D01*
X136645912Y-55726284D01*
X136826870Y-55599576D01*
X136983076Y-55443370D01*
X137109784Y-55262412D01*
X137203144Y-55062200D01*
X137260320Y-54848818D01*
X137279573Y-54628750D01*
X137260320Y-54408682D01*
X137203144Y-54195300D01*
X137109784Y-53995089D01*
X137046429Y-53904609D01*
X136983077Y-53814131D01*
X136970024Y-53801078D01*
X136826870Y-53657924D01*
X136826866Y-53657921D01*
X136826865Y-53657920D01*
X136753601Y-53606620D01*
X139437750Y-53606620D01*
X139437751Y-53606626D01*
X139444158Y-53666233D01*
X139494452Y-53801078D01*
X139494456Y-53801085D01*
X139580702Y-53916294D01*
X139580705Y-53916297D01*
X139695914Y-54002543D01*
X139695921Y-54002547D01*
X139830767Y-54052841D01*
X139830766Y-54052841D01*
X139837694Y-54053585D01*
X139890377Y-54059250D01*
X141786122Y-54059249D01*
X141845733Y-54052841D01*
X141980581Y-54002546D01*
X142095796Y-53916296D01*
X142182046Y-53801081D01*
X142232341Y-53666233D01*
X142238750Y-53606623D01*
X142238749Y-51710878D01*
X142232341Y-51651267D01*
X142228698Y-51641500D01*
X142182047Y-51516421D01*
X142182043Y-51516414D01*
X142095797Y-51401205D01*
X142095794Y-51401202D01*
X141980585Y-51314956D01*
X141980578Y-51314952D01*
X141845732Y-51264658D01*
X141845733Y-51264658D01*
X141786133Y-51258251D01*
X141786131Y-51258250D01*
X141786123Y-51258250D01*
X141786114Y-51258250D01*
X139890379Y-51258250D01*
X139890373Y-51258251D01*
X139830766Y-51264658D01*
X139695921Y-51314952D01*
X139695914Y-51314956D01*
X139580705Y-51401202D01*
X139580702Y-51401205D01*
X139494456Y-51516414D01*
X139494452Y-51516421D01*
X139444158Y-51651267D01*
X139441056Y-51680124D01*
X139437751Y-51710873D01*
X139437750Y-51710885D01*
X139437750Y-53606620D01*
X136753601Y-53606620D01*
X136645916Y-53531218D01*
X136645912Y-53531216D01*
X136517060Y-53471131D01*
X136464621Y-53424958D01*
X136445469Y-53357765D01*
X136465685Y-53290884D01*
X136517056Y-53246370D01*
X136645912Y-53186284D01*
X136826870Y-53059576D01*
X136983076Y-52903370D01*
X137109784Y-52722412D01*
X137203144Y-52522200D01*
X137260320Y-52308818D01*
X137277212Y-52115742D01*
X137279573Y-52088752D01*
X137279573Y-52088747D01*
X137270925Y-51989901D01*
X137260320Y-51868682D01*
X137203144Y-51655300D01*
X137109784Y-51455089D01*
X137023609Y-51332017D01*
X136983077Y-51274131D01*
X136967196Y-51258250D01*
X136826870Y-51117924D01*
X136826866Y-51117921D01*
X136826865Y-51117920D01*
X136645916Y-50991218D01*
X136645912Y-50991216D01*
X136608578Y-50973807D01*
X136445700Y-50897856D01*
X136445697Y-50897855D01*
X136445695Y-50897854D01*
X136232320Y-50840680D01*
X136232312Y-50840679D01*
X136012252Y-50821427D01*
X136012248Y-50821427D01*
X135792187Y-50840679D01*
X135792179Y-50840680D01*
X135578804Y-50897854D01*
X135578798Y-50897857D01*
X135378590Y-50991215D01*
X135378588Y-50991216D01*
X135197627Y-51117925D01*
X135041425Y-51274127D01*
X134914716Y-51455088D01*
X134914715Y-51455090D01*
X134821357Y-51655298D01*
X134821354Y-51655304D01*
X134764180Y-51868679D01*
X134764179Y-51868687D01*
X134744927Y-52088747D01*
X134744927Y-52088752D01*
X134764179Y-52308812D01*
X134764180Y-52308820D01*
X134821354Y-52522195D01*
X134821355Y-52522197D01*
X134821356Y-52522200D01*
X134867108Y-52620315D01*
X134914716Y-52722412D01*
X134914718Y-52722416D01*
X135041420Y-52903365D01*
X135041425Y-52903371D01*
X135197628Y-53059574D01*
X135197634Y-53059579D01*
X135378583Y-53186281D01*
X135378585Y-53186282D01*
X135378588Y-53186284D01*
X135497998Y-53241965D01*
X135507439Y-53246368D01*
X135559878Y-53292540D01*
X135579030Y-53359734D01*
X135558814Y-53426615D01*
X135507439Y-53471132D01*
X135378590Y-53531215D01*
X135378588Y-53531216D01*
X135197627Y-53657925D01*
X135041425Y-53814127D01*
X134914716Y-53995088D01*
X134914715Y-53995090D01*
X134821357Y-54195298D01*
X134821354Y-54195304D01*
X134764180Y-54408679D01*
X134764179Y-54408687D01*
X134744927Y-54628747D01*
X134744927Y-54628752D01*
X122950954Y-54628752D01*
X122948839Y-50818751D01*
X125395704Y-50818751D01*
X125415863Y-51100616D01*
X125466202Y-51332017D01*
X125475930Y-51376734D01*
X125537243Y-51541122D01*
X125574682Y-51641500D01*
X125574684Y-51641504D01*
X125710105Y-51889508D01*
X125710110Y-51889516D01*
X125879446Y-52115724D01*
X125879462Y-52115742D01*
X126079257Y-52315537D01*
X126079275Y-52315553D01*
X126305483Y-52484889D01*
X126305491Y-52484894D01*
X126553495Y-52620315D01*
X126553499Y-52620317D01*
X126553501Y-52620318D01*
X126818266Y-52719070D01*
X126956327Y-52749103D01*
X127094383Y-52779136D01*
X127094385Y-52779136D01*
X127094389Y-52779137D01*
X127305697Y-52794250D01*
X127446803Y-52794250D01*
X127658111Y-52779137D01*
X127934234Y-52719070D01*
X128198999Y-52620318D01*
X128447014Y-52484891D01*
X128673232Y-52315547D01*
X128873047Y-52115732D01*
X129042391Y-51889514D01*
X129177818Y-51641499D01*
X129276570Y-51376734D01*
X129336637Y-51100611D01*
X129356796Y-50818750D01*
X129336637Y-50536889D01*
X129327914Y-50496792D01*
X129276571Y-50260772D01*
X129276570Y-50260766D01*
X129177818Y-49996001D01*
X129042391Y-49747986D01*
X128971726Y-49653588D01*
X128873053Y-49521775D01*
X128873037Y-49521757D01*
X128673242Y-49321962D01*
X128673224Y-49321946D01*
X128447016Y-49152610D01*
X128447008Y-49152605D01*
X128199004Y-49017184D01*
X128199000Y-49017182D01*
X128098622Y-48979743D01*
X127934234Y-48918430D01*
X127934230Y-48918429D01*
X127934227Y-48918428D01*
X127658116Y-48858363D01*
X127446803Y-48843250D01*
X127305697Y-48843250D01*
X127094383Y-48858363D01*
X126818272Y-48918428D01*
X126818267Y-48918429D01*
X126818266Y-48918430D01*
X126754253Y-48942305D01*
X126553499Y-49017182D01*
X126553495Y-49017184D01*
X126305491Y-49152605D01*
X126305483Y-49152610D01*
X126079275Y-49321946D01*
X126079257Y-49321962D01*
X125879462Y-49521757D01*
X125879446Y-49521775D01*
X125710110Y-49747983D01*
X125710105Y-49747991D01*
X125574684Y-49995995D01*
X125574682Y-49995999D01*
X125475928Y-50260772D01*
X125415863Y-50536883D01*
X125395704Y-50818748D01*
X125395704Y-50818751D01*
X122948839Y-50818751D01*
X122946019Y-45738751D01*
X125395704Y-45738751D01*
X125415863Y-46020616D01*
X125475928Y-46296727D01*
X125475930Y-46296734D01*
X125511794Y-46392888D01*
X125574682Y-46561500D01*
X125574684Y-46561504D01*
X125710105Y-46809508D01*
X125710110Y-46809516D01*
X125879446Y-47035724D01*
X125879462Y-47035742D01*
X126079257Y-47235537D01*
X126079275Y-47235553D01*
X126305483Y-47404889D01*
X126305491Y-47404894D01*
X126553495Y-47540315D01*
X126553499Y-47540317D01*
X126553501Y-47540318D01*
X126818266Y-47639070D01*
X126956327Y-47669103D01*
X127094383Y-47699136D01*
X127094385Y-47699136D01*
X127094389Y-47699137D01*
X127305697Y-47714250D01*
X127446803Y-47714250D01*
X127658111Y-47699137D01*
X127934234Y-47639070D01*
X128198999Y-47540318D01*
X128447014Y-47404891D01*
X128673232Y-47235547D01*
X128873047Y-47035732D01*
X129042391Y-46809514D01*
X129177818Y-46561499D01*
X129276570Y-46296734D01*
X129336637Y-46020611D01*
X129356796Y-45738750D01*
X129355227Y-45716819D01*
X129344461Y-45566281D01*
X129336637Y-45456889D01*
X129332871Y-45439579D01*
X129278097Y-45187785D01*
X129276570Y-45180766D01*
X129177818Y-44916001D01*
X129170279Y-44902195D01*
X129042394Y-44667991D01*
X129042389Y-44667983D01*
X128893248Y-44468752D01*
X134744927Y-44468752D01*
X134764179Y-44688812D01*
X134764180Y-44688820D01*
X134821354Y-44902195D01*
X134821355Y-44902197D01*
X134821356Y-44902200D01*
X134837047Y-44935849D01*
X134914716Y-45102412D01*
X134914718Y-45102416D01*
X135041420Y-45283365D01*
X135041425Y-45283371D01*
X135197628Y-45439574D01*
X135197634Y-45439579D01*
X135378583Y-45566281D01*
X135378585Y-45566282D01*
X135378588Y-45566284D01*
X135578800Y-45659644D01*
X135792182Y-45716820D01*
X135949373Y-45730572D01*
X136012248Y-45736073D01*
X136012250Y-45736073D01*
X136012252Y-45736073D01*
X136067267Y-45731259D01*
X136195968Y-45720000D01*
X137524540Y-45720000D01*
X137544326Y-45908256D01*
X137544327Y-45908259D01*
X137602818Y-46088277D01*
X137602821Y-46088284D01*
X137697467Y-46252216D01*
X137751742Y-46312494D01*
X137824129Y-46392888D01*
X137977265Y-46504148D01*
X137977270Y-46504151D01*
X138150192Y-46581142D01*
X138150197Y-46581144D01*
X138335354Y-46620500D01*
X138335355Y-46620500D01*
X138524644Y-46620500D01*
X138524646Y-46620500D01*
X138709803Y-46581144D01*
X138882730Y-46504151D01*
X139035871Y-46392888D01*
X139162533Y-46252216D01*
X139257179Y-46088284D01*
X139315674Y-45908256D01*
X139332989Y-45743505D01*
X139359572Y-45678894D01*
X139368619Y-45668798D01*
X140902000Y-44135417D01*
X140963321Y-44101934D01*
X140991105Y-44100412D01*
X140991105Y-44099250D01*
X141186894Y-44099250D01*
X141186896Y-44099250D01*
X141372053Y-44059894D01*
X141544980Y-43982901D01*
X141698121Y-43871638D01*
X141824783Y-43730966D01*
X141919429Y-43567034D01*
X141977924Y-43387006D01*
X141997710Y-43198750D01*
X141977924Y-43010494D01*
X141919429Y-42830466D01*
X141824783Y-42666534D01*
X141698121Y-42525862D01*
X141698120Y-42525861D01*
X141544984Y-42414601D01*
X141544979Y-42414598D01*
X141372057Y-42337607D01*
X141372052Y-42337605D01*
X141226251Y-42306615D01*
X141186896Y-42298250D01*
X140997604Y-42298250D01*
X140965147Y-42305148D01*
X140812447Y-42337605D01*
X140812442Y-42337607D01*
X140639520Y-42414598D01*
X140639515Y-42414601D01*
X140486379Y-42525861D01*
X140359716Y-42666535D01*
X140265071Y-42830465D01*
X140265068Y-42830472D01*
X140206575Y-43010495D01*
X140206574Y-43010500D01*
X140205818Y-43017691D01*
X140179228Y-43082303D01*
X140170180Y-43092399D01*
X138479400Y-44783181D01*
X138418077Y-44816666D01*
X138391719Y-44819500D01*
X138335354Y-44819500D01*
X138302897Y-44826398D01*
X138150197Y-44858855D01*
X138150192Y-44858857D01*
X137977270Y-44935848D01*
X137977265Y-44935851D01*
X137824129Y-45047111D01*
X137697466Y-45187785D01*
X137602821Y-45351715D01*
X137602818Y-45351722D01*
X137544327Y-45531740D01*
X137544326Y-45531744D01*
X137529922Y-45668789D01*
X137524898Y-45716598D01*
X137524540Y-45720000D01*
X136195968Y-45720000D01*
X136232318Y-45716820D01*
X136445700Y-45659644D01*
X136645912Y-45566284D01*
X136826870Y-45439576D01*
X136983076Y-45283370D01*
X137109784Y-45102412D01*
X137203144Y-44902200D01*
X137260320Y-44688818D01*
X137279573Y-44468750D01*
X137277212Y-44441768D01*
X137260320Y-44248687D01*
X137260320Y-44248682D01*
X137203144Y-44035300D01*
X137109784Y-43835089D01*
X136983076Y-43654130D01*
X136826870Y-43497924D01*
X136826866Y-43497921D01*
X136826865Y-43497920D01*
X136645916Y-43371218D01*
X136645908Y-43371214D01*
X136517061Y-43311132D01*
X136464621Y-43264960D01*
X136445469Y-43197767D01*
X136465685Y-43130885D01*
X136517061Y-43086368D01*
X136570712Y-43061350D01*
X136645912Y-43026284D01*
X136826870Y-42899576D01*
X136983076Y-42743370D01*
X137109784Y-42562412D01*
X137203144Y-42362200D01*
X137260320Y-42148818D01*
X137279573Y-41928750D01*
X137260320Y-41708682D01*
X137203144Y-41495300D01*
X137109784Y-41295089D01*
X136983076Y-41114130D01*
X136826870Y-40957924D01*
X136826866Y-40957921D01*
X136826865Y-40957920D01*
X136645916Y-40831218D01*
X136645908Y-40831214D01*
X136517061Y-40771132D01*
X136464621Y-40724960D01*
X136445469Y-40657767D01*
X136465685Y-40590885D01*
X136517061Y-40546368D01*
X136523052Y-40543574D01*
X136645912Y-40486284D01*
X136826870Y-40359576D01*
X136983076Y-40203370D01*
X137109784Y-40022412D01*
X137203144Y-39822200D01*
X137260320Y-39608818D01*
X137277212Y-39415742D01*
X137279573Y-39388752D01*
X137279573Y-39388747D01*
X137272353Y-39306224D01*
X137260320Y-39168682D01*
X137203144Y-38955300D01*
X137109784Y-38755089D01*
X136983076Y-38574130D01*
X136826870Y-38417924D01*
X136826866Y-38417921D01*
X136826865Y-38417920D01*
X136645916Y-38291218D01*
X136645912Y-38291216D01*
X136645910Y-38291215D01*
X136445700Y-38197856D01*
X136445697Y-38197855D01*
X136445695Y-38197854D01*
X136232320Y-38140680D01*
X136232312Y-38140679D01*
X136012252Y-38121427D01*
X136012248Y-38121427D01*
X135792187Y-38140679D01*
X135792179Y-38140680D01*
X135578804Y-38197854D01*
X135578798Y-38197857D01*
X135378590Y-38291215D01*
X135378588Y-38291216D01*
X135197627Y-38417925D01*
X135041425Y-38574127D01*
X134914716Y-38755088D01*
X134914715Y-38755090D01*
X134821357Y-38955298D01*
X134821354Y-38955304D01*
X134764180Y-39168679D01*
X134764179Y-39168687D01*
X134744927Y-39388747D01*
X134744927Y-39388752D01*
X134764179Y-39608812D01*
X134764180Y-39608820D01*
X134821354Y-39822195D01*
X134821355Y-39822197D01*
X134821356Y-39822200D01*
X134867108Y-39920315D01*
X134914716Y-40022412D01*
X134914718Y-40022416D01*
X135041420Y-40203365D01*
X135041425Y-40203371D01*
X135197628Y-40359574D01*
X135197634Y-40359579D01*
X135378583Y-40486281D01*
X135378585Y-40486282D01*
X135378588Y-40486284D01*
X135497998Y-40541965D01*
X135507439Y-40546368D01*
X135559878Y-40592540D01*
X135579030Y-40659734D01*
X135558814Y-40726615D01*
X135507439Y-40771132D01*
X135378590Y-40831215D01*
X135378588Y-40831216D01*
X135197627Y-40957925D01*
X135041425Y-41114127D01*
X134914716Y-41295088D01*
X134914715Y-41295090D01*
X134821357Y-41495298D01*
X134821354Y-41495304D01*
X134764180Y-41708679D01*
X134764179Y-41708687D01*
X134744927Y-41928747D01*
X134744927Y-41928752D01*
X134764179Y-42148812D01*
X134764180Y-42148820D01*
X134821354Y-42362195D01*
X134821355Y-42362197D01*
X134821356Y-42362200D01*
X134845790Y-42414599D01*
X134914716Y-42562412D01*
X134914718Y-42562416D01*
X135041420Y-42743365D01*
X135041425Y-42743371D01*
X135197628Y-42899574D01*
X135197634Y-42899579D01*
X135378583Y-43026281D01*
X135378585Y-43026282D01*
X135378588Y-43026284D01*
X135453788Y-43061350D01*
X135507439Y-43086368D01*
X135559878Y-43132540D01*
X135579030Y-43199734D01*
X135558814Y-43266615D01*
X135507439Y-43311132D01*
X135378590Y-43371215D01*
X135378588Y-43371216D01*
X135197627Y-43497925D01*
X135041425Y-43654127D01*
X134914716Y-43835088D01*
X134914715Y-43835090D01*
X134821357Y-44035298D01*
X134821354Y-44035304D01*
X134764180Y-44248679D01*
X134764179Y-44248687D01*
X134744927Y-44468747D01*
X134744927Y-44468752D01*
X128893248Y-44468752D01*
X128873053Y-44441775D01*
X128873037Y-44441757D01*
X128673242Y-44241962D01*
X128673224Y-44241946D01*
X128447016Y-44072610D01*
X128447008Y-44072605D01*
X128199004Y-43937184D01*
X128199000Y-43937182D01*
X128023268Y-43871638D01*
X127934234Y-43838430D01*
X127934230Y-43838429D01*
X127934227Y-43838428D01*
X127658116Y-43778363D01*
X127446803Y-43763250D01*
X127305697Y-43763250D01*
X127094383Y-43778363D01*
X126818272Y-43838428D01*
X126818267Y-43838429D01*
X126818266Y-43838430D01*
X126754253Y-43862305D01*
X126553499Y-43937182D01*
X126553495Y-43937184D01*
X126305491Y-44072605D01*
X126305483Y-44072610D01*
X126079275Y-44241946D01*
X126079257Y-44241962D01*
X125879462Y-44441757D01*
X125879446Y-44441775D01*
X125710110Y-44667983D01*
X125710105Y-44667991D01*
X125574684Y-44915995D01*
X125574682Y-44915999D01*
X125475928Y-45180772D01*
X125415863Y-45456883D01*
X125395704Y-45738748D01*
X125395704Y-45738751D01*
X122946019Y-45738751D01*
X122941789Y-38118751D01*
X125395704Y-38118751D01*
X125415863Y-38400616D01*
X125475928Y-38676727D01*
X125475930Y-38676734D01*
X125537243Y-38841122D01*
X125574682Y-38941500D01*
X125574684Y-38941504D01*
X125710105Y-39189508D01*
X125710110Y-39189516D01*
X125879446Y-39415724D01*
X125879462Y-39415742D01*
X126079257Y-39615537D01*
X126079275Y-39615553D01*
X126305483Y-39784889D01*
X126305491Y-39784894D01*
X126553495Y-39920315D01*
X126553499Y-39920317D01*
X126553501Y-39920318D01*
X126818266Y-40019070D01*
X126956327Y-40049103D01*
X127094383Y-40079136D01*
X127094385Y-40079136D01*
X127094389Y-40079137D01*
X127305697Y-40094250D01*
X127446803Y-40094250D01*
X127658111Y-40079137D01*
X127934234Y-40019070D01*
X128198999Y-39920318D01*
X128447014Y-39784891D01*
X128673232Y-39615547D01*
X128873047Y-39415732D01*
X129042391Y-39189514D01*
X129177818Y-38941499D01*
X129276570Y-38676734D01*
X129336637Y-38400611D01*
X129356796Y-38118750D01*
X129336637Y-37836889D01*
X129276570Y-37560766D01*
X129177818Y-37296001D01*
X129042391Y-37047986D01*
X129042389Y-37047983D01*
X128873053Y-36821775D01*
X128873037Y-36821757D01*
X128673242Y-36621962D01*
X128673224Y-36621946D01*
X128447016Y-36452610D01*
X128447008Y-36452605D01*
X128199004Y-36317184D01*
X128199000Y-36317182D01*
X128098622Y-36279743D01*
X127934234Y-36218430D01*
X127934230Y-36218429D01*
X127934227Y-36218428D01*
X127658116Y-36158363D01*
X127446803Y-36143250D01*
X127305697Y-36143250D01*
X127094383Y-36158363D01*
X126818272Y-36218428D01*
X126818267Y-36218429D01*
X126818266Y-36218430D01*
X126754253Y-36242305D01*
X126553499Y-36317182D01*
X126553495Y-36317184D01*
X126305491Y-36452605D01*
X126305483Y-36452610D01*
X126079275Y-36621946D01*
X126079257Y-36621962D01*
X125879462Y-36821757D01*
X125879446Y-36821775D01*
X125710110Y-37047983D01*
X125710105Y-37047991D01*
X125574684Y-37295995D01*
X125574682Y-37295999D01*
X125475928Y-37560772D01*
X125415863Y-37836883D01*
X125395704Y-38118748D01*
X125395704Y-38118751D01*
X122941789Y-38118751D01*
X122938178Y-31613788D01*
X122957825Y-31546740D01*
X123010604Y-31500956D01*
X123079757Y-31490974D01*
X123143329Y-31519964D01*
X123181136Y-31578721D01*
X123181543Y-31580137D01*
X123228531Y-31747142D01*
X123228534Y-31747151D01*
X123373435Y-32116353D01*
X123373440Y-32116365D01*
X123554386Y-32469314D01*
X123554391Y-32469323D01*
X123769586Y-32802509D01*
X123895691Y-32960640D01*
X124016895Y-33112625D01*
X124293823Y-33396544D01*
X124293833Y-33396554D01*
X124597676Y-33651508D01*
X124925394Y-33874942D01*
X125273730Y-34064636D01*
X125639223Y-34218704D01*
X125639232Y-34218706D01*
X125639238Y-34218709D01*
X126018235Y-34335614D01*
X126018248Y-34335617D01*
X126406999Y-34414205D01*
X126407014Y-34414208D01*
X126745299Y-34448058D01*
X126801680Y-34453700D01*
X126801681Y-34453700D01*
X127099103Y-34453700D01*
X127297130Y-34443816D01*
X127396145Y-34438875D01*
X127788353Y-34379759D01*
X128172726Y-34281886D01*
X128545445Y-34146228D01*
X128902803Y-33974133D01*
X129241251Y-33767312D01*
X129557424Y-33527820D01*
X129848181Y-33258037D01*
X130110631Y-32960645D01*
X130342166Y-32638600D01*
X130540485Y-32295101D01*
X130703617Y-31933563D01*
X130829941Y-31557578D01*
X130918201Y-31170885D01*
X130967521Y-30777325D01*
X130977409Y-30380810D01*
X130947769Y-29985280D01*
X130878893Y-29594668D01*
X130839648Y-29455185D01*
X130771469Y-29212862D01*
X130771465Y-29212848D01*
X130626564Y-28843646D01*
X130626559Y-28843634D01*
X130445613Y-28490685D01*
X130445609Y-28490677D01*
X130230414Y-28157491D01*
X129983114Y-27847386D01*
X129983111Y-27847383D01*
X129983104Y-27847374D01*
X129706176Y-27563455D01*
X129706173Y-27563452D01*
X129706172Y-27563451D01*
X129706167Y-27563446D01*
X129402324Y-27308492D01*
X129320656Y-27252812D01*
X129074605Y-27085057D01*
X128892461Y-26985867D01*
X128726270Y-26895364D01*
X128726262Y-26895360D01*
X128726259Y-26895359D01*
X128360777Y-26741296D01*
X128360761Y-26741290D01*
X128076387Y-26653573D01*
X128018128Y-26615003D01*
X127989971Y-26551058D01*
X128000854Y-26482041D01*
X128047322Y-26429865D01*
X128113209Y-26411082D01*
X148080526Y-26455053D01*
G37*
%TD.AperFunction*%
%TD*%
M02*
